<?xml version="1.0" standalone="no"?>
<!DOCTYPE svg PUBLIC "-//W3C//DTD SVG 20010904//EN"
 "http://www.w3.org/TR/2001/REC-SVG-20010904/DTD/svg10.dtd">
<svg version="1.0" xmlns="http://www.w3.org/2000/svg"
 width="1440.000000pt" height="1040.000000pt" viewBox="0 0 1440.000000 1040.000000"
 preserveAspectRatio="xMidYMid meet">

<g transform="translate(0.000000,1040.000000) scale(0.100000,-0.100000)"
fill="#000000" stroke="none">
<path d="M0 5200 l0 -5200 825 0 825 0 0 148 c0 179 -11 252 -51 339 -50 110
-50 111 28 163 37 25 73 46 79 48 6 2 24 -51 43 -127 18 -71 45 -169 61 -218
27 -79 30 -101 30 -220 l0 -133 78 0 78 0 22 46 c19 38 22 55 15 93 -9 57 -7
66 21 108 21 30 25 32 36 18 8 -9 33 -27 56 -41 24 -14 46 -34 49 -46 5 -15
13 -18 31 -14 14 4 53 -4 96 -20 79 -28 147 -42 248 -51 85 -7 73 4 -16 16
-186 25 -290 60 -396 131 -52 36 -75 58 -79 78 -10 44 -10 220 0 227 6 3 43
-17 83 -44 118 -79 307 -131 472 -131 164 0 451 46 560 89 16 6 30 10 32 8 2
-1 4 -61 6 -132 l3 -130 -55 -18 c-68 -22 -120 -34 -235 -52 -49 -7 -103 -16
-120 -19 -16 -3 -61 -7 -98 -10 -38 -2 -71 -7 -75 -10 -9 -10 116 -7 187 4
176 28 261 44 320 61 36 10 68 16 73 13 4 -3 8 -29 8 -58 0 -29 5 -67 11 -85
l11 -31 124 0 c93 0 124 3 124 13 0 22 -29 162 -40 194 -9 25 -8 39 3 65 8 18
27 69 42 113 15 44 40 109 55 145 15 36 36 92 46 125 10 33 19 61 20 63 0 1
25 -13 54 -33 28 -19 61 -35 71 -35 10 0 19 -3 19 -7 0 -5 -23 -48 -50 -98
-28 -49 -63 -117 -79 -150 l-30 -60 6 -167 6 -168 933 0 c781 0 934 2 941 14
4 7 29 38 55 67 265 302 263 299 238 299 -5 0 -64 -54 -130 -120 -67 -66 -123
-120 -125 -120 -18 0 6 33 79 108 157 163 236 265 194 250 -7 -3 -44 -15 -81
-29 -53 -18 -76 -32 -99 -61 -32 -41 -48 -48 -48 -22 0 9 -9 18 -20 21 -23 6
-25 16 -8 43 21 32 -8 69 -81 103 l-64 30 -39 -22 c-21 -12 -74 -48 -116 -80
-110 -83 -128 -93 -154 -89 -22 3 -21 4 14 43 20 22 53 46 75 54 21 8 64 33
96 57 157 120 177 136 177 145 0 5 25 25 55 45 31 19 69 54 85 77 68 98 101
135 135 151 19 9 56 38 82 64 27 26 65 62 86 80 31 27 37 39 37 72 0 22 -5 40
-11 40 -6 0 -64 -37 -130 -82 -66 -46 -144 -97 -172 -114 -29 -16 -72 -44 -96
-62 -24 -18 -69 -44 -100 -58 -31 -15 -78 -42 -106 -60 -27 -19 -56 -34 -63
-34 -26 0 57 69 203 168 154 103 272 203 261 220 -7 12 22 38 100 91 34 22 93
71 131 108 39 38 90 81 114 96 131 84 351 241 479 341 30 23 91 66 135 95 44
29 118 92 165 140 47 47 121 121 165 162 76 72 115 123 103 134 -11 11 -144
-68 -253 -150 -118 -88 -220 -156 -300 -200 -27 -15 -68 -40 -90 -56 -93 -68
-248 -169 -252 -165 -2 2 35 35 83 73 48 37 99 79 113 93 26 25 127 101 201
150 39 27 185 133 235 172 23 18 26 24 12 26 -9 2 -29 -6 -45 -18 -37 -29
-181 -120 -190 -120 -4 -1 -23 -14 -42 -30 -19 -17 -40 -30 -46 -30 -7 0 -30
-15 -52 -33 -22 -19 -54 -40 -71 -47 -17 -7 -31 -16 -31 -20 0 -4 -26 -20 -57
-35 -70 -32 -117 -63 -203 -131 -36 -28 -113 -83 -171 -123 -58 -39 -118 -85
-134 -101 -28 -29 -55 -39 -55 -21 0 17 114 111 255 211 50 34 99 72 111 84
63 63 116 106 169 140 90 57 126 86 120 97 -7 11 -69 -19 -145 -71 -30 -21
-77 -47 -104 -60 -28 -12 -90 -48 -139 -79 -49 -31 -105 -65 -123 -76 -19 -11
-50 -33 -69 -49 -19 -16 -45 -36 -59 -45 -13 -9 -39 -28 -58 -42 -18 -14 -46
-31 -62 -38 -27 -11 -28 -11 -15 5 7 9 32 28 54 42 86 53 143 103 165 146 17
35 38 54 89 84 150 89 255 156 567 365 316 213 414 287 414 313 0 25 -30 22
-92 -10 -106 -56 -218 -129 -488 -322 -165 -117 -360 -248 -424 -283 -44 -25
-61 -30 -66 -21 -12 20 -62 5 -148 -45 -72 -41 -149 -74 -257 -109 -22 -8 -48
-17 -57 -21 -14 -5 -18 -2 -18 14 0 12 -6 21 -12 21 -7 0 6 18 30 40 23 21 42
48 42 60 0 11 6 20 13 20 10 0 182 73 262 111 12 6 65 44 118 85 91 70 117
104 82 104 -44 0 8 42 175 139 69 40 136 82 150 92 14 10 45 31 70 46 102 61
298 196 340 234 227 210 273 265 153 184 -29 -19 -56 -35 -60 -35 -4 0 -30
-15 -58 -34 -27 -19 -95 -63 -150 -98 -55 -36 -164 -106 -242 -156 -78 -51
-144 -92 -148 -92 -3 0 -18 -9 -33 -19 -65 -46 -449 -285 -572 -356 -74 -43
-145 -85 -157 -93 -50 -32 -18 1 60 62 45 35 102 86 127 111 25 26 63 61 85
77 22 16 74 58 115 93 212 182 369 304 504 393 47 32 125 99 186 162 59 60
139 130 183 160 43 28 88 62 99 75 11 13 57 47 102 74 44 28 95 63 111 79 25
23 154 114 365 257 103 70 251 177 390 284 36 28 126 91 200 142 74 50 150
104 168 120 18 16 37 29 42 29 6 0 27 15 47 34 21 18 58 46 83 61 25 15 68 47
95 70 28 23 88 68 135 100 47 32 110 81 141 109 31 28 64 57 73 64 18 14 13
32 -8 32 -7 0 -62 -35 -122 -78 -109 -77 -125 -90 -193 -147 -20 -17 -81 -61
-136 -98 -55 -37 -176 -125 -268 -197 -146 -113 -174 -130 -205 -130 -30 0
-63 -17 -167 -86 -72 -47 -143 -98 -160 -113 -46 -43 -118 -89 -145 -93 -14
-1 -30 -14 -37 -28 -16 -33 -50 -60 -75 -60 -11 0 -28 -10 -39 -22 -10 -13
-18 -17 -19 -10 0 20 -27 14 -54 -13 -14 -14 -33 -25 -42 -25 -9 0 -31 -12
-50 -27 -71 -59 -93 -73 -147 -93 -31 -12 -59 -26 -62 -31 -11 -17 -155 -110
-155 -100 0 6 8 15 19 20 10 6 51 37 90 71 40 33 86 68 102 77 35 21 35 49 0
45 -24 -2 -32 -8 -145 -97 -66 -53 -86 -64 -86 -47 0 12 191 168 380 310 24
17 47 32 52 32 8 0 37 21 232 172 65 50 90 78 69 78 -5 0 -56 -31 -114 -68
-119 -79 -166 -105 -180 -100 -6 2 34 33 88 70 54 37 126 89 160 117 35 28
100 76 145 107 46 31 104 78 130 104 43 44 136 118 183 147 101 60 185 116
196 130 19 22 206 163 217 163 4 0 19 14 32 32 19 26 21 34 11 50 -10 16 -6
26 25 63 20 25 40 45 44 45 10 0 226 192 270 240 19 21 64 53 100 70 36 18
113 68 172 111 59 44 109 79 112 79 25 0 270 136 390 216 82 54 163 107 180
117 17 11 54 36 81 56 28 21 61 43 75 50 41 22 127 76 453 292 579 381 662
437 692 464 38 33 275 195 286 195 5 0 26 15 46 34 21 18 72 55 113 82 41 26
83 58 95 71 11 12 38 28 60 35 29 10 41 19 43 36 3 19 9 22 52 22 60 0 80 7
80 29 0 19 -8 15 216 139 99 55 199 111 224 125 25 14 72 33 105 42 33 10 69
21 80 25 11 5 45 16 75 26 30 10 70 29 89 43 18 15 47 36 65 49 29 21 76 94
76 118 0 6 26 38 58 71 57 60 58 60 146 77 75 14 111 26 170 54 5 3 6 -1 2 -7
-14 -21 4 -71 25 -71 10 0 19 5 19 10 0 6 5 10 11 10 17 0 0 -19 -57 -61 -40
-29 -54 -46 -54 -64 0 -43 41 -43 99 -2 36 26 52 32 60 24 17 -17 13 -31 -15
-58 -16 -15 -23 -31 -20 -43 3 -11 -5 -32 -19 -50 -26 -34 -53 -121 -42 -132
4 -4 25 6 47 22 22 16 129 95 238 175 108 80 217 158 242 173 l45 28 -36 -34
c-19 -18 -117 -98 -217 -178 -100 -79 -182 -150 -182 -156 0 -21 47 -24 146
-9 55 9 176 18 269 22 l170 5 87 59 c48 32 129 89 180 127 51 37 114 83 140
101 27 17 48 36 48 40 0 5 48 39 108 75 59 37 127 82 152 101 54 41 57 41 63
13 2 -13 5 538 6 1225 l1 1247 -7200 0 -7200 0 0 -5200z m12103 4975 c252 -62
441 -209 568 -440 16 -29 29 -56 29 -59 0 -3 -375 -6 -834 -6 l-834 0 38 73
c77 147 217 282 380 367 36 19 112 46 170 61 147 39 339 40 483 4z m1388 -745
c22 -12 27 -78 7 -98 -9 -9 -385 -12 -1629 -12 l-1618 0 -15 22 c-21 30 -20
54 4 78 20 20 33 20 1626 20 1087 0 1612 -3 1625 -10z m-3694 -190 c19 -91 36
-172 39 -180 4 -8 12 11 20 45 7 33 26 115 41 183 l27 122 77 0 76 0 6 -112
c4 -62 7 -207 7 -321 l0 -208 -52 3 -53 3 -2 50 c-1 28 -2 117 -2 200 -1 86
-5 145 -10 140 -5 -6 -23 -86 -41 -180 -45 -241 -35 -217 -89 -213 l-46 3 -39
197 c-22 109 -42 195 -45 192 -3 -3 -8 -92 -11 -197 l-5 -192 -52 -3 -53 -3 0
154 c0 85 3 229 7 321 l6 167 81 -3 80 -3 33 -165z m1211 -15 c16 -34 17 -32
-24 -45 -33 -11 -35 -14 -27 -43 12 -50 5 -119 -15 -146 -41 -55 -68 -66 -158
-66 -56 1 -85 -3 -88 -11 -9 -23 18 -32 123 -43 119 -11 147 -26 170 -86 13
-32 13 -43 0 -79 -11 -34 -23 -45 -63 -65 -40 -20 -64 -24 -135 -24 -97 0
-150 17 -176 56 -21 32 -11 70 24 100 l27 22 -28 27 c-35 33 -36 67 -3 107
l26 30 -21 33 c-27 45 -27 129 0 173 11 18 37 41 58 51 50 24 150 24 186 0 26
-17 28 -16 57 8 38 33 53 33 67 1z m1053 -10 c49 -26 57 -60 61 -263 l3 -183
-60 3 c-58 3 -60 4 -65 33 l-5 29 -17 -26 c-10 -15 -27 -30 -39 -33 -19 -6
-17 -9 18 -25 52 -23 80 -61 89 -116 3 -25 5 -47 3 -49 -2 -2 -32 -7 -67 -11
l-62 -7 0 35 c0 40 -15 58 -47 58 -27 0 -45 -35 -36 -71 7 -31 34 -60 111
-121 79 -64 115 -122 116 -192 0 -65 -26 -113 -80 -144 -33 -19 -51 -22 -116
-20 -58 2 -83 8 -105 24 -32 23 -70 94 -75 139 -3 29 -2 30 59 41 69 12 64 15
78 -54 11 -53 75 -69 90 -21 13 41 -6 78 -68 132 -112 96 -145 135 -155 183
-11 50 -2 102 22 139 20 30 85 65 123 65 l27 0 -32 28 c-57 48 -60 127 -6 183
15 16 58 41 96 56 l69 28 -3 40 c-3 35 -6 40 -28 40 -19 0 -26 -7 -34 -32 -8
-31 -12 -33 -52 -33 -23 0 -49 3 -58 6 -36 14 -4 109 46 135 59 32 142 33 199
4z m740 0 c51 -27 57 -53 61 -258 l3 -188 -60 3 c-58 3 -60 4 -63 32 l-4 28
-27 -33 c-71 -85 -206 -4 -180 109 11 50 53 88 131 119 l69 28 -3 40 c-3 35
-6 40 -27 40 -19 0 -27 -7 -33 -32 -8 -31 -11 -33 -56 -33 -65 0 -76 10 -68
54 10 52 44 86 101 102 56 15 112 11 156 -11z m-2481 -169 c0 -119 4 -187 11
-191 5 -4 21 -4 35 -1 l24 6 0 185 0 185 70 0 70 0 0 -230 0 -230 -70 0 c-65
0 -70 2 -70 21 0 21 -1 21 -26 4 -43 -28 -85 -36 -122 -24 -56 18 -62 44 -62
264 l0 195 70 0 70 0 0 -184z m870 -46 l0 -230 -65 0 -65 0 0 230 0 230 65 0
65 0 0 -230z m195 110 c10 -66 20 -118 23 -116 2 3 12 56 21 118 l16 113 50 0
50 0 16 -120 c9 -66 18 -122 19 -125 1 -3 10 46 20 109 10 62 21 120 24 127 4
9 22 14 56 14 l50 0 -6 -42 c-4 -24 -21 -126 -38 -228 l-31 -185 -57 -3 c-65
-3 -58 -15 -84 136 -9 56 -20 100 -23 96 -3 -3 -15 -56 -26 -117 l-20 -112
-60 0 -60 0 -27 175 c-15 96 -30 199 -34 228 l-7 52 55 0 56 0 17 -120z m965
84 l0 -35 34 35 c24 26 42 36 65 36 l31 0 0 -60 0 -60 -42 0 c-29 0 -49 -7
-65 -22 -22 -21 -23 -28 -23 -170 l0 -148 -70 0 -70 0 0 230 0 230 70 0 70 0
0 -36z m1377 -395 c15 -5 40 -22 55 -36 80 -76 16 -203 -103 -203 -143 0 -192
173 -66 231 48 21 74 23 114 8z m-10757 -86 c135 -144 170 -191 170 -225 0
-61 -14 -65 -56 -17 -83 93 -164 164 -221 197 -27 14 -93 16 -93 2 0 -5 -8
-10 -19 -10 -28 0 -168 -78 -210 -118 -10 -9 -35 -32 -55 -50 -25 -23 -36 -42
-36 -62 0 -42 -38 -49 -52 -10 -13 39 -95 94 -218 148 -110 48 -130 51 -177
23 -32 -20 -130 -130 -208 -233 -40 -53 -42 -59 -37 -107 2 -28 2 -51 -1 -51
-4 0 -22 8 -42 17 -33 16 -35 19 -35 66 0 44 5 56 49 111 26 33 56 75 65 93 9
17 24 38 33 45 10 7 40 40 66 73 27 32 65 70 84 83 l36 25 65 -23 c77 -27 178
-80 282 -145 37 -23 44 -25 58 -12 21 18 195 128 259 164 26 14 66 38 88 52
96 62 117 58 205 -36z m9320 -73 l0 -70 35 0 c34 0 35 -1 35 -40 0 -39 -1 -40
-35 -40 l-35 0 0 -129 c0 -139 2 -145 51 -143 28 1 29 -1 29 -48 l0 -48 -40
-7 c-61 -10 -120 3 -152 35 l-28 28 0 156 0 156 -25 0 c-22 0 -25 4 -25 40 0
36 3 40 25 40 24 0 25 2 25 70 l0 70 70 0 70 0 0 -70z m-9451 -6 c24 -8 53
-22 65 -31 21 -15 21 -15 -6 -9 -16 4 -28 1 -32 -7 -3 -6 -3 -2 0 11 5 21 3
23 -23 20 -22 -2 -29 -9 -31 -29 -3 -23 3 -28 45 -44 26 -10 54 -25 61 -32 22
-21 -5 -16 -54 12 -36 20 -52 24 -92 19 -53 -7 -124 -48 -183 -106 -38 -37
-39 -41 -39 -106 0 -123 6 -132 120 -186 103 -49 115 -58 115 -90 0 -10 8 -20
18 -22 9 -1 17 4 17 12 0 8 -5 14 -12 14 -31 0 16 23 74 37 105 24 115 25 122
14 4 -7 1 -9 -8 -5 -8 3 -25 0 -37 -7 -13 -6 -36 -12 -51 -11 -15 0 -28 -3
-28 -8 0 -4 -6 -8 -12 -7 -36 1 -47 -4 -41 -19 3 -8 11 -13 19 -10 7 3 15 0
18 -7 2 -7 5 -4 5 7 1 13 5 16 14 9 17 -13 129 -4 120 9 -4 7 -1 8 6 4 7 -5
18 0 26 10 8 11 15 14 15 8 0 -18 -36 -45 -67 -50 -15 -2 -66 -7 -113 -10 -47
-4 -90 -11 -97 -16 -7 -5 -22 -6 -35 -3 -34 11 -221 105 -235 118 -7 7 -17 75
-24 167 l-12 154 51 46 c55 49 157 114 226 142 51 21 43 21 95 2z m-669 -91
c173 -71 205 -103 215 -216 3 -37 7 -97 11 -134 3 -37 2 -64 -2 -61 -3 4 -10
58 -14 120 -9 120 -17 168 -30 168 -5 0 -11 -13 -15 -30 -9 -39 -23 -47 -31
-16 -6 26 -43 43 -152 70 -101 25 -100 26 -191 -75 l-81 -92 0 -61 c1 -61 13
-142 23 -152 11 -11 248 -24 260 -14 58 49 117 90 117 82 0 -5 -27 -28 -60
-51 -69 -49 -79 -61 -50 -61 14 0 19 4 14 13 -4 6 -4 9 1 5 4 -4 14 -3 20 2 9
7 14 6 18 -3 3 -9 -8 -18 -31 -27 -31 -11 -37 -10 -47 4 -11 15 -13 15 -18 -4
-5 -19 -13 -20 -149 -20 -78 0 -148 4 -154 8 -10 6 -21 65 -43 235 -7 55 -6
61 22 100 56 77 158 192 200 224 47 36 43 37 167 -14z m818 -15 c90 -92 112
-117 112 -130 0 -6 -15 6 -34 28 -67 78 -138 144 -148 138 -7 -4 -8 -2 -4 4
12 19 19 15 74 -40z m9719 27 c13 -9 33 -30 44 -48 18 -29 19 -47 17 -174 -3
-142 -3 -142 -33 -173 -36 -38 -93 -54 -167 -47 -68 6 -114 35 -134 83 -15 35
-20 214 -8 273 8 39 54 87 97 101 44 13 154 4 184 -15z m414 13 c-1 -5 -1 -32
-1 -61 l0 -53 -33 4 c-25 3 -41 -2 -61 -20 l-28 -24 1 -147 2 -147 -71 0 -70
0 0 225 0 225 71 0 71 0 -4 -30 c-6 -37 1 -38 33 -4 13 14 33 30 44 35 23 9
46 8 46 -3z m290 2 c19 -5 48 -24 65 -41 26 -27 29 -38 33 -110 l3 -79 -101 0
-101 0 0 -59 c0 -62 14 -86 47 -79 13 2 19 14 21 46 l3 42 65 0 64 0 0 -40 c0
-85 -47 -130 -145 -138 -88 -7 -148 21 -175 80 -24 54 -28 239 -6 292 33 80
124 114 227 86z m-10644 -56 c-3 -3 -12 -4 -19 -1 -8 3 -5 6 6 6 11 1 17 -2
13 -5z m203 -34 c12 -12 25 -18 30 -15 6 4 14 -5 19 -18 6 -14 15 -28 20 -32
6 -3 11 -11 11 -16 0 -5 -11 2 -26 16 -14 14 -22 30 -18 37 4 7 3 8 -5 4 -13
-8 -61 19 -61 34 0 15 8 12 30 -10z m-877 -57 c-7 -2 -19 -2 -25 0 -7 3 -2 5
12 5 14 0 19 -2 13 -5z m60 -10 c-7 -2 -19 -2 -25 0 -7 3 -2 5 12 5 14 0 19
-2 13 -5z m908 -77 c-5 -12 -8 -58 -7 -103 1 -46 -2 -83 -6 -83 -10 0 -11 192
-2 215 5 13 9 14 15 4 4 -7 4 -22 0 -33z m49 40 c0 -3 -4 -8 -10 -11 -5 -3
-10 -1 -10 4 0 6 5 11 10 11 6 0 10 -2 10 -4z m-678 -48 c-3 -14 -1 -19 6 -14
7 4 10 -12 7 -54 -3 -41 0 -60 7 -60 9 0 9 -3 0 -12 -6 -6 -13 -10 -15 -7 -9
9 -15 169 -7 169 4 0 6 -10 2 -22z m674 -24 c-7 -18 -22 -18 -29 0 -4 11 -1
13 10 9 11 -4 14 -2 9 5 -4 7 -4 18 1 25 10 15 17 -17 9 -39z m79 26 c3 -5 -1
-10 -10 -10 -9 0 -13 5 -10 10 3 6 8 10 10 10 2 0 7 -4 10 -10z m-841 -80 c4
-33 3 -49 -3 -40 -5 8 -11 39 -13 69 -7 69 7 44 16 -29z m749 -71 c-4 -4 -6
15 -3 44 l5 52 3 -44 c2 -24 0 -47 -5 -52z m-1374 12 c11 -7 7 -13 -20 -24
-36 -15 -49 -6 -29 18 14 17 29 19 49 6z m56 -53 c10 -58 10 -107 0 -110 -11
-2 -34 109 -27 130 7 23 21 12 27 -20z m540 15 c-3 -28 -16 -53 -28 -53 -5 0
-2 9 7 19 13 15 14 20 4 24 -10 4 -10 8 2 16 8 6 15 11 16 11 0 0 0 -8 -1 -17z
m768 -54 c-18 -18 -19 -18 -32 4 -13 20 -13 21 3 8 15 -13 19 -13 27 0 5 8 9
21 10 29 1 10 3 9 6 -4 3 -10 -3 -27 -14 -37z m-1359 19 c14 -70 16 -98 6 -98
-13 0 -17 11 -24 73 -6 47 9 68 18 25z m-54 -8 c0 -5 -4 -10 -10 -10 -5 0 -10
5 -10 10 0 6 5 10 10 10 6 0 10 -4 10 -10z m720 -1 c0 -3 -17 -14 -37 -23 -21
-10 -50 -24 -65 -32 -40 -22 -58 -17 -20 6 18 11 38 20 46 20 7 0 20 8 29 18
17 18 47 26 47 11z m790 -37 c0 -9 -7 -8 -25 5 -32 23 -32 34 0 20 14 -7 25
-18 25 -25z m-910 14 c0 -2 -8 -10 -17 -17 -16 -13 -17 -12 -4 4 13 16 21 21
21 13z m702 -18 c-7 -7 -12 -8 -12 -2 0 14 12 26 19 19 2 -3 -1 -11 -7 -17z
m-601 -32 c-17 -21 -75 -46 -103 -45 -15 0 -18 3 -8 6 8 3 38 16 65 29 60 28
61 28 46 10z m-581 -36 c0 -5 -7 -7 -15 -4 -8 4 -15 8 -15 10 0 2 7 4 15 4 8
0 15 -4 15 -10z m1300 -188 c0 -15 8 -39 17 -52 10 -14 18 -38 20 -55 1 -16 5
-50 8 -75 l6 -45 -30 35 c-17 19 -31 42 -31 52 0 9 -10 22 -21 29 -21 11 -22
10 -16 -19 5 -25 3 -30 -8 -25 -9 3 -15 -1 -15 -11 0 -9 -4 -16 -9 -16 -19 0
3 -48 29 -63 38 -23 40 -22 41 16 0 30 1 31 11 10 11 -22 16 -25 48 -27 14 -1
20 -30 33 -173 1 -13 6 -23 11 -23 12 0 2 196 -12 212 -5 7 -10 24 -10 38 2
56 -15 146 -29 163 -23 24 -11 30 23 12 16 -8 37 -15 46 -15 31 0 47 -12 87
-65 50 -66 57 -94 36 -134 -12 -25 -14 -47 -9 -107 l7 -75 -39 7 c-35 5 -41 3
-60 -23 -11 -15 -24 -37 -29 -48 -7 -19 -8 -19 -15 5 -5 19 -7 14 -8 -22 0
-27 3 -48 7 -48 4 0 18 23 31 51 22 46 44 69 67 69 13 0 30 -32 37 -70 7 -34
7 -34 -6 -10 -23 42 -48 31 -84 -35 -19 -36 -37 -59 -46 -57 -11 1 -18 -16
-26 -62 -20 -108 -13 -120 39 -65 32 34 37 70 14 89 -14 12 -12 30 3 30 4 0
19 -11 34 -25 24 -22 26 -28 17 -54 -6 -16 -33 -51 -61 -77 -46 -43 -52 -46
-58 -29 -5 14 -16 -10 -40 -85 -18 -57 -52 -142 -76 -189 -52 -103 -71 -118
-229 -185 -85 -35 -150 -46 -280 -46 -106 0 -118 2 -193 34 -78 32 -139 71
-174 110 -14 15 -18 37 -18 96 0 88 -10 104 -72 115 -45 9 -52 16 -67 78 -11
44 -10 52 8 80 23 36 26 29 10 -27 -8 -31 -8 -41 3 -47 19 -13 28 -11 28 6 0
8 8 15 19 15 10 0 24 7 31 15 7 8 19 15 26 15 8 0 14 4 14 8 0 17 -13 21 -33
11 -15 -8 -22 -8 -28 2 -7 12 -11 11 -19 -1 -7 -11 -9 0 -4 38 8 63 -4 67 -40
12 -15 -23 -31 -38 -35 -35 -5 2 -23 64 -41 137 -30 122 -32 142 -28 253 4 91
9 127 22 147 14 21 16 42 13 112 -3 47 -4 86 -3 86 0 0 19 -7 41 -16 22 -8 48
-17 58 -21 22 -7 22 -7 -9 -38 -33 -34 -22 -52 17 -25 16 12 29 26 29 31 0 11
11 11 29 0 10 -7 11 -13 1 -31 -9 -17 -9 -24 3 -33 9 -7 17 -21 19 -32 2 -15
11 -20 33 -20 32 0 37 14 20 65 -8 25 -8 25 14 6 11 -11 21 -29 21 -41 0 -26
25 -52 34 -36 4 6 4 22 0 36 -6 24 -5 26 12 17 109 -57 233 -80 333 -62 58 10
212 82 281 130 14 9 62 37 108 61 49 26 81 48 78 56 -5 12 13 24 27 16 4 -2 7
-16 7 -31z m-1179 -137 c-1 -38 -8 -79 -17 -96 -11 -23 -15 -60 -14 -152 1
-67 1 -125 1 -130 -1 -4 -12 -1 -25 8 -13 8 -30 13 -39 10 -11 -5 -19 6 -32
44 -9 28 -25 56 -35 61 -17 9 -26 38 -36 115 -5 33 -1 47 25 82 42 57 151 147
164 134 5 -5 9 -40 8 -76z m236 -17 c-3 -8 -6 -5 -6 6 -1 11 2 17 5 13 3 -3 4
-12 1 -19z m1154 -393 c10 -34 13 -37 20 -20 5 14 8 2 8 -38 1 -93 -50 -167
-157 -225 -49 -27 -56 -13 -9 19 49 33 107 101 114 132 3 15 9 27 14 27 17 0
9 30 -8 30 -21 1 -63 33 -63 49 0 15 23 14 38 -1 6 -6 14 -9 17 -6 4 3 -3 15
-15 26 -21 19 -21 21 -4 47 20 30 27 24 45 -40z m-1390 -75 c5 -23 8 -44 6
-46 -2 -2 -20 26 -40 61 -53 91 -67 85 -67 -28 0 -44 3 -58 10 -47 5 8 10 35
10 60 l1 45 18 -35 c18 -34 18 -35 0 -59 -32 -40 -16 -61 18 -22 9 11 20 18
25 15 15 -9 8 -39 -12 -52 -14 -9 -20 -23 -20 -51 0 -49 29 -87 80 -102 30 -9
42 -19 50 -42 5 -17 8 -32 5 -35 -3 -3 -23 0 -44 7 -48 14 -126 96 -141 149
-28 93 -23 247 7 278 15 14 19 13 50 -19 22 -21 38 -50 44 -77z m1289 -38 c0
-20 -27 -62 -39 -62 -5 0 -3 18 2 40 11 40 37 56 37 22z m-1276 -160 c4 -7 13
-12 21 -12 7 0 16 -7 19 -16 5 -12 1 -14 -17 -8 -49 15 -79 72 -54 103 10 11
13 7 18 -20 3 -19 9 -40 13 -47z m26 38 c0 -5 -2 -10 -4 -10 -3 0 -8 5 -11 10
-3 6 -1 10 4 10 6 0 11 -4 11 -10z m153 -198 c20 -18 24 -108 5 -114 -22 -8
-88 92 -88 132 0 16 60 2 83 -18z m68 -222 c13 -16 29 -30 36 -30 6 0 18 -6
25 -13 7 -7 29 -20 48 -28 19 -9 46 -21 60 -27 14 -6 19 -11 12 -11 -32 -2
-45 -33 -53 -128 -5 -53 -10 -97 -12 -100 -2 -2 -12 8 -21 22 -38 58 -97 107
-129 107 -49 1 -116 -22 -175 -60 -30 -18 -56 -31 -59 -29 -20 21 196 327 231
327 8 0 24 -13 37 -30z m865 -1 c22 -16 54 -42 72 -56 17 -14 32 -28 32 -32 0
-8 -70 -29 -128 -37 -33 -5 -52 -17 -82 -48 -22 -22 -40 -45 -40 -51 0 -5 -9
-21 -20 -35 l-20 -25 0 30 c0 17 -7 39 -15 49 -8 10 -12 22 -10 26 7 11 -24
80 -35 80 -23 0 -6 17 40 38 51 25 70 23 70 -6 0 -11 8 -18 21 -19 15 -1 19 2
15 13 -3 9 -6 20 -6 25 0 6 -4 8 -9 4 -5 -3 -12 -1 -15 4 -6 10 62 70 80 71 6
0 29 -14 50 -31z m-286 -108 c0 -11 -5 -32 -10 -46 -10 -26 -13 -27 -56 -20
-34 5 -52 2 -71 -10 -24 -16 -26 -16 -40 5 -11 16 -21 20 -40 15 -14 -3 -31
-1 -38 5 -10 8 -19 3 -39 -22 -22 -28 -28 -31 -36 -18 -6 8 -8 24 -5 35 2 11
5 27 5 35 0 12 22 15 133 17 72 0 143 6 157 11 36 15 40 14 40 -7z m401 -64
c-7 -7 -17 -7 -33 1 -13 6 -32 12 -42 14 -34 5 -17 23 32 33 45 10 47 10 50
-14 2 -13 -1 -28 -7 -34z m-361 13 c0 -24 -21 -70 -32 -70 -11 0 -10 13 4 59
13 40 28 46 28 11z m-390 7 c0 -7 -5 -18 -11 -24 -9 -9 -6 -19 10 -41 11 -17
21 -35 21 -41 0 -19 -19 -12 -36 14 -20 31 -50 36 -34 6 5 -11 10 -28 10 -39
0 -11 9 -26 21 -33 16 -11 19 -20 14 -42 -6 -23 -12 -27 -42 -27 l-35 0 7 108
c4 59 12 113 17 120 14 16 58 16 58 -1z m108 -49 c8 -8 15 -8 26 1 11 10 18 6
34 -21 11 -18 24 -46 28 -63 4 -16 13 -43 21 -59 13 -25 13 -30 0 -43 -13 -13
-20 -9 -61 31 -26 25 -62 51 -81 58 -40 14 -43 30 -15 76 21 35 30 38 48 20z
m214 -7 c3 -1 9 -20 13 -43 3 -24 9 -51 11 -60 5 -16 -23 -28 -93 -42 -4 0
-17 25 -29 56 -20 51 -20 59 -7 78 12 17 22 20 56 16 23 -3 45 -5 49 -5z m98
-30 c18 -34 12 -68 -12 -75 -36 -9 -38 -8 -38 24 0 30 18 70 32 70 4 0 12 -9
18 -19z m-736 0 c3 -5 -3 -11 -14 -14 -20 -5 -26 3 -13 16 9 10 21 9 27 -2z
m354 -147 c-10 -10 -28 6 -28 24 0 15 1 15 17 -1 9 -9 14 -19 11 -23z m437
-11 c13 -16 25 -31 25 -34 0 -7 -68 6 -76 14 -5 5 17 47 24 47 2 0 14 -12 27
-27z m-1006 -433 c-29 -48 -33 -50 -74 -50 -38 0 -52 -7 -94 -42 -45 -39 -63
-68 -43 -68 4 0 23 16 42 35 19 20 44 35 57 35 27 0 27 -2 10 -38 -8 -15 -19
-56 -26 -92 -7 -36 -17 -84 -23 -108 -6 -23 -8 -63 -4 -89 10 -75 -21 -151
-56 -138 -29 11 -38 79 -38 288 l0 206 29 32 c16 17 34 29 39 25 6 -3 50 7 99
23 48 17 94 30 100 31 8 0 0 -21 -18 -50z m1679 -85 c40 -34 92 -142 92 -194
0 -55 -31 -164 -69 -245 -31 -64 -74 -107 -98 -99 -7 3 -13 0 -13 -6 0 -6 -7
-11 -16 -11 -11 0 -6 10 18 35 41 44 44 54 43 145 -2 113 -20 181 -60 228 -19
22 -35 44 -35 50 0 5 16 17 34 27 30 16 38 17 59 6 38 -20 58 -75 63 -170 2
-53 8 -87 15 -90 9 -3 11 23 7 97 -4 84 -9 107 -31 145 -34 57 -76 77 -112 53
-15 -10 -29 -24 -32 -32 -11 -28 -22 -13 -11 16 23 67 94 89 146 45z m-864
-10 c-7 -30 6 -32 31 -5 23 25 35 25 35 0 0 -16 9 -20 59 -26 65 -7 63 -4 77
-98 l7 -49 -49 7 c-141 20 -281 25 -469 17 l-90 -4 -3 51 -3 52 37 0 c23 0 41
6 49 17 12 16 16 16 40 3 21 -11 28 -12 34 -1 7 11 14 10 35 -4 l26 -17 0 33
0 33 29 -28 28 -27 27 33 c24 30 26 31 26 11 0 -29 5 -29 42 2 16 14 32 25 34
25 2 0 2 -11 -2 -25z m-902 -127 c-6 -18 -14 -53 -18 -78 -4 -25 -9 -39 -11
-32 -3 7 3 47 13 90 9 42 19 71 21 65 3 -7 0 -27 -5 -45z m1017 -57 c88 -14
94 -21 82 -105 -5 -38 -11 -70 -13 -71 -2 -2 -45 7 -96 20 -52 13 -130 27
-175 30 -45 3 -97 8 -114 11 -18 3 -33 1 -33 -4 0 -4 62 -16 138 -25 75 -9
166 -25 202 -35 l65 -18 -2 -63 c-1 -40 -7 -67 -15 -72 -10 -7 -10 -11 0 -21
7 -7 12 -40 12 -86 l0 -75 -82 6 c-75 5 -133 2 -430 -20 -99 -7 -97 -9 -76 72
l12 44 82 26 c97 30 286 50 392 40 46 -4 72 -3 72 3 0 6 -30 14 -67 18 -94 10
-259 -9 -447 -52 -26 -6 -28 -5 -21 16 4 13 8 71 8 129 0 63 5 109 11 114 8 5
7 10 -3 16 -7 5 -15 29 -18 54 l-5 46 38 6 c22 4 44 8 49 10 20 7 372 -4 434
-14z m634 -19 c23 -23 29 -44 39 -113 10 -79 10 -87 -12 -134 l-22 -50 -13 50
c-7 28 -16 60 -20 73 -6 16 -3 22 8 22 9 0 19 -5 22 -10 4 -6 11 -8 16 -5 15
10 10 44 -9 73 -10 15 -27 41 -38 57 -11 17 -23 38 -27 48 -10 28 26 21 56
-11z m-1781 -304 c-8 -8 -9 -4 -5 13 4 13 8 18 11 10 2 -7 -1 -18 -6 -23z
m488 -193 c0 -25 -4 -45 -10 -45 -11 0 -14 49 -4 74 10 26 14 18 14 -29z
m1326 0 c4 -8 12 -15 19 -15 41 0 426 -472 404 -494 -2 -3 -22 -1 -44 4 -22 5
-58 10 -79 10 -26 0 -47 7 -62 21 -21 20 -124 42 -150 32 -15 -6 -36 -52 -28
-64 9 -15 -26 -116 -46 -134 -17 -16 -21 -15 -49 6 -17 13 -31 26 -31 31 0 4
-7 8 -15 8 -8 0 -15 3 -15 8 0 4 -16 16 -35 26 l-35 19 8 56 c10 79 9 155 -3
161 -6 3 -13 -29 -17 -82 -3 -48 -12 -104 -18 -124 -24 -72 -80 -152 -123
-176 -17 -8 -18 -6 -11 29 3 21 14 45 23 53 51 45 64 108 31 150 -23 30 -25
44 -6 59 10 8 16 9 21 1 15 -24 25 -8 19 30 -5 32 -3 45 12 61 18 20 18 20 30
-18 l12 -38 1 40 c1 30 -4 43 -19 53 -18 11 -23 8 -50 -35 -16 -27 -30 -54
-30 -60 0 -7 -5 -13 -11 -13 -15 0 -2 55 27 113 30 59 55 62 83 10 14 -28 31
-30 31 -4 0 11 14 31 31 45 24 20 30 33 29 58 -5 87 5 99 35 43 16 -27 22 -32
33 -22 11 9 13 30 10 89 -4 71 4 100 18 63z m-669 -31 c-9 -9 -28 6 -21 18 4
6 10 6 17 -1 6 -6 8 -13 4 -17z m-83 -9 c-8 -34 4 -32 17 3 10 26 11 26 25 8
17 -24 18 -40 4 -67 -6 -11 -8 -24 -4 -31 4 -6 19 16 35 51 20 44 33 61 47 61
20 0 32 -18 32 -49 0 -20 -137 -147 -174 -161 -14 -5 -26 -14 -26 -20 0 -20
43 -10 74 18 30 26 35 27 111 22 66 -4 80 -8 83 -22 3 -13 -3 -18 -21 -18 -13
0 -27 -3 -31 -7 -4 -5 -33 -7 -64 -5 -39 1 -63 -2 -76 -13 -29 -22 -11 -30 28
-11 19 9 46 16 60 16 23 0 25 -2 16 -26 -7 -17 -7 -32 0 -45 23 -43 58 -8 44
45 -5 19 -2 26 9 26 29 0 47 -12 47 -32 0 -10 5 -16 10 -13 6 3 10 15 10 26 0
23 18 24 49 3 21 -15 22 -22 20 -97 -4 -84 8 -109 29 -62 6 14 19 25 28 25 9
0 23 8 31 18 13 15 14 12 8 -28 -3 -25 -11 -69 -18 -97 -9 -44 -15 -53 -33
-53 -17 0 -24 -11 -39 -65 -11 -41 -22 -65 -31 -65 -17 0 -37 -47 -31 -72 3
-10 -3 -40 -14 -68 -11 -28 -16 -61 -13 -77 4 -23 -2 -36 -33 -68 -65 -69
-124 -103 -220 -126 -241 -58 -490 38 -580 223 -42 86 -128 367 -138 448 l-5
45 19 -40 c22 -45 37 -48 34 -7 -3 26 -3 26 14 -5 9 -18 20 -33 23 -33 4 0 10
69 13 153 6 169 21 257 43 257 20 0 18 -17 -3 -25 -17 -6 -17 -7 1 -20 11 -8
23 -39 31 -77 14 -65 12 -78 -9 -78 -15 0 -56 -37 -56 -50 0 -5 16 2 36 15 47
32 51 31 59 -5 4 -16 11 -30 16 -30 5 0 9 14 9 30 0 25 4 30 24 30 23 0 23 -2
13 -29 -14 -38 -3 -63 25 -59 20 3 23 9 22 44 -1 40 1 42 35 48 23 3 43 0 59
-10 25 -16 63 -16 62 1 0 6 -11 13 -24 16 -28 8 -90 54 -158 119 -47 44 -48
46 -38 83 l11 37 57 1 c31 0 80 4 107 9 28 4 110 8 183 9 l132 1 -6 -25z m266
-11 c0 -8 -4 -12 -10 -9 -5 3 -10 13 -10 21 0 8 5 12 10 9 6 -3 10 -13 10 -21z
m-1220 3 c0 -49 24 -192 40 -238 13 -36 20 -82 20 -131 l0 -75 -42 -7 c-24 -4
-57 -12 -75 -18 -27 -10 -35 -9 -52 6 -10 10 -28 19 -38 20 -10 2 -26 20 -36
40 l-18 38 -69 -7 c-61 -6 -72 -4 -97 15 -29 21 -49 28 -85 29 -45 2 -9 46 98
122 34 24 107 77 162 117 56 39 103 72 107 72 3 0 2 -12 -1 -26 -6 -25 -5 -25
16 -14 12 6 29 25 38 41 18 30 32 38 32 16z m1256 -132 c8 -38 12 -70 10 -73
-3 -2 -17 -1 -32 2 -21 6 -25 11 -20 28 3 12 1 42 -5 67 -5 24 -7 51 -4 59 11
29 36 -12 51 -83z m-113 43 l16 -38 -62 0 -62 0 45 39 c25 21 46 38 46 37 1 0
9 -18 17 -38z m-613 -63 c0 -2 -18 -5 -40 -7 -39 -3 -40 -3 -40 29 l0 33 40
-26 c22 -15 40 -28 40 -29z m46 -50 c17 -13 12 -14 -53 -15 -66 0 -92 8 -76
24 13 12 109 6 129 -9z m-406 -86 c12 -22 20 -48 18 -57 -3 -12 -11 -3 -26 26
-25 46 -48 54 -62 20 -9 -23 -9 -23 -9 3 -2 60 50 66 79 8z m-10 -69 c10 -25
9 -33 -9 -59 -25 -34 -26 -41 -7 -41 8 0 22 10 30 22 27 38 32 9 7 -38 -21
-40 -23 -49 -12 -83 7 -24 26 -51 49 -70 67 -56 72 -61 72 -81 0 -18 -3 -18
-27 -8 -37 16 -90 64 -118 109 -31 49 -62 152 -46 157 6 2 11 21 11 42 0 20 3
52 6 69 8 36 24 29 44 -19z m-364 -52 c7 -23 -18 -50 -73 -79 -21 -11 -26 -9
-53 16 -48 46 -41 61 38 75 74 12 80 11 88 -12z m2036 -44 c5 -40 -7 -53 -29
-32 -9 10 -12 24 -7 41 9 39 31 33 36 -9z m96 18 c10 -10 30 -34 45 -54 l28
-36 -21 -34 c-11 -18 -20 -42 -20 -53 0 -13 8 -4 21 23 12 24 27 41 33 39 6
-2 23 -26 38 -53 22 -39 26 -58 22 -94 -10 -85 -26 -135 -66 -208 -39 -71 -41
-73 -60 -55 -16 14 -19 28 -16 86 l3 69 -35 12 c-31 10 -35 15 -32 41 4 38 4
38 45 27 l35 -10 4 42 c4 31 -2 55 -24 99 -30 60 -29 66 5 105 17 18 18 22 5
22 -9 0 -25 -12 -36 -27 -27 -37 -52 -25 -52 25 0 21 3 42 7 45 13 13 53 7 71
-11z m-508 -75 c-11 -27 -35 -57 -44 -57 -4 0 2 12 13 26 12 15 21 42 22 63 0
32 1 33 9 13 6 -13 6 -31 0 -45z m-1765 27 c23 -23 25 -28 11 -43 -8 -9 -20
-30 -26 -46 l-12 -30 -19 24 c-22 27 -24 59 -7 96 14 31 21 31 53 -1z m223 0
c6 -11 -7 -31 -56 -81 l-65 -66 -19 22 c-10 13 -18 31 -18 40 0 16 52 58 107
86 35 19 40 19 51 -1z m1507 -14 c-4 -12 -9 -19 -12 -17 -3 3 -2 15 2 27 4 12
9 19 12 17 3 -3 2 -15 -2 -27z m-1146 -101 c23 -22 26 -29 11 -29 -18 0 -60
74 -59 105 0 27 2 26 14 -14 7 -24 23 -52 34 -62z m-518 74 c-14 -28 -61 -68
-61 -54 0 12 56 71 66 71 3 0 0 -8 -5 -17z m169 -46 c0 -36 -41 -127 -67 -148
-13 -11 -18 -10 -34 10 -11 13 -19 32 -19 43 0 19 95 128 111 128 5 0 9 -15 9
-33z m2010 -19 c0 -7 -23 4 -59 28 -1 2 0 8 4 14 5 8 15 4 31 -11 13 -12 24
-26 24 -31z m-2311 13 c7 -15 23 -33 37 -39 13 -7 24 -18 24 -26 0 -32 74
-161 131 -226 32 -38 59 -71 59 -74 0 -3 -10 -12 -23 -20 -18 -12 -30 -13 -67
-4 -119 30 -210 139 -210 251 0 61 19 167 30 167 4 0 13 -13 19 -29z m1771
-30 c0 -24 -20 -90 -28 -95 -4 -2 -17 3 -30 12 -21 16 -21 19 -8 69 20 74 26
81 48 54 10 -13 18 -31 18 -40z m-1631 -72 c-11 -16 -24 -29 -29 -29 -4 0 -15
19 -24 41 -16 39 -16 43 1 61 17 19 18 19 45 -13 l28 -31 -21 -29z m2037 54
c-11 -11 -19 6 -11 24 8 17 8 17 12 0 3 -10 2 -21 -1 -24z m87 24 c15 -10 16
-17 6 -45 -13 -37 -12 -37 -47 -15 -15 9 -28 18 -30 19 -2 1 0 13 4 28 7 29
38 35 67 13z m65 -36 c23 -20 28 -46 13 -70 -6 -9 -11 -10 -15 -2 -4 6 -16 11
-27 11 -20 0 -24 17 -13 58 8 27 12 27 42 3z m-132 -69 c-4 -27 -4 -31 2 -12
7 20 14 25 36 23 37 -3 36 -2 29 -47 -6 -35 -7 -37 -37 -31 -66 14 -100 61
-76 105 9 17 15 18 31 10 16 -9 19 -18 15 -48z m-2006 -14 c23 -31 23 -32 5
-64 -15 -28 -21 -32 -33 -21 -8 6 -21 25 -27 41 -11 25 -10 34 2 53 20 30 25
29 53 -9z m1510 12 c20 -14 27 -26 23 -40 -7 -25 -14 -25 -47 1 -26 20 -36 59
-15 59 6 0 24 -9 39 -20z m-1423 -22 c-7 -25 -64 -98 -77 -98 -4 0 11 29 33
63 44 66 54 74 44 35z m2244 -20 c7 -24 17 -48 21 -55 16 -21 11 -67 -12 -113
-20 -41 -106 -140 -121 -140 -3 0 -10 10 -16 23 -12 25 -5 44 47 127 32 51 61
150 53 180 -11 40 17 19 28 -22z m-2177 -36 c0 -45 -40 -110 -72 -118 -23 -7
-62 19 -62 40 0 6 26 39 57 73 62 68 78 69 77 5z m1576 28 c0 -5 -4 -10 -9
-10 -6 0 -13 5 -16 10 -3 6 1 10 9 10 9 0 16 -4 16 -10z m16 -97 c18 -28 55
-89 82 -135 l48 -84 -54 -60 c-69 -76 -104 -135 -117 -201 l-10 -52 -24 18
-23 18 21 44 c11 24 28 54 36 66 11 14 13 23 6 28 -13 7 -67 -75 -76 -116 -11
-48 -23 -42 -36 18 -36 174 -43 407 -13 465 17 34 27 35 46 6 21 -32 38 -14
38 40 l0 47 21 -25 c11 -14 36 -48 55 -77z m-245 71 c11 -13 10 -22 -6 -52
-38 -70 -83 -44 -50 29 19 42 35 48 56 23z m-1038 -42 c16 -41 16 -42 0 -33
-44 25 -45 26 -32 54 7 15 13 26 14 25 1 -2 9 -22 18 -46z m1672 -4 c3 -3 -26
-6 -65 -6 -67 -2 -70 -1 -70 21 l0 23 65 -16 c35 -9 67 -19 70 -22z m-1555
-86 c3 -43 2 -43 -35 -7 l-35 35 17 35 17 36 17 -36 c10 -20 18 -48 19 -63z
m1396 62 c-3 -9 -6 -18 -6 -21 0 -3 -7 0 -15 7 -13 11 -13 15 -3 21 21 13 31
10 24 -7z m-2076 -106 c14 -8 46 -18 72 -22 26 -4 50 -11 53 -15 7 -12 -41
-61 -60 -61 -9 0 -36 5 -60 11 -57 14 -150 109 -141 143 3 11 6 30 6 41 0 15
11 9 53 -31 28 -28 63 -57 77 -66z m631 13 c63 -61 64 -64 59 -186 -3 -84 -5
-84 -89 -3 -42 41 -93 87 -114 102 -42 31 -42 30 -1 122 l24 55 31 -17 c18 -9
58 -42 90 -73z m1521 47 c5 -47 -6 -61 -37 -52 -49 15 -60 52 -23 78 39 28 55
21 60 -26z m82 -3 c-1 -37 -3 -40 -30 -40 -27 0 -29 3 -32 43 l-3 43 33 -3
c32 -3 33 -5 32 -43z m262 -85 c9 -40 13 -78 11 -85 -8 -21 -73 -45 -120 -45
-67 0 -69 22 -9 84 27 28 59 68 72 89 12 21 24 36 27 33 2 -2 11 -37 19 -76z
m-2251 -60 c9 -41 18 -85 21 -96 5 -20 -4 -25 -91 -54 -80 -27 -99 -30 -106
-19 -13 21 -12 26 31 115 22 46 40 87 40 90 0 4 17 27 37 52 l37 45 8 -29 c4
-16 15 -63 23 -104z m-278 -4 c18 -9 49 -17 70 -19 21 -2 39 -8 41 -13 2 -5
-7 -31 -20 -58 l-22 -48 -46 5 c-38 4 -51 12 -87 54 -40 45 -43 52 -43 108 l0
59 38 -36 c20 -20 51 -43 69 -52z m2301 41 c8 -21 9 -60 2 -136 -16 -174 -18
-183 -43 -175 -12 4 -37 10 -55 15 -19 4 -36 10 -39 13 -3 3 -7 75 -9 161 l-4
155 68 -1 c66 -1 69 -2 80 -32z m-1755 -67 c31 -24 57 -47 57 -51 0 -4 -21 -2
-47 6 -27 8 -67 15 -90 15 -24 0 -43 2 -43 5 0 15 47 74 56 71 6 -2 36 -23 67
-46z m877 -13 c0 -7 -12 -25 -27 -39 -52 -48 -113 -73 -191 -77 -77 -4 -111 6
-118 34 -3 13 -12 29 -20 36 -27 23 -13 28 85 28 54 0 106 4 115 7 20 8 21 -3
0 -23 -11 -12 -12 -19 -4 -27 8 -8 14 -7 23 4 16 20 64 51 96 60 37 12 41 11
41 -3z m940 -46 c0 -14 -4 -42 -9 -61 -5 -19 -14 -61 -21 -93 -8 -33 -18 -56
-24 -54 -6 3 -10 9 -9 14 4 20 33 234 33 246 1 24 30 -27 30 -52z m-296 -26
l18 -32 -36 -48 c-49 -63 -46 -81 4 -25 l39 45 21 -25 c31 -39 26 -60 -14 -60
-50 0 -57 -15 -44 -92 11 -70 5 -130 -15 -146 -6 -5 -22 -13 -34 -16 -18 -6
-22 -4 -17 7 3 8 -2 17 -11 21 -11 4 -14 2 -9 -7 3 -6 -5 2 -20 18 -14 17 -25
33 -26 37 0 4 -8 9 -18 12 -10 3 -26 20 -36 36 -15 26 -16 39 -8 94 13 79 22
96 97 185 67 78 65 78 109 -4z m490 39 c4 -10 9 -49 13 -89 l6 -72 -49 -22
c-41 -20 -59 -22 -108 -17 -33 3 -61 8 -64 10 -8 8 21 157 32 163 6 4 24 6 41
5 16 -1 48 7 70 17 50 24 52 24 59 5z m-2647 -7 c21 -33 86 -77 113 -77 34 0
37 -6 13 -32 -22 -25 -73 -23 -114 5 -30 20 -34 29 -37 70 -3 46 8 61 25 34z
m667 -14 c27 -10 69 -36 93 -58 l44 -40 -17 -82 c-9 -46 -20 -83 -24 -83 -4 0
-12 25 -19 55 -12 55 -43 106 -56 93 -4 -4 2 -20 14 -36 17 -25 19 -35 10 -65
-5 -21 -13 -37 -17 -37 -4 0 -18 28 -31 62 -29 74 -122 178 -160 178 -20 0
-21 2 -11 15 17 21 112 20 174 -2z m465 -4 c13 -11 22 -22 19 -25 -7 -6 -68
28 -68 39 0 13 25 7 49 -14z m-292 -51 c-3 -7 -5 -2 -5 12 0 14 2 19 5 13 2
-7 2 -19 0 -25z m-258 -37 c22 -26 50 -70 61 -96 l20 -47 -36 -45 c-20 -24
-37 -43 -39 -41 -18 21 -85 155 -85 169 0 32 22 109 30 109 5 0 26 -22 49 -49z
m-417 -3 c-7 -7 -12 -8 -12 -2 0 14 12 26 19 19 2 -3 -1 -11 -7 -17z m-82 -32
c36 -1 45 -5 48 -21 2 -11 15 -46 29 -78 25 -55 25 -58 8 -77 -21 -23 -13 -39
9 -21 8 7 20 10 26 6 13 -8 13 -72 0 -80 -5 -3 -10 -19 -10 -35 0 -45 -57 -90
-115 -90 -20 0 -26 8 -38 53 -8 28 -17 73 -21 100 -6 46 -5 47 19 41 35 -9 31
9 -4 23 -25 9 -30 17 -35 64 -4 30 -9 71 -13 93 -5 39 -5 39 23 31 16 -4 49
-8 74 -9z m2590 -146 c1 -52 -3 -107 -8 -121 -10 -25 -14 -26 -59 -22 -26 3
-70 12 -96 20 -48 15 -65 13 -53 -5 11 -18 117 -44 157 -39 21 3 39 1 39 -4 0
-25 -55 -179 -65 -179 -5 0 -15 8 -22 19 -12 20 -138 111 -153 111 -37 0 -5
74 60 137 27 26 50 56 50 65 0 10 -20 28 -50 44 -73 40 -66 52 28 46 63 -3 85
-1 117 15 22 11 43 17 47 14 4 -3 8 -49 8 -101z m-2109 -43 c11 -26 9 -31 -19
-60 l-31 -31 -18 40 c-18 40 -23 124 -9 159 6 17 11 13 36 -30 16 -28 35 -63
41 -78z m129 -38 c5 -40 10 -146 10 -235 l0 -161 -62 -54 c-35 -29 -65 -57
-68 -60 -3 -4 -3 47 -2 114 3 96 -1 143 -18 225 l-22 103 49 52 c27 29 58 65
68 80 10 15 22 24 27 19 4 -4 12 -42 18 -83z m-539 -182 c-6 -8 -18 -38 -27
-66 -13 -45 -36 -73 -49 -59 -2 2 -7 30 -11 61 l-7 57 30 0 c16 0 38 6 49 14
22 17 32 12 15 -7z m2363 -49 c68 -46 74 -58 52 -107 l-19 -40 -53 46 c-51 44
-84 100 -84 143 0 19 2 20 28 6 15 -8 49 -30 76 -48z m-1220 -485 c19 -39 76
-190 76 -200 0 -8 -209 3 -217 11 -10 9 101 226 116 226 4 0 15 -17 25 -37z
m293 -209 c-2 -3 -16 -2 -31 2 -25 6 -26 9 -26 78 l1 71 30 -73 c17 -40 29
-75 26 -78z m-584 58 c-6 -60 -7 -62 -34 -62 l-29 0 32 65 c18 35 33 63 34 62
2 -1 0 -30 -3 -65z m378 -80 c8 -9 39 -102 39 -117 0 -7 -23 -15 -52 -19 -87
-11 -255 -19 -271 -13 -13 5 -12 16 7 79 l22 73 55 6 c67 6 191 1 200 -9z
m-390 -82 c-1 -41 -3 -76 -5 -77 -2 -2 -116 -11 -116 -9 0 6 44 124 51 138 8
15 41 27 63 24 5 -1 8 -36 7 -76z m625 30 c7 -24 12 -46 10 -48 -2 -1 -23 -4
-47 -5 l-44 -2 -3 53 -3 53 37 -3 c34 -3 38 -6 50 -48z m31 -112 c7 -20 15
-60 19 -88 l7 -50 -32 0 c-17 0 -31 -4 -31 -10 0 -5 15 -10 34 -10 30 0 34 -4
40 -31 3 -17 6 -37 6 -44 0 -14 -97 -32 -149 -27 l-33 3 7 67 c4 37 10 101 14
142 5 68 8 75 31 81 52 15 74 6 87 -33z m-854 -5 c-3 -18 -9 -33 -14 -33 -5 0
-6 12 -3 28 13 53 25 57 17 5z m652 -35 c28 -96 30 -94 -87 -102 -146 -9 -313
-10 -312 -2 15 82 29 126 43 131 9 4 57 9 106 12 50 3 92 7 94 9 2 2 35 4 72
4 l68 0 16 -52z m369 -20 c7 -55 6 -58 -14 -58 -18 0 -21 4 -17 23 3 12 9 39
13 60 3 21 8 37 9 35 1 -2 6 -29 9 -60z m-824 -28 l0 -70 -42 -1 c-24 -1 -60
-3 -81 -4 -21 -1 -39 1 -41 4 -2 3 4 31 13 61 15 50 20 56 56 66 22 7 52 13
68 13 27 1 27 1 27 -69z m-209 -26 c-4 -46 -7 -54 -27 -54 -17 0 -17 12 -3 63
13 50 35 44 30 -9z m1049 -85 l0 -50 -37 4 c-34 4 -38 7 -35 31 6 55 19 74 46
69 24 -5 26 -10 26 -54z m-348 -9 c4 -24 4 -47 0 -51 -4 -4 -101 -9 -215 -13
-115 -3 -213 -8 -218 -12 -16 -9 -22 25 -13 69 l9 41 100 4 c55 2 102 6 104 8
3 3 55 3 115 2 l110 -3 8 -45z m-481 -15 c4 -22 4 -44 0 -48 -10 -10 -188 -20
-194 -10 -2 5 -2 27 1 50 4 38 7 42 35 46 18 2 59 4 92 3 l60 -1 6 -40z m-223
-27 c-3 -35 -2 -72 3 -83 8 -19 8 -19 15 3 5 17 14 22 40 22 19 0 34 -4 34 -8
0 -4 13 -23 28 -42 l29 -34 46 26 46 26 16 -25 c16 -24 17 -24 36 -7 10 9 19
27 19 39 0 13 8 26 18 30 22 10 352 20 352 11 0 -4 -7 -18 -16 -31 -9 -13 -14
-30 -12 -37 3 -7 12 1 22 20 9 17 19 32 21 32 3 0 -4 -18 -15 -41 -12 -23 -18
-44 -14 -47 4 -4 9 -1 11 5 3 7 14 23 24 35 l20 23 -4 -27 c-6 -39 15 -36 32
5 l14 32 4 -27 c6 -37 19 -35 27 3 5 28 8 30 23 18 15 -13 16 -11 9 15 -6 24
-4 28 10 22 10 -4 20 -3 23 2 3 5 16 12 27 16 19 6 22 2 27 -26 6 -38 -6 -51
-166 -173 -96 -73 -128 -87 -143 -64 -4 8 -9 7 -15 -2 -6 -10 -11 -5 -20 16
-12 29 -13 29 -17 7 -6 -37 23 -62 65 -55 23 4 38 2 43 -7 6 -10 20 -1 54 33
44 46 47 47 106 47 61 0 91 -10 119 -38 12 -12 16 -12 19 -2 11 33 -106 82
-153 64 -36 -14 0 24 70 74 56 41 75 60 75 77 0 46 10 55 57 55 l45 0 -4 -147
c-4 -128 -7 -148 -21 -145 -8 1 -19 -3 -23 -10 -13 -21 -14 -170 -2 -208 15
-46 13 -72 -24 -225 -27 -113 -35 -134 -62 -158 -87 -80 -244 -140 -366 -140
-36 -1 -112 6 -168 15 -87 14 -114 23 -164 54 -65 40 -117 90 -118 113 0 8 16
-4 36 -27 20 -24 52 -50 73 -58 47 -20 213 -52 275 -53 80 -1 60 6 -84 29
-183 28 -225 47 -274 125 -25 40 -28 52 -22 93 7 54 34 96 63 100 11 2 48 -6
81 -17 95 -32 238 -54 306 -46 85 9 213 61 301 121 25 18 59 18 73 1 6 -7 14
-32 18 -56 4 -28 10 -38 15 -29 15 24 -17 111 -46 121 -8 4 -60 -17 -118 -48
-200 -106 -296 -118 -487 -61 -117 35 -130 38 -155 32 -35 -9 -63 -58 -71
-124 -6 -52 -7 -54 -19 -31 -16 30 -64 196 -103 354 -23 96 -30 145 -32 247
-2 126 -1 128 22 137 17 7 18 10 6 10 -38 2 -15 111 23 111 20 0 21 -4 17 -62z
m749 -65 c-16 -16 -17 -16 -17 3 0 26 11 37 24 24 7 -7 5 -16 -7 -27z m49 10
c-10 -10 -19 5 -10 18 6 11 8 11 12 0 2 -7 1 -15 -2 -18z m-566 -6 c0 -13 -60
-47 -84 -47 -11 0 -36 39 -36 55 0 3 27 5 60 5 43 0 60 -4 60 -13z m56 -2 c4
-8 3 -23 -1 -32 -6 -16 -8 -15 -20 7 -8 14 -14 28 -15 33 0 14 31 7 36 -8z
m1514 -177 c16 -29 20 -57 20 -128 0 -49 -3 -90 -7 -90 -3 0 -15 8 -25 17 -15
14 -21 15 -27 4 -7 -10 -12 -10 -30 1 -17 10 -20 18 -14 38 4 14 7 43 7 65 l1
40 -40 0 c-33 0 -41 4 -43 22 -5 34 36 42 59 12 14 -18 19 -20 19 -8 0 9 -9
24 -20 34 -11 10 -20 25 -21 34 0 11 -4 9 -11 -6 -9 -18 -20 -23 -48 -23 -24
0 -40 5 -44 15 -3 8 -10 15 -16 15 -7 0 -5 -8 4 -21 13 -20 12 -25 -11 -63
-62 -100 -95 -84 -52 25 28 70 48 86 114 94 30 4 55 11 55 15 0 5 10 10 23 13
25 4 75 -44 107 -105z m-715 -40 c-35 -284 -87 -569 -102 -554 -2 2 7 55 21
118 14 62 34 192 44 290 11 97 23 181 26 187 14 22 18 10 11 -41z m96 25 c6
-16 9 -73 7 -133 -4 -113 -20 -161 -75 -231 -15 -20 -35 -46 -43 -58 -8 -11
-18 -21 -23 -21 -15 0 3 52 28 82 37 43 60 128 47 167 -9 25 -8 31 3 31 10 0
12 12 8 54 -4 34 -2 56 6 60 7 5 11 -5 12 -31 0 -21 4 -47 8 -57 14 -35 23 1
15 60 -8 65 -27 80 -55 43 -14 -18 -19 -20 -19 -8 0 22 38 69 56 69 8 0 19
-12 25 -27z m-1321 5 c0 -7 3 -24 7 -37 5 -21 4 -22 -14 -12 -16 8 -24 7 -33
-4 -16 -20 -27 -145 -12 -145 6 0 13 4 16 9 3 4 17 6 31 3 19 -3 23 -8 16 -15
-34 -34 6 -133 79 -201 40 -36 50 -56 30 -56 -22 0 -74 47 -121 111 -60 81
-84 168 -75 269 6 67 21 90 58 90 10 0 18 -6 18 -12z m76 -161 c18 -72 40
-158 49 -191 9 -32 14 -60 12 -63 -5 -4 -37 97 -56 172 -5 22 -18 72 -29 110
-32 112 -36 132 -21 117 7 -7 28 -72 45 -145z m1698 126 c7 -18 -16 -43 -40
-43 -6 0 -14 -10 -18 -23 -6 -25 -41 -67 -56 -67 -19 0 -10 41 15 67 13 15 29
40 36 55 13 32 53 39 63 11z m250 -73 l38 -61 -28 -56 -28 -55 -23 27 c-18 20
-21 32 -16 53 5 15 8 57 7 94 -1 37 2 65 6 63 4 -2 24 -32 44 -65z m-2021 8
c18 -36 14 -54 -14 -61 -26 -7 -32 6 -24 53 8 48 18 50 38 8z m1175 -24 c2
-28 2 -28 -13 -10 -18 24 -20 49 -2 44 6 -3 13 -18 15 -34z m72 -25 c0 -6 -4
-7 -10 -4 -5 3 -10 11 -10 16 0 6 5 7 10 4 6 -3 10 -11 10 -16z m-80 -69 c0
-22 -4 -40 -9 -40 -12 0 -22 45 -15 64 11 29 24 16 24 -24z m73 3 c3 -15 1
-36 -3 -47 -7 -16 -9 -17 -9 -5 -1 9 -4 31 -7 48 -4 18 -2 31 4 31 5 0 12 -12
15 -27z m637 4 c0 -18 -31 -46 -46 -40 -17 6 -18 35 -3 50 13 13 49 5 49 -10z
m206 -9 c4 -13 7 -30 6 -38 -5 -28 -34 -100 -40 -100 -4 0 -15 17 -25 36 -16
32 -16 38 -3 53 8 9 19 28 25 44 13 33 27 35 37 5z m-2040 -27 c-5 -33 -2 -44
20 -70 14 -17 24 -36 22 -43 -6 -16 -68 81 -68 107 0 19 17 45 28 45 3 0 2
-18 -2 -39z m1796 -37 c-2 -10 -6 -21 -8 -24 -9 -8 -22 23 -17 37 8 20 29 9
25 -13z m277 -75 c1 -21 -5 -42 -14 -49 -8 -7 -15 -18 -15 -24 0 -6 7 -2 15 8
13 18 15 18 21 2 4 -10 3 -56 0 -104 -6 -69 -12 -92 -29 -111 -12 -13 -16 -21
-9 -17 15 9 16 -21 2 -58 -6 -18 -19 -27 -45 -32 -20 -3 -39 -4 -42 -1 -10 11
18 66 43 81 42 29 58 150 29 231 -18 50 -19 70 -1 84 7 6 17 26 21 44 7 32 7
32 15 7 4 -14 8 -41 9 -61z m-896 46 c-3 -9 -8 -14 -10 -11 -3 3 -2 9 2 15 9
16 15 13 8 -4z m71 -71 c3 -8 2 -12 -4 -9 -6 3 -10 10 -10 16 0 14 7 11 14 -7z
m-1134 -75 c0 -6 -4 -7 -10 -4 -5 3 -10 11 -10 16 0 6 5 7 10 4 6 -3 10 -11
10 -16z m1137 -56 c41 -32 83 -65 94 -73 19 -15 19 -17 -18 -90 -31 -63 -38
-88 -41 -152 -4 -76 -5 -78 -29 -78 -25 0 -25 2 -20 48 4 26 9 61 13 77 11 49
-12 17 -29 -40 l-14 -50 -35 70 c-20 39 -47 97 -61 130 l-25 61 20 59 c20 60
42 95 61 95 5 0 43 -26 84 -57z m-1119 -42 l35 -63 -44 -109 c-24 -60 -47
-109 -50 -109 -4 0 -18 18 -33 40 -14 22 -31 40 -36 40 -15 0 -13 -6 25 -59
19 -26 35 -53 35 -60 0 -19 -18 -12 -25 9 -10 32 -106 123 -152 145 -24 11
-43 23 -43 27 0 14 53 69 103 105 29 20 70 52 91 70 22 18 44 32 50 30 5 -2
25 -32 44 -66z m1830 25 c7 -60 -130 -137 -215 -121 -28 5 -34 10 -31 28 5 33
94 95 148 102 25 3 52 10 60 15 23 13 35 6 38 -24z m-2503 -37 c64 -16 125
-51 125 -71 0 -7 -81 -48 -95 -48 -4 0 -3 9 0 20 11 33 -4 60 -32 60 -33 0
-100 -48 -115 -82 -17 -36 -24 -35 -37 5 -21 66 -24 109 -10 118 19 12 115 11
164 -2z m2010 -59 c-3 -5 -1 -10 4 -10 6 0 11 -5 11 -10 0 -6 -8 -5 -20 2 -14
9 -16 14 -7 20 16 10 19 10 12 -2z m485 -1 c0 -35 -44 -192 -60 -211 -17 -22
-20 -22 -90 -10 -90 15 -111 36 -103 102 8 70 9 72 43 65 43 -9 131 12 165 40
33 27 45 31 45 14z m-2485 -24 c0 -28 -29 -25 -33 3 -3 19 0 23 15 20 10 -2
18 -12 18 -23z m1976 -11 c27 -20 49 -38 49 -40 0 -2 -12 -22 -26 -43 -32 -50
-54 -121 -54 -181 0 -26 -3 -49 -6 -53 -3 -3 -28 10 -54 30 -59 44 -69 85 -45
178 17 65 59 145 77 145 5 0 32 -16 59 -36z m-2011 -27 c0 -5 -11 -22 -25 -38
l-24 -29 -15 27 c-14 26 -13 30 12 56 25 26 28 27 39 11 7 -10 13 -22 13 -27z
m790 -60 c22 -142 92 -422 137 -551 19 -54 32 -100 29 -103 -7 -7 -72 14 -142
47 -72 33 -69 27 -85 225 -10 130 -8 195 12 378 13 117 31 118 49 4z m-600 79
c0 -2 3 -12 7 -22 4 -12 3 -15 -5 -10 -18 11 -110 -35 -172 -87 -30 -25 -56
-45 -57 -44 -1 1 2 18 6 37 6 32 15 39 96 82 79 41 125 57 125 44z m702 -132
c10 -60 33 -117 48 -122 9 -3 11 1 6 14 -23 56 -43 134 -35 134 5 0 18 -33 29
-72 12 -40 37 -111 55 -157 27 -65 32 -88 24 -108 -19 -52 -1 -62 20 -10 13
29 14 30 18 10 6 -29 -15 -66 -33 -59 -18 7 -18 -5 0 -29 13 -18 14 -18 27 3
15 24 29 29 29 11 0 -6 34 -62 75 -125 41 -63 75 -116 75 -119 0 -10 -147 -4
-194 8 l-50 13 -33 85 c-45 114 -118 414 -138 562 l-6 48 38 -24 c30 -19 39
-32 45 -63z m-953 31 c13 -8 15 -62 2 -69 -24 -15 -41 7 -41 53 0 53 10 73 21
42 4 -10 12 -22 18 -26z m268 29 c6 -17 -30 -53 -54 -54 -17 0 -26 39 -13 55
17 20 59 19 67 -1z m264 -12 c49 -31 100 -86 124 -132 14 -27 14 -33 -5 -72
-26 -55 -51 -86 -57 -72 -24 66 -101 141 -160 159 -35 10 -27 -11 10 -25 17
-7 43 -23 56 -34 35 -32 81 -102 81 -125 0 -18 -66 -131 -76 -131 -2 0 -13 19
-25 43 -28 56 -76 105 -110 112 -43 10 -49 60 -14 114 15 22 32 41 36 41 5 0
9 6 9 13 0 6 12 40 26 75 31 71 40 75 105 34z m1619 -14 c17 -67 18 -68 45
-68 14 0 25 -2 25 -4 0 -2 -16 -33 -35 -70 -25 -48 -35 -81 -35 -112 0 -54
-13 -56 -63 -10 -41 38 -44 54 -26 152 11 58 54 154 70 154 5 0 13 -19 19 -42z
m504 -26 c-14 -108 -17 -112 -67 -112 -47 0 -51 12 -33 81 l18 64 43 2 43 1
-4 -36z m-2471 4 c15 -23 15 -25 -15 -50 -18 -14 -35 -26 -39 -26 -3 0 -12 14
-20 31 -12 29 -11 33 10 50 31 25 46 24 64 -5z m107 -6 c0 -11 -13 -34 -29
-52 l-28 -32 -13 24 c-11 21 -10 26 11 42 13 10 29 22 34 27 16 16 25 12 25
-9z m880 -41 c0 -25 -12 -24 -38 4 l-22 24 30 -5 c21 -3 30 -10 30 -23z m49
-16 c0 -31 -2 -34 -9 -18 -12 28 -12 55 0 55 6 0 10 -17 9 -37z m41 12 c0 -14
-4 -25 -10 -25 -5 0 -10 11 -10 25 0 14 5 25 10 25 6 0 10 -11 10 -25z m92 2
c-44 -47 -21 -50 43 -5 24 17 47 29 50 26 9 -9 -34 -57 -80 -88 -41 -28 -45
-29 -54 -12 -5 9 -12 34 -16 54 -7 34 -5 37 22 41 56 8 57 8 35 -16z m-1250
-18 c18 -30 17 -31 -8 -65 -30 -38 -43 -35 -70 18 -14 27 -13 30 12 53 35 32
45 31 66 -6z m2185 15 c5 -14 -20 -148 -48 -247 -12 -43 -28 -49 -30 -9 -1 16
-3 20 -6 10 -2 -10 -11 -18 -19 -18 -15 0 -17 10 -14 80 1 31 14 69 43 123 40
75 61 93 74 61z m68 -21 c23 -13 112 -28 137 -24 16 2 16 -1 2 -50 -33 -110
-42 -116 -121 -84 -60 25 -74 51 -66 130 5 53 9 65 17 53 6 -8 20 -20 31 -25z
m-1994 4 c-10 -9 -11 -8 -5 6 3 10 9 15 12 12 3 -3 0 -11 -7 -18z m759 -6 c20
-20 27 -35 23 -49 -5 -22 -16 -20 -54 10 -15 12 -39 50 -39 62 0 17 45 2 70
-23z m-912 -6 c10 -21 9 -30 -4 -50 -21 -32 -30 -31 -48 3 -14 27 -13 30 7 50
27 28 31 28 45 -3z m94 -12 c8 -65 -10 -85 -32 -34 -9 23 -9 33 2 50 18 30 25
26 30 -16z m-296 -23 c12 -24 33 -53 47 -65 13 -11 46 -46 72 -78 43 -54 46
-62 40 -98 -5 -30 -11 -39 -26 -39 -56 0 -133 61 -171 135 -21 40 -36 150 -24
180 10 28 40 12 62 -35z m1155 -79 c-18 -56 -36 -101 -41 -101 -14 0 -13 2 16
88 40 115 44 125 50 119 3 -3 -8 -51 -25 -106z m134 38 c15 -69 14 -93 -4 -73
-7 8 -31 112 -31 136 0 4 4 8 9 8 5 0 17 -32 26 -71z m-1145 1 c10 -25 10 -36
0 -56 -17 -30 -20 -30 -44 2 -18 25 -18 28 -2 61 18 38 28 37 46 -7z m106 14
c4 -14 1 -37 -6 -52 l-12 -26 -18 24 c-17 23 -17 26 -2 52 20 35 30 35 38 2z
m992 5 c2 -10 -6 -19 -18 -22 -23 -6 -34 7 -26 29 8 20 40 14 44 -7z m1347 3
l36 4 -6 -40 c-4 -23 -11 -57 -16 -77 l-9 -37 -43 10 c-66 14 -73 26 -52 89
23 70 24 72 41 58 7 -6 30 -9 49 -7z m-682 -19 c-7 -2 -19 -2 -25 0 -7 3 -2 5
12 5 14 0 19 -2 13 -5z m-1583 -129 c0 -22 -23 -43 -109 -98 l-44 -28 7 38 c8
43 44 109 90 167 l31 39 12 -49 c7 -26 13 -58 13 -69z m-123 20 c-18 -37 -33
-40 -51 -11 -8 13 -6 26 8 52 l20 36 20 -20 c19 -20 19 -22 3 -57z m2187 -6
c25 -7 46 -15 46 -19 0 -4 -7 -23 -15 -42 -14 -35 -16 -36 -47 -25 -18 6 -50
23 -71 37 -35 24 -37 28 -32 65 8 56 12 58 44 25 16 -16 50 -34 75 -41z
m-1946 -62 c49 -73 49 -86 7 -150 -20 -31 -40 -56 -44 -56 -12 0 -67 249 -62
282 3 19 69 -33 99 -76z m867 74 c3 -5 -1 -10 -10 -10 -9 0 -13 5 -10 10 3 6
8 10 10 10 2 0 7 -4 10 -10z m-1307 -90 c36 -42 86 -70 127 -70 23 0 25 -3 19
-22 -10 -33 -34 -68 -48 -69 -59 -6 -97 16 -137 79 -24 38 -29 56 -29 106 1
60 1 61 18 38 9 -13 32 -41 50 -62z m2502 65 c14 -8 40 -14 58 -15 17 0 32 -1
32 -3 0 -2 -11 -36 -25 -76 -39 -115 -76 -142 -142 -101 -33 20 -41 38 -23 56
5 5 16 27 23 49 l14 39 11 -45 c13 -48 46 -98 58 -86 4 4 -2 18 -15 30 -32 35
-50 168 -22 167 3 -1 17 -7 31 -15z m-1172 -70 c13 -59 9 -97 -8 -79 -7 8 -30
110 -30 137 0 5 6 7 12 5 7 -3 19 -31 26 -63z m797 35 c3 -5 1 -10 -4 -10 -6
0 -11 5 -11 10 0 6 2 10 4 10 3 0 8 -4 11 -10z m49 -87 c-9 -64 -27 -94 -19
-33 3 25 6 53 7 63 1 9 6 17 11 17 4 0 5 -21 1 -47z m-117 -35 c-3 -7 -5 -2
-5 12 0 14 2 19 5 13 2 -7 2 -19 0 -25z m-2030 -82 c18 -9 36 -16 40 -15 23 4
23 -3 0 -21 -37 -29 -74 -26 -108 11 -22 24 -29 41 -29 72 l0 41 33 -36 c17
-19 46 -42 64 -52z m143 4 c-1 -61 -70 -163 -129 -187 -31 -13 -35 -13 -45 4
-14 24 -45 117 -41 121 2 2 12 -1 23 -7 40 -21 78 -13 111 24 17 19 38 49 47
67 12 24 18 28 25 17 5 -8 9 -25 9 -39z m1877 18 c-3 -7 -5 -2 -5 12 0 14 2
19 5 13 2 -7 2 -19 0 -25z m-180 -40 c-3 -8 -6 -5 -6 6 -1 11 2 17 5 13 3 -3
4 -12 1 -19z m-1683 -136 c-9 -74 -20 -116 -38 -146 -39 -67 -50 -72 -75 -37
-12 16 -21 32 -21 36 0 4 -8 23 -17 43 -16 34 -16 36 1 46 63 38 95 69 121
119 17 31 33 53 36 49 4 -4 1 -54 -7 -110z m1913 46 c-3 -8 -6 -5 -6 6 -1 11
2 17 5 13 3 -3 4 -12 1 -19z m-1863 -69 c7 -53 6 -57 -20 -74 -27 -17 -27 -17
-21 6 3 13 9 53 13 88 8 72 18 64 28 -20z m1836 2 c0 -6 -4 -13 -10 -16 -5 -3
-10 1 -10 9 0 9 5 16 10 16 6 0 10 -4 10 -9z m-18 -58 c-3 -16 -7 -22 -10 -15
-4 13 4 42 11 42 2 0 2 -12 -1 -27z m-1544 -68 c0 -5 -6 4 -13 20 -8 17 -14
37 -14 45 0 8 7 -1 14 -20 7 -19 13 -39 13 -45z m1482 45 c0 -5 -5 -10 -11
-10 -5 0 -7 5 -4 10 3 6 8 10 11 10 2 0 4 -4 4 -10z m-113 -32 c-3 -8 -6 -5
-6 6 -1 11 2 17 5 13 3 -3 4 -12 1 -19z m136 -38 c-3 -12 -8 -19 -11 -16 -5 6
5 36 12 36 2 0 2 -9 -1 -20z m-136 -12 c-3 -8 -6 -5 -6 6 -1 11 2 17 5 13 3
-3 4 -12 1 -19z m114 -51 c-10 -9 -11 -8 -5 6 3 10 9 15 12 12 3 -3 0 -11 -7
-18z m-76 -77 c-3 -5 -12 -10 -18 -10 -7 0 -6 4 3 10 19 12 23 12 15 0z"/>
<path d="M11542 9857 c-38 -39 -55 -77 -34 -77 12 0 92 96 92 109 0 20 -15 11
-58 -32z"/>
<path d="M12142 9873 c2 -5 17 -32 33 -60 32 -56 55 -68 55 -30 0 27 -55 97
-77 97 -8 0 -13 -3 -11 -7z"/>
<path d="M11616 9837 c-28 -36 -34 -67 -13 -67 12 1 57 63 57 80 0 23 -21 17
-44 -13z"/>
<path d="M12060 9835 c0 -25 23 -65 37 -65 17 0 16 40 -1 63 -16 21 -36 22
-36 2z"/>
<path d="M11688 9815 c-6 -14 -8 -28 -5 -32 9 -8 47 27 47 44 0 23 -30 14 -42
-12z"/>
<path d="M10766 9152 c-11 -17 -17 -83 -11 -111 8 -38 35 -55 59 -38 18 13 25
93 12 135 -7 21 -49 32 -60 14z"/>
<path d="M10723 8778 c-37 -48 -15 -68 77 -68 81 0 100 6 100 31 0 24 -26 34
-106 43 -44 5 -64 3 -71 -6z"/>
<path d="M11948 8971 c-29 -25 -38 -41 -38 -65 0 -35 15 -56 41 -56 30 0 40
26 37 91 l-3 63 -37 -33z"/>
<path d="M12688 8969 c-52 -51 -50 -119 3 -119 30 0 40 26 37 92 l-3 63 -37
-36z"/>
<path d="M13634 8780 c-11 -4 -33 -23 -48 -41 -36 -43 -31 -91 14 -131 35 -32
93 -37 140 -13 36 19 50 43 50 87 0 74 -85 127 -156 98z m77 -40 c21 -12 26
-46 7 -52 -8 -3 -5 -14 10 -35 30 -43 6 -51 -29 -10 -29 33 -49 30 -49 -8 0
-18 -4 -23 -15 -19 -11 5 -15 22 -15 70 l0 64 36 0 c19 0 44 -5 55 -10z"/>
<path d="M13655 8720 c-4 -7 -3 -16 3 -22 14 -14 45 -2 40 15 -6 16 -34 21
-43 7z"/>
<path d="M12576 8484 c-22 -22 -23 -250 -2 -280 12 -15 18 -17 33 -8 16 10 18
28 21 144 3 153 -9 187 -52 144z"/>
<path d="M13321 8476 c-7 -8 -11 -30 -9 -48 3 -29 7 -33 36 -36 l33 -3 -3 48
c-2 40 -7 49 -24 51 -11 2 -26 -4 -33 -12z"/>
<path d="M3245 7630 c0 -27 3 -50 8 -50 4 0 12 0 17 0 13 0 13 41 0 74 -15 40
-25 31 -25 -24z"/>
<path d="M2100 7571 c0 -22 63 -63 210 -136 73 -37 90 -40 90 -16 0 12 -5 21
-12 21 -13 0 -179 79 -188 90 -8 8 -89 60 -95 60 -3 0 -5 -9 -5 -19z"/>
<path d="M2937 7484 c-7 -7 -94 -16 -182 -19 -49 -1 -92 -3 -94 -4 -2 0 2 -8
9 -16 8 -9 30 -15 57 -15 42 0 43 -1 32 -22 -7 -13 -13 -63 -13 -113 -1 -140
37 -190 143 -189 70 0 102 20 132 81 18 37 21 57 17 117 -3 40 -12 88 -22 106
-11 23 -13 37 -6 44 21 21 10 35 -30 34 -21 0 -41 -2 -43 -4z m49 -64 c34 -52
45 -165 21 -222 -38 -91 -170 -104 -224 -21 -24 36 -23 184 0 230 18 34 40 41
159 52 11 0 29 -16 44 -39z"/>
<path d="M2864 7332 c-20 -14 -23 -41 -5 -63 16 -20 18 -20 34 -4 20 19 22 46
5 63 -14 14 -19 14 -34 4z"/>
<path d="M2620 7470 c0 -16 23 -60 32 -60 11 0 10 27 -2 51 -11 20 -30 26 -30
9z"/>
<path d="M2150 7438 c-19 -13 -45 -45 -59 -73 -50 -96 -28 -251 41 -299 48
-34 155 -6 196 51 29 41 44 133 31 191 -14 63 -35 95 -82 126 -50 32 -84 33
-127 4z m125 -32 c38 -29 75 -102 75 -148 0 -87 -46 -161 -109 -178 -60 -16
-99 -3 -129 43 -24 36 -27 51 -27 122 0 73 3 86 28 122 46 67 106 81 162 39z"/>
<path d="M2204 7276 c-10 -26 1 -51 22 -54 24 -3 38 20 29 49 -7 22 -43 25
-51 5z"/>
<path d="M2475 7360 c-3 -5 -1 -10 4 -10 6 0 11 5 11 10 0 6 -2 10 -4 10 -3 0
-8 -4 -11 -10z"/>
<path d="M2486 7322 c-3 -5 -1 -24 4 -43 14 -48 12 -91 -5 -113 -17 -22 -20
-92 -5 -101 6 -4 10 8 10 28 0 19 7 51 15 70 22 52 4 197 -19 159z"/>
<path d="M2560 7319 c0 -5 5 -7 10 -4 6 3 10 8 10 11 0 2 -4 4 -10 4 -5 0 -10
-5 -10 -11z"/>
<path d="M3030 7130 c0 -5 9 -10 20 -10 11 0 20 5 20 10 0 6 -9 10 -20 10 -11
0 -20 -4 -20 -10z"/>
<path d="M2540 7081 c0 -6 5 -13 10 -16 6 -3 10 1 10 9 0 9 -4 16 -10 16 -5 0
-10 -4 -10 -9z"/>
<path d="M3055 7040 c6 -20 -9 -28 -20 -10 -14 22 -21 7 -22 -42 -2 -66 4 -98
18 -98 6 0 8 7 5 16 -6 15 -4 15 10 3 16 -13 17 -11 11 16 -4 17 -10 41 -13
54 -5 16 -4 22 4 17 14 -9 34 28 26 48 -9 23 -26 19 -19 -4z"/>
<path d="M2076 6934 c-4 -15 -2 -32 3 -37 8 -8 11 0 11 26 0 44 -5 47 -14 11z"/>
<path d="M2675 6864 c-266 -21 -310 -27 -347 -50 -37 -23 -65 -60 -54 -71 3
-4 15 6 27 21 11 14 36 33 55 41 40 17 228 35 363 35 84 0 97 -3 118 -22 28
-26 44 -16 18 12 -20 22 -76 41 -115 38 -14 -1 -43 -3 -65 -4z"/>
<path d="M1835 7504 c-20 -48 -19 -60 5 -60 17 0 20 7 20 48 0 26 -2 48 -5 48
-3 0 -12 -16 -20 -36z"/>
<path d="M2165 6569 c-4 -6 -5 -12 -2 -15 2 -3 7 2 10 11 7 17 1 20 -8 4z"/>
<path d="M2190 6550 c0 -5 5 -10 10 -10 6 0 10 5 10 10 0 6 -4 10 -10 10 -5 0
-10 -4 -10 -10z"/>
<path d="M2157 6533 c-11 -10 -8 -43 4 -43 6 0 8 9 4 21 -5 15 -4 19 4 15 6
-4 11 -2 11 3 0 12 -13 14 -23 4z"/>
<path d="M2221 6514 c0 -11 3 -14 6 -6 3 7 2 16 -1 19 -3 4 -6 -2 -5 -13z"/>
<path d="M2245 6520 c-3 -5 -1 -10 4 -10 6 0 11 5 11 10 0 6 -2 10 -4 10 -3 0
-8 -4 -11 -10z"/>
<path d="M2190 6511 c0 -5 -3 -18 -7 -28 -6 -15 -4 -16 8 -6 11 9 19 9 26 2 8
-8 13 -8 17 0 4 6 0 11 -8 11 -9 0 -16 7 -16 15 0 8 -4 15 -10 15 -5 0 -10 -4
-10 -9z"/>
<path d="M2280 6500 c0 -5 5 -10 10 -10 6 0 10 5 10 10 0 6 -4 10 -10 10 -5 0
-10 -4 -10 -10z"/>
<path d="M2255 6480 c3 -5 8 -10 11 -10 2 0 4 5 4 10 0 6 -5 10 -11 10 -5 0
-7 -4 -4 -10z"/>
<path d="M2152 6471 c-11 -7 -11 -9 2 -14 10 -4 16 -1 16 8 0 17 -1 17 -18 6z"/>
<path d="M2285 6470 c-3 -5 -1 -10 4 -10 6 0 11 5 11 10 0 6 -2 10 -4 10 -3 0
-8 -4 -11 -10z"/>
<path d="M2180 6450 c0 -5 5 -10 10 -10 6 0 10 5 10 10 0 6 -4 10 -10 10 -5 0
-10 -4 -10 -10z"/>
<path d="M2246 6441 c-4 -7 -5 -15 -2 -18 9 -9 19 4 14 18 -4 11 -6 11 -12 0z"/>
<path d="M2200 6429 c0 -5 -4 -7 -10 -4 -5 3 -10 1 -10 -4 0 -13 3 -13 24 -5
18 7 22 24 6 24 -5 0 -10 -5 -10 -11z"/>
<path d="M2270 6414 c0 -8 5 -12 10 -9 6 4 8 11 5 16 -9 14 -15 11 -15 -7z"/>
<path d="M2225 6392 c3 -7 5 -16 5 -19 0 -3 7 0 15 7 21 17 19 29 -5 27 -13
-1 -19 -6 -15 -15z"/>
<path d="M2260 6375 c-7 -8 -8 -15 -2 -15 5 0 15 7 22 15 7 8 8 15 2 15 -5 0
-15 -7 -22 -15z"/>
<path d="M2260 6335 c0 -8 4 -15 9 -15 5 0 11 7 15 15 3 9 0 15 -9 15 -8 0
-15 -7 -15 -15z"/>
<path d="M2855 6530 c-3 -5 -1 -10 4 -10 6 0 11 5 11 10 0 6 -2 10 -4 10 -3 0
-8 -4 -11 -10z"/>
<path d="M2830 6500 c0 -5 5 -10 10 -10 6 0 10 5 10 10 0 6 -4 10 -10 10 -5 0
-10 -4 -10 -10z"/>
<path d="M2885 6500 c3 -5 8 -10 11 -10 2 0 4 5 4 10 0 6 -5 10 -11 10 -5 0
-7 -4 -4 -10z"/>
<path d="M2920 6500 c0 -5 5 -10 11 -10 5 0 7 5 4 10 -3 6 -8 10 -11 10 -2 0
-4 -4 -4 -10z"/>
<path d="M2848 6482 c-18 -4 -23 -14 -12 -25 4 -3 13 1 21 9 18 17 15 22 -9
16z"/>
<path d="M2885 6470 c-3 -5 -1 -10 4 -10 6 0 11 5 11 10 0 6 -2 10 -4 10 -3 0
-8 -4 -11 -10z"/>
<path d="M2910 6464 c0 -8 5 -12 10 -9 6 4 8 11 5 16 -9 14 -15 11 -15 -7z"/>
<path d="M2855 6430 c3 -5 8 -10 11 -10 2 0 4 5 4 10 0 6 -5 10 -11 10 -5 0
-7 -4 -4 -10z"/>
<path d="M2880 6430 c0 -5 5 -10 10 -10 6 0 10 5 10 10 0 6 -4 10 -10 10 -5 0
-10 -4 -10 -10z"/>
<path d="M1741 5644 c0 -11 3 -14 6 -6 3 7 2 16 -1 19 -3 4 -6 -2 -5 -13z"/>
<path d="M1731 5604 c0 -11 3 -14 6 -6 3 7 2 16 -1 19 -3 4 -6 -2 -5 -13z"/>
<path d="M3500 5596 c0 -2 7 -9 15 -16 9 -7 15 -8 15 -2 0 5 -7 12 -15 16 -8
3 -15 4 -15 2z"/>
<path d="M2368 5383 c7 -3 16 -2 19 1 4 3 -2 6 -13 5 -11 0 -14 -3 -6 -6z"/>
<path d="M3410 5461 c11 -22 30 -37 30 -24 -1 11 -26 43 -34 43 -4 0 -2 -9 4
-19z"/>
<path d="M3420 5308 c0 -3 6 -18 14 -32 10 -20 15 -23 19 -12 3 8 -3 22 -14
32 -10 9 -19 15 -19 12z"/>
<path d="M2493 4730 c-5 -22 -7 -40 -3 -40 9 0 30 46 30 65 0 30 -16 14 -27
-25z"/>
<path d="M2620 4758 c0 -9 7 -24 16 -32 30 -31 33 -13 4 24 -15 19 -20 21 -20
8z"/>
<path d="M3014 4629 c-13 -23 -48 -39 -83 -39 -17 0 -31 -4 -31 -10 0 -5 17
-10 38 -10 42 0 98 37 90 60 -4 12 -6 12 -14 -1z"/>
<path d="M2370 4606 c-14 -37 -47 -50 -127 -50 -65 -1 -74 1 -101 27 -16 16
-32 24 -36 19 -8 -14 44 -58 86 -71 47 -16 155 10 178 42 22 31 31 57 19 57
-5 0 -14 -11 -19 -24z"/>
<path d="M2760 4623 c0 -5 10 -19 23 -30 24 -21 107 -32 107 -14 0 6 -19 11
-42 11 -29 0 -49 7 -65 22 -13 12 -23 17 -23 11z"/>
<path d="M2527 4583 c-4 -6 -3 -33 3 -60 5 -26 11 -64 13 -83 2 -19 4 -3 4 35
1 77 -8 127 -20 108z"/>
<path d="M2110 4508 c0 -8 -16 -31 -36 -52 -41 -44 -38 -63 4 -23 47 45 59 4
17 -53 -28 -38 -25 -52 4 -26 11 10 25 15 30 11 7 -4 11 5 11 24 0 16 4 32 9
35 10 7 21 -17 21 -45 0 -32 13 -22 45 34 38 67 38 67 27 67 -6 0 -21 -17 -34
-37 -18 -31 -23 -34 -26 -19 -2 10 2 29 9 42 15 29 10 35 -19 27 -13 -3 -22
-13 -22 -24 0 -11 -5 -19 -11 -19 -6 0 -9 14 -7 32 2 18 -2 33 -9 35 -7 3 -13
-2 -13 -9z"/>
<path d="M2830 4510 c0 -5 5 -10 11 -10 5 0 7 5 4 10 -3 6 -8 10 -11 10 -2 0
-4 -4 -4 -10z"/>
<path d="M2370 4500 c0 -5 5 -10 10 -10 6 0 10 5 10 10 0 6 -4 10 -10 10 -5 0
-10 -4 -10 -10z"/>
<path d="M2520 4335 c0 -8 5 -15 10 -15 6 0 10 7 10 15 0 8 -4 15 -10 15 -5 0
-10 -7 -10 -15z"/>
<path d="M2595 4341 c-6 -11 9 -23 19 -14 9 9 7 23 -3 23 -6 0 -12 -4 -16 -9z"/>
<path d="M2674 4200 c-11 -4 -78 -13 -149 -20 -162 -14 -180 -18 -201 -41 -22
-24 -10 -38 13 -17 12 11 74 24 183 38 244 33 265 34 292 16 26 -18 38 -20 38
-6 0 31 -122 52 -176 30z"/>
<path d="M3691 4164 c0 -11 3 -14 6 -6 3 7 2 16 -1 19 -3 4 -6 -2 -5 -13z"/>
<path d="M3397 3603 c-17 -27 -54 -154 -47 -158 5 -3 14 14 20 37 6 24 18 60
27 81 9 20 14 40 11 43 -3 3 -8 2 -11 -3z"/>
<path d="M2860 2180 c0 -5 9 -10 19 -10 11 0 23 5 26 10 4 6 -5 10 -19 10 -14
0 -26 -4 -26 -10z"/>
<path d="M2140 1983 c0 -14 197 -173 214 -173 5 0 20 -8 34 -19 28 -19 120
-43 134 -35 12 7 10 54 -2 54 -5 0 -10 -7 -10 -15 0 -45 -168 33 -280 130 -72
62 -90 74 -90 58z"/>
<path d="M2892 1758 c-20 -20 -14 -66 10 -79 18 -10 24 -8 35 7 24 33 11 84
-22 84 -6 0 -16 -5 -23 -12z"/>
<path d="M2230 1712 c0 -6 14 -13 30 -17 40 -9 38 -21 -5 -29 -19 -4 -35 -13
-35 -19 0 -10 17 -12 65 -9 49 3 71 0 91 -13 14 -9 28 -14 32 -11 7 7 -37 56
-51 56 -5 0 -21 8 -35 19 -32 22 -92 37 -92 23z"/>
<path d="M3000 1644 c-55 -30 -153 -34 -182 -7 -10 9 -21 13 -24 10 -11 -11
16 -35 52 -47 57 -19 204 21 204 56 0 8 -1 13 -2 13 -2 -1 -23 -12 -48 -25z"/>
<path d="M2581 1607 c-1 -22 -8 -31 -38 -43 -64 -25 -84 -37 -95 -57 -14 -27
-1 -66 27 -79 19 -9 30 -7 60 11 l36 21 9 -25 c11 -30 25 -33 17 -4 -6 21 14
36 33 24 8 -5 8 -11 -1 -21 -6 -8 -9 -17 -6 -20 9 -9 27 5 27 22 0 8 6 15 13
15 6 1 23 3 36 4 32 3 54 33 46 65 -8 32 -12 34 -90 49 -57 12 -64 16 -68 39
l-4 27 -2 -28z m47 -83 c2 -17 -3 -22 -28 -26 -34 -5 -47 9 -36 38 9 24 60 14
64 -12z m42 1 c0 -8 5 -15 10 -15 6 0 10 7 10 15 0 8 5 15 10 15 6 0 10 -7 10
-15 0 -8 5 -15 11 -15 5 0 7 -5 4 -10 -4 -6 -15 -8 -26 -5 -12 4 -21 1 -25 -9
-3 -9 -9 -14 -14 -11 -10 6 -10 65 1 65 5 0 9 -7 9 -15z m-121 -37 c1 -5 -8
-8 -19 -8 -13 0 -18 -5 -14 -15 7 -18 4 -18 -30 -5 -14 5 -26 14 -26 19 0 6 7
8 15 5 10 -4 15 0 15 10 0 24 43 38 52 17 4 -9 7 -19 7 -23z"/>
<path d="M2128 1586 c-22 -16 -23 -26 -2 -26 13 0 15 -7 9 -42 -9 -57 9 -39
24 24 6 26 11 49 11 52 0 10 -25 6 -42 -8z"/>
<path d="M3009 1577 l-17 -22 -22 20 -23 20 5 -22 c6 -21 2 -23 -28 -23 -19 0
-34 -4 -34 -10 0 -16 93 -12 118 6 12 8 26 13 31 10 8 -6 21 15 21 35 0 17
-35 8 -51 -14z"/>
<path d="M3048 1312 c-8 -54 -28 -86 -76 -116 -45 -28 -155 -68 -237 -85 -82
-18 -87 -20 -81 -30 7 -11 92 5 182 34 148 48 208 94 219 168 4 25 5 52 3 59
-3 7 -7 -6 -10 -30z"/>
<path d="M2968 1323 c-21 -2 -38 -8 -38 -12 0 -5 -19 -11 -42 -15 -47 -8 -60
-14 -53 -25 4 -7 67 6 105 22 8 3 28 7 44 9 16 2 31 9 34 16 2 6 0 11 -5 10
-4 -1 -25 -3 -45 -5z"/>
<path d="M2230 1244 c0 -18 17 -36 24 -26 4 6 53 8 131 5 69 -3 125 -1 125 3
0 5 -30 10 -67 10 -38 1 -101 5 -140 9 -40 4 -73 3 -73 -1z"/>
<path d="M3840 1719 c0 -4 7 -20 15 -35 8 -16 15 -22 15 -13 0 14 -29 61 -30
48z"/>
<path d="M14319 7663 c-198 -153 -310 -246 -306 -257 2 -6 35 -15 73 -19 38
-5 75 -15 83 -22 13 -13 10 -20 -18 -55 -21 -26 -30 -47 -26 -59 4 -14 -14
-34 -77 -87 -45 -38 -95 -84 -112 -103 -17 -18 -51 -47 -76 -64 -45 -31 -283
-239 -309 -270 -32 -39 30 -3 194 111 33 23 71 42 86 42 14 0 54 20 89 45 49
35 69 43 89 38 33 -7 31 -5 25 -30 -5 -19 -22 -29 -179 -104 -48 -23 -197
-129 -255 -181 -36 -33 -45 -58 -22 -58 9 0 107 72 147 109 41 37 116 84 123
77 3 -3 -5 -17 -18 -31 -42 -44 -1 -29 169 65 90 50 167 90 172 88 6 -2 -24
-28 -66 -58 -41 -30 -75 -61 -75 -70 0 -8 -7 -26 -16 -38 -8 -12 -13 -30 -10
-40 6 -19 -24 -46 -107 -97 -26 -17 -90 -57 -141 -90 -52 -33 -115 -72 -140
-87 l-46 -28 0 -127 0 -128 -32 -28 c-47 -41 -16 -23 80 48 118 85 171 119
178 112 10 -10 -6 -26 -64 -64 -31 -20 -80 -55 -109 -78 -29 -24 -81 -59 -116
-79 -65 -36 -100 -66 -78 -66 18 0 66 27 174 97 93 61 101 64 128 52 23 -9 39
-9 73 1 32 9 49 9 64 1 13 -7 36 -8 66 -2 25 4 47 6 50 4 2 -2 -3 -19 -12 -36
-32 -64 -9 -117 50 -117 16 0 28 -5 28 -13 0 -16 -67 -81 -140 -135 -108 -81
-322 -253 -332 -267 -9 -11 -11 -85 -3 -85 5 0 39 22 100 63 60 41 233 145
251 151 12 3 29 15 39 26 10 11 26 20 36 20 24 0 75 31 183 109 75 55 95 65
127 64 22 -1 42 4 49 13 7 8 19 14 26 14 12 0 14 141 14 890 0 490 -1 890 -3
890 -2 0 -37 -26 -78 -57z"/>
<path d="M13955 6915 c-16 -13 -25 -24 -19 -25 6 0 21 11 34 25 30 32 24 32
-15 0z"/>
<path d="M13179 6023 c-13 -15 -12 -15 9 -4 23 12 28 21 13 21 -5 0 -15 -7
-22 -17z"/>
<path d="M13104 5972 c-23 -15 -50 -32 -60 -38 -11 -7 -17 -14 -14 -17 6 -7
114 60 118 73 5 14 2 13 -44 -18z"/>
<path d="M13325 5960 c-3 -5 -2 -10 4 -10 5 0 13 5 16 10 3 6 2 10 -4 10 -5 0
-13 -4 -16 -10z"/>
<path d="M14345 5853 c-22 -19 -81 -66 -131 -104 -50 -38 -96 -75 -103 -83
-16 -19 2 -30 28 -17 10 6 47 21 82 34 35 12 90 43 121 67 56 44 58 47 58 93
0 26 -3 47 -7 47 -5 -1 -26 -17 -48 -37z"/>
<path d="M14286 5678 c-51 -46 -132 -116 -180 -157 -47 -41 -86 -80 -86 -87 0
-20 28 -17 66 7 19 11 42 18 52 15 13 -4 45 11 98 46 63 42 87 52 122 53 l42
0 0 103 c0 60 -4 102 -10 102 -5 0 -52 -37 -104 -82z m-111 -188 c-10 -11 -21
-17 -24 -14 -3 3 3 12 13 20 28 20 32 17 11 -6z"/>
<path d="M12721 4928 c-94 -70 -107 -83 -87 -86 14 -2 35 3 48 10 35 20 188
129 188 134 0 6 -13 -1 -50 -26 -52 -35 -64 -29 -20 10 25 22 42 40 39 40 -4
0 -56 -37 -118 -82z"/>
<path d="M14325 4864 c-38 -30 -102 -80 -142 -110 -63 -49 -133 -122 -133
-138 0 -3 11 -6 24 -6 13 0 29 -7 36 -15 18 -22 28 -19 90 24 31 22 70 43 87
48 17 4 49 25 72 46 l42 38 -3 83 -3 84 -70 -54z"/>
<path d="M14379 4414 c-7 -9 -38 -33 -69 -54 -30 -21 -88 -72 -129 -114 -45
-45 -86 -78 -103 -81 -16 -4 -40 -22 -56 -42 -15 -20 -46 -55 -68 -77 -23 -23
-44 -51 -48 -62 -3 -11 -27 -37 -52 -58 -25 -21 -43 -40 -41 -42 2 -3 31 9 63
26 81 43 206 143 359 288 17 16 36 32 43 36 31 18 -9 -31 -76 -94 -131 -122
-227 -209 -255 -230 -15 -12 -32 -31 -38 -42 -10 -19 -9 -20 17 -14 44 11 134
74 144 101 5 14 14 25 20 25 5 0 46 32 90 71 64 56 86 70 108 67 20 -2 27 -9
27 -25 1 -33 9 -36 49 -12 l36 21 0 164 c0 90 -2 164 -4 164 -2 0 -10 -7 -17
-16z"/>
<path d="M14370 4060 c-8 -5 -24 -10 -35 -10 -13 0 -35 -21 -59 -55 -21 -30
-68 -83 -104 -119 -65 -65 -78 -94 -28 -60 31 19 42 14 28 -13 -10 -16 -109
-103 -157 -137 -35 -25 -7 -30 39 -8 24 12 46 22 50 22 9 0 95 38 126 55 25
14 58 30 133 62 l37 16 0 129 c0 70 -3 128 -7 128 -5 0 -15 -5 -23 -10z m-34
-116 c-15 -14 -31 -22 -35 -19 -3 4 7 17 24 30 38 31 49 21 11 -11z"/>
<path d="M13797 3863 c-4 -3 -7 -11 -7 -17 0 -6 5 -5 12 2 6 6 9 14 7 17 -3 3
-9 2 -12 -2z"/>
<path d="M13890 3790 c-23 -19 -29 -29 -19 -30 8 0 28 14 44 30 37 39 20 39
-25 0z"/>
<path d="M13796 3724 c-4 -9 -4 -19 -1 -23 8 -7 38 12 43 27 6 19 -35 14 -42
-4z"/>
<path d="M14123 3664 c-18 -8 -33 -21 -33 -29 0 -21 10 -18 50 15 37 33 33 36
-17 14z"/>
<path d="M8261 543 c-22 -4 -111 -88 -111 -105 0 -22 113 5 148 35 12 11 22
28 22 37 0 16 -19 41 -29 39 -4 -1 -17 -4 -30 -6z"/>
<path d="M8020 342 c-182 -146 -234 -189 -363 -304 l-42 -37 216 -1 215 0 23
31 c13 18 71 83 130 146 58 63 114 128 124 144 18 27 18 29 2 29 -18 0 -215
-81 -300 -123 -27 -14 -61 -28 -75 -32 -58 -17 17 32 130 85 120 55 140 67
140 81 0 13 -24 11 -56 -5 -33 -18 -61 -7 -66 25 -3 19 -11 14 -78 -39z"/>
<path d="M6765 328 c-36 -21 -340 -328 -325 -328 9 0 54 37 101 83 47 45 110
105 140 133 111 105 142 145 84 112z"/>
<path d="M8493 273 c-7 -2 -13 -11 -13 -20 0 -20 34 -12 38 10 3 17 -3 20 -25
10z"/>
<path d="M8400 191 c-19 -16 -33 -32 -29 -35 6 -7 79 44 79 56 0 15 -15 8 -50
-21z"/>
<path d="M2234 152 c7 -12 188 -100 264 -128 34 -13 75 -24 90 -24 19 1 6 8
-43 26 -92 32 -279 116 -283 126 -2 4 -10 8 -18 8 -9 0 -13 -4 -10 -8z"/>
<path d="M8510 133 c-26 -18 -43 -32 -94 -74 -17 -14 -42 -33 -56 -42 l-24
-17 39 0 c35 1 48 8 109 66 40 39 64 70 59 75 -5 5 -19 2 -33 -8z"/>
<path d="M8354 110 c-34 -17 -80 -48 -103 -70 l-41 -40 49 0 c44 0 54 5 93 40
23 23 58 51 75 63 68 46 18 51 -73 7z"/>
<path d="M8960 10 c-13 -8 -12 -10 3 -10 9 0 17 5 17 10 0 12 -1 12 -20 0z"/>
</g>
</svg>
