<?xml version="1.0" standalone="no"?>
<!DOCTYPE svg PUBLIC "-//W3C//DTD SVG 20010904//EN"
 "http://www.w3.org/TR/2001/REC-SVG-20010904/DTD/svg10.dtd">
<svg version="1.0" xmlns="http://www.w3.org/2000/svg"
 width="1440.000000pt" height="1040.000000pt" viewBox="0 0 1440.000000 1040.000000"
 preserveAspectRatio="xMidYMid meet">

<g transform="translate(0.000000,1040.000000) scale(0.100000,-0.100000)"
fill="#000000" stroke="none">
<path d="M0 5200 l0 -5200 2750 0 c2323 0 2750 2 2757 14 4 7 29 38 55 67 265
302 263 299 238 299 -5 0 -64 -54 -130 -120 -67 -66 -123 -120 -125 -120 -18
0 6 33 79 108 157 163 236 265 194 250 -7 -3 -44 -15 -81 -29 -53 -18 -76 -32
-99 -61 -32 -41 -48 -48 -48 -22 0 9 -9 18 -20 21 -23 6 -25 16 -8 43 21 32
-8 69 -81 103 l-64 30 -39 -22 c-21 -12 -74 -48 -116 -80 -110 -83 -128 -93
-154 -89 -22 3 -21 4 14 43 20 22 53 46 75 54 21 8 64 33 96 57 157 120 177
136 177 145 0 5 25 25 55 45 31 19 69 54 85 77 68 98 101 135 135 151 19 9 56
38 82 64 27 26 65 62 86 80 31 27 37 39 37 72 0 22 -5 40 -11 40 -6 0 -64 -37
-130 -82 -66 -46 -144 -97 -172 -114 -29 -16 -72 -44 -96 -62 -24 -18 -69 -44
-100 -58 -31 -15 -78 -42 -106 -60 -27 -19 -56 -34 -63 -34 -26 0 57 69 203
168 154 103 272 203 261 220 -7 12 22 38 100 91 34 22 93 71 131 108 39 38 90
81 114 96 131 84 351 241 479 341 30 23 91 66 135 95 44 29 118 92 165 140 47
47 121 121 165 162 76 72 115 123 103 134 -11 11 -144 -68 -253 -150 -118 -88
-220 -156 -300 -200 -27 -15 -68 -40 -90 -56 -93 -68 -248 -169 -252 -165 -2
2 35 35 83 73 48 37 99 79 113 93 26 25 127 101 201 150 39 27 185 133 235
172 23 18 26 24 12 26 -9 2 -29 -6 -45 -18 -37 -29 -181 -120 -190 -120 -4 -1
-23 -14 -42 -30 -19 -17 -40 -30 -46 -30 -7 0 -30 -15 -52 -33 -22 -19 -54
-40 -71 -47 -17 -7 -31 -16 -31 -20 0 -4 -26 -20 -57 -35 -70 -32 -117 -63
-203 -131 -36 -28 -113 -83 -171 -123 -58 -39 -118 -85 -134 -101 -28 -29 -55
-39 -55 -21 0 17 114 111 255 211 50 34 99 72 111 84 63 63 116 106 169 140
90 57 126 86 120 97 -7 11 -69 -19 -145 -71 -30 -21 -77 -47 -104 -60 -28 -12
-90 -48 -139 -79 -49 -31 -105 -65 -123 -76 -19 -11 -50 -33 -69 -49 -19 -16
-45 -36 -59 -45 -13 -9 -39 -28 -58 -42 -18 -14 -46 -31 -62 -38 -27 -11 -28
-11 -15 5 7 9 32 28 54 42 86 53 143 103 165 146 17 35 38 54 89 84 150 89
255 156 567 365 316 213 414 287 414 313 0 25 -30 22 -92 -10 -106 -56 -218
-129 -488 -322 -165 -117 -360 -248 -424 -283 -44 -25 -61 -30 -66 -21 -12 20
-62 5 -148 -45 -72 -41 -149 -74 -257 -109 -22 -8 -48 -17 -57 -21 -14 -5 -18
-2 -18 14 0 12 -6 21 -12 21 -7 0 6 18 30 40 23 21 42 48 42 60 0 11 6 20 13
20 10 0 182 73 262 111 12 6 65 44 118 85 91 70 117 104 82 104 -44 0 8 42
175 139 69 40 136 82 150 92 14 10 45 31 70 46 102 61 298 196 340 234 227
210 273 265 153 184 -29 -19 -56 -35 -60 -35 -4 0 -30 -15 -58 -34 -27 -19
-95 -63 -150 -98 -55 -36 -164 -106 -242 -156 -78 -51 -144 -92 -148 -92 -3 0
-18 -9 -33 -19 -65 -46 -449 -285 -572 -356 -74 -43 -145 -85 -157 -93 -50
-32 -18 1 60 62 45 35 102 86 127 111 25 26 63 61 85 77 22 16 74 58 115 93
212 182 369 304 504 393 47 32 125 99 186 162 59 60 139 130 183 160 43 28 88
62 99 75 11 13 57 47 102 74 44 28 95 63 111 79 25 23 154 114 365 257 103 70
251 177 390 284 36 28 126 91 200 142 74 50 150 104 168 120 18 16 37 29 42
29 6 0 27 15 47 34 21 18 58 46 83 61 25 15 68 47 95 70 28 23 88 68 135 100
47 32 110 81 141 109 31 28 64 57 73 64 18 14 13 32 -8 32 -7 0 -62 -35 -122
-78 -109 -77 -125 -90 -193 -147 -20 -17 -81 -61 -136 -98 -55 -37 -176 -125
-268 -197 -146 -113 -174 -130 -205 -130 -30 0 -63 -17 -167 -86 -72 -47 -143
-98 -160 -113 -46 -43 -118 -89 -145 -93 -14 -1 -30 -14 -37 -28 -16 -33 -50
-60 -75 -60 -11 0 -28 -10 -39 -22 -10 -13 -18 -17 -19 -10 0 20 -27 14 -54
-13 -14 -14 -33 -25 -42 -25 -9 0 -31 -12 -50 -27 -71 -59 -93 -73 -147 -93
-31 -12 -59 -26 -62 -31 -11 -17 -155 -110 -155 -100 0 6 8 15 19 20 10 6 51
37 90 71 40 33 86 68 102 77 35 21 35 49 0 45 -24 -2 -32 -8 -145 -97 -66 -53
-86 -64 -86 -47 0 12 191 168 380 310 24 17 47 32 52 32 8 0 37 21 232 172 65
50 90 78 69 78 -5 0 -56 -31 -114 -68 -119 -79 -166 -105 -180 -100 -6 2 34
33 88 70 54 37 126 89 160 117 35 28 100 76 145 107 46 31 104 78 130 104 43
44 136 118 183 147 101 60 185 116 196 130 19 22 206 163 217 163 4 0 19 14
32 32 19 26 21 34 11 50 -10 16 -6 26 25 63 20 25 40 45 44 45 10 0 226 192
270 240 19 21 64 53 100 70 36 18 113 68 172 111 59 44 109 79 112 79 25 0
270 136 390 216 82 54 163 107 180 117 17 11 54 36 81 56 28 21 61 43 75 50
41 22 127 76 453 292 579 381 662 437 692 464 38 33 275 195 286 195 5 0 26
15 46 34 21 18 72 55 113 82 41 26 83 58 95 71 11 12 38 28 60 35 29 10 41 19
43 36 3 19 9 22 52 22 60 0 80 7 80 29 0 19 -8 15 216 139 99 55 199 111 224
125 25 14 72 33 105 42 33 10 69 21 80 25 11 5 45 16 75 26 30 10 70 29 89 43
18 15 47 36 65 49 29 21 76 94 76 118 0 6 26 38 58 71 57 60 58 60 146 77 75
14 111 26 170 54 5 3 6 -1 2 -7 -14 -21 4 -71 25 -71 10 0 19 5 19 10 0 6 5
10 11 10 17 0 0 -19 -57 -61 -40 -29 -54 -46 -54 -64 0 -43 41 -43 99 -2 36
26 52 32 60 24 17 -17 13 -31 -15 -58 -16 -15 -23 -31 -20 -43 3 -11 -5 -32
-19 -50 -26 -34 -53 -121 -42 -132 4 -4 25 6 47 22 22 16 129 95 238 175 108
80 217 158 242 173 l45 28 -36 -34 c-19 -18 -117 -98 -217 -178 -100 -79 -182
-150 -182 -156 0 -21 47 -24 146 -9 55 9 176 18 269 22 l170 5 87 59 c48 32
129 89 180 127 51 37 114 83 140 101 27 17 48 36 48 40 0 5 48 39 108 75 59
37 127 82 152 101 54 41 57 41 63 13 2 -13 5 538 6 1225 l1 1247 -7200 0
-7200 0 0 -5200z m12103 4975 c252 -62 441 -209 568 -440 16 -29 29 -56 29
-59 0 -3 -375 -6 -834 -6 l-834 0 38 73 c77 147 217 282 380 367 36 19 112 46
170 61 147 39 339 40 483 4z m1388 -745 c22 -12 27 -78 7 -98 -9 -9 -385 -12
-1629 -12 l-1618 0 -15 22 c-21 30 -20 54 4 78 20 20 33 20 1626 20 1087 0
1612 -3 1625 -10z m-3694 -190 c19 -91 36 -172 39 -180 4 -8 12 11 20 45 7 33
26 115 41 183 l27 122 77 0 76 0 6 -112 c4 -62 7 -207 7 -321 l0 -208 -52 3
-53 3 -2 50 c-1 28 -2 117 -2 200 -1 86 -5 145 -10 140 -5 -6 -23 -86 -41
-180 -45 -241 -35 -217 -89 -213 l-46 3 -39 197 c-22 109 -42 195 -45 192 -3
-3 -8 -92 -11 -197 l-5 -192 -52 -3 -53 -3 0 154 c0 85 3 229 7 321 l6 167 81
-3 80 -3 33 -165z m-7404 98 c27 -29 61 -69 75 -88 14 -19 37 -47 50 -62 20
-22 23 -33 18 -63 l-7 -35 -92 94 c-51 51 -103 97 -115 101 -33 10 -108 -3
-122 -20 -7 -8 -18 -15 -25 -15 -16 0 -108 -71 -147 -112 -16 -16 -28 -40 -28
-54 0 -29 -26 -33 -35 -4 -7 21 -90 90 -108 90 -6 0 -18 6 -26 13 -28 24 -129
59 -149 53 -28 -9 -68 -50 -138 -141 -78 -102 -87 -120 -82 -161 2 -19 3 -34
1 -34 -1 0 -14 5 -28 12 -24 11 -31 31 -27 79 1 16 104 177 120 189 4 3 25 29
47 58 60 80 75 87 138 66 29 -9 59 -22 67 -28 8 -7 26 -18 40 -24 32 -16 88
-49 119 -72 24 -17 25 -17 100 36 42 29 85 60 96 69 10 8 22 15 26 15 4 0 38
20 75 45 36 25 76 45 87 45 11 0 42 -23 70 -52z m-90 -78 c7 0 23 -10 37 -21
18 -15 20 -19 6 -15 -14 5 -17 2 -12 -9 3 -10 2 -13 -5 -10 -6 4 -8 13 -5 20
5 14 -20 29 -35 19 -22 -13 -8 -44 29 -60 20 -10 45 -24 55 -32 9 -8 17 -12
17 -9 0 7 47 -39 70 -68 8 -10 -11 2 -43 28 -116 94 -174 103 -254 39 -82 -65
-86 -73 -81 -156 3 -41 10 -82 17 -90 7 -8 46 -31 86 -51 40 -19 75 -41 77
-47 3 -8 14 -7 42 2 20 6 43 13 49 14 7 1 21 5 32 8 11 3 33 9 48 12 24 6 27
5 15 -8 -7 -7 -16 -12 -20 -10 -10 7 -168 -38 -168 -48 0 -5 16 -8 35 -6 19 1
35 5 35 8 0 3 24 5 53 5 44 0 58 5 80 27 21 22 27 37 30 90 l3 63 2 -70 c2
-68 1 -71 -31 -96 -27 -22 -48 -28 -113 -34 -43 -3 -89 -11 -101 -17 -18 -9
-36 -2 -113 38 -50 27 -95 56 -100 64 -5 9 -12 71 -16 138 l-7 123 28 29 c60
63 202 144 233 134 8 -2 19 -4 25 -4z m8705 -35 c16 -34 17 -32 -24 -45 -33
-11 -35 -14 -27 -43 12 -50 5 -119 -15 -146 -41 -55 -68 -66 -158 -66 -56 1
-85 -3 -88 -11 -9 -23 18 -32 123 -43 119 -11 147 -26 170 -86 13 -32 13 -43
0 -79 -11 -34 -23 -45 -63 -65 -40 -20 -64 -24 -135 -24 -97 0 -150 17 -176
56 -21 32 -11 70 24 100 l27 22 -28 27 c-35 33 -36 67 -3 107 l26 30 -21 33
c-27 45 -27 129 0 173 11 18 37 41 58 51 50 24 150 24 186 0 26 -17 28 -16 57
8 38 33 53 33 67 1z m1053 -10 c49 -26 57 -60 61 -263 l3 -183 -60 3 c-58 3
-60 4 -65 33 l-5 29 -17 -26 c-10 -15 -27 -30 -39 -33 -19 -6 -17 -9 18 -25
52 -23 80 -61 89 -116 3 -25 5 -47 3 -49 -2 -2 -32 -7 -67 -11 l-62 -7 0 35
c0 40 -15 58 -47 58 -27 0 -45 -35 -36 -71 7 -31 34 -60 111 -121 79 -64 115
-122 116 -192 0 -65 -26 -113 -80 -144 -33 -19 -51 -22 -116 -20 -58 2 -83 8
-105 24 -32 23 -70 94 -75 139 -3 29 -2 30 59 41 69 12 64 15 78 -54 11 -53
75 -69 90 -21 13 41 -6 78 -68 132 -112 96 -145 135 -155 183 -11 50 -2 102
22 139 20 30 85 65 123 65 l27 0 -32 28 c-57 48 -60 127 -6 183 15 16 58 41
96 56 l69 28 -3 40 c-3 35 -6 40 -28 40 -19 0 -26 -7 -34 -32 -8 -31 -12 -33
-52 -33 -23 0 -49 3 -58 6 -36 14 -4 109 46 135 59 32 142 33 199 4z m740 0
c51 -27 57 -53 61 -258 l3 -188 -60 3 c-58 3 -60 4 -63 32 l-4 28 -27 -33
c-71 -85 -206 -4 -180 109 11 50 53 88 131 119 l69 28 -3 40 c-3 35 -6 40 -27
40 -19 0 -27 -7 -33 -32 -8 -31 -11 -33 -56 -33 -65 0 -76 10 -68 54 10 52 44
86 101 102 56 15 112 11 156 -11z m-2481 -169 c0 -119 4 -187 11 -191 5 -4 21
-4 35 -1 l24 6 0 185 0 185 70 0 70 0 0 -230 0 -230 -70 0 c-65 0 -70 2 -70
21 0 21 -1 21 -26 4 -43 -28 -85 -36 -122 -24 -56 18 -62 44 -62 264 l0 195
70 0 70 0 0 -184z m870 -46 l0 -230 -65 0 -65 0 0 230 0 230 65 0 65 0 0 -230z
m195 110 c10 -66 20 -118 23 -116 2 3 12 56 21 118 l16 113 50 0 50 0 16 -120
c9 -66 18 -122 19 -125 1 -3 10 46 20 109 10 62 21 120 24 127 4 9 22 14 56
14 l50 0 -6 -42 c-4 -24 -21 -126 -38 -228 l-31 -185 -57 -3 c-65 -3 -58 -15
-84 136 -9 56 -20 100 -23 96 -3 -3 -15 -56 -26 -117 l-20 -112 -60 0 -60 0
-27 175 c-15 96 -30 199 -34 228 l-7 52 55 0 56 0 17 -120z m965 84 l0 -35 34
35 c24 26 42 36 65 36 l31 0 0 -60 0 -60 -42 0 c-29 0 -49 -7 -65 -22 -22 -21
-23 -28 -23 -170 l0 -148 -70 0 -70 0 0 230 0 230 70 0 70 0 0 -36z m-10532
-30 c100 -49 133 -83 131 -139 -1 -28 -2 -27 -9 8 -10 51 -17 55 -28 16 -8
-33 -9 -33 -20 -12 -16 29 -33 38 -121 62 l-72 20 -52 -55 c-85 -92 -91 -104
-84 -191 3 -42 9 -79 14 -84 4 -4 49 -12 98 -17 l90 -10 45 36 c25 20 47 39
50 42 3 3 12 11 21 17 13 10 16 10 16 -2 0 -7 -3 -13 -7 -12 -5 2 -24 -12
-104 -75 -45 -35 -5 -27 79 17 48 25 90 43 93 40 7 -7 10 -4 -89 -53 -48 -24
-91 -42 -95 -41 -5 1 -17 -1 -26 -5 -20 -9 -223 -4 -232 5 -7 7 -36 189 -36
227 0 26 108 173 169 230 41 38 39 38 169 -24z m580 29 c11 -10 41 -44 66 -76
39 -49 46 -64 46 -102 0 -25 -4 -45 -9 -45 -5 0 -6 19 -4 43 5 40 2 48 -46
104 -28 34 -61 69 -73 77 -12 9 -17 16 -11 16 6 0 20 -8 31 -17z m-671 -109
c-3 -3 -12 -4 -19 -1 -8 3 -5 6 6 6 11 1 17 -2 13 -5z m746 -131 c-3 -54 -7
-100 -9 -102 -7 -7 -5 166 2 183 3 9 7 16 9 16 2 0 1 -44 -2 -97z m-475 21 c1
-31 4 -64 7 -75 4 -11 2 -19 -4 -19 -6 0 -11 10 -11 23 0 12 -3 46 -6 75 -4
30 -3 52 3 52 5 0 10 -25 11 -56z m577 26 c3 -5 -1 -10 -10 -10 -9 0 -13 5
-10 10 3 6 8 10 10 10 2 0 7 -4 10 -10z m-657 -56 l-3 -39 -5 47 c-3 26 -1 43
3 39 5 -5 7 -26 5 -47z m42 -94 c-7 -20 -17 70 -10 95 3 12 7 0 10 -30 3 -27
3 -57 0 -65z m-536 23 c-20 -15 -34 -17 -34 -5 0 16 23 30 38 25 13 -5 12 -8
-4 -20z m61 -70 c4 -32 3 -53 -3 -53 -11 0 -22 47 -22 93 0 47 17 20 25 -40z
m-40 -18 c4 -32 3 -46 -3 -40 -5 6 -12 32 -16 60 -4 29 -3 45 3 40 5 -6 12
-32 16 -60z m-45 35 c0 -5 -2 -10 -4 -10 -3 0 -8 5 -11 10 -3 6 -1 10 4 10 6
0 11 -4 11 -10z m1170 -32 c0 -12 -6 -9 -26 13 -19 22 -19 22 4 8 12 -8 22
-17 22 -21z m11157 11 c15 -5 40 -22 55 -36 80 -76 16 -203 -103 -203 -143 0
-192 173 -66 231 48 21 74 23 114 8z m-11781 -38 c-8 -12 -71 -41 -88 -40 -7
0 10 11 37 25 56 27 58 27 51 15z m10344 -121 l0 -70 35 0 c34 0 35 -1 35 -40
0 -39 -1 -40 -35 -40 l-35 0 0 -129 c0 -139 2 -145 51 -143 28 1 29 -1 29 -48
l0 -48 -40 -7 c-61 -10 -120 3 -152 35 l-28 28 0 156 0 156 -25 0 c-22 0 -25
4 -25 40 0 36 3 40 25 40 24 0 25 2 25 70 l0 70 70 0 70 0 0 -70z m-9790 -65
c0 -14 6 -36 14 -48 17 -28 29 -127 15 -127 -6 0 -18 18 -27 40 -20 47 -47 64
-40 25 3 -13 1 -22 -3 -19 -5 3 -14 -7 -21 -22 -11 -24 -10 -28 17 -50 l30
-24 6 28 c5 22 7 24 13 10 5 -10 17 -18 27 -18 16 0 19 -8 19 -42 0 -24 4 -54
7 -68 7 -22 8 -21 13 15 6 51 -25 261 -42 283 -11 14 -10 15 7 7 11 -4 35 -13
53 -19 21 -7 47 -29 69 -59 30 -40 34 -53 28 -80 -4 -18 -8 -63 -9 -102 -1
-67 -2 -70 -24 -67 -28 4 -51 -13 -64 -47 -7 -20 -11 -22 -18 -11 -6 10 -9 5
-8 -18 1 -18 4 -32 8 -32 3 0 16 20 28 45 12 25 28 45 35 45 20 0 37 -21 36
-44 0 -12 -3 -15 -6 -8 -10 26 -34 10 -58 -39 -25 -49 -25 -51 -8 -65 10 -7
21 -14 26 -14 14 0 7 -43 -13 -75 -25 -40 -67 -70 -73 -52 -2 6 -14 -22 -26
-63 -40 -130 -81 -218 -119 -252 -77 -67 -205 -108 -340 -108 -84 0 -99 3
-154 30 -104 52 -131 79 -144 147 -8 42 -12 49 -13 26 0 -17 -5 -34 -9 -37
-10 -6 -49 52 -57 87 -6 23 -4 27 14 27 12 0 30 -9 41 -20 20 -20 20 -20 20 0
0 14 -11 23 -41 31 -44 14 -54 26 -64 79 -4 24 -1 41 9 55 14 19 14 17 9 -22
-3 -24 -2 -43 2 -43 5 0 23 11 41 25 18 14 38 25 45 25 10 0 10 3 1 12 -8 8
-15 8 -26 -1 -11 -9 -15 -9 -19 1 -4 10 -8 10 -17 -2 -12 -16 -11 -9 5 47 10
36 -11 35 -37 -3 -30 -41 -29 -43 -60 90 -25 110 -27 265 -4 321 11 24 14 58
11 106 -2 38 0 67 3 65 4 -2 25 -11 46 -20 38 -16 38 -17 21 -36 -28 -31 -13
-49 17 -19 30 31 57 24 39 -9 -8 -16 -7 -21 4 -26 8 -3 15 -15 15 -26 0 -15 7
-20 26 -20 25 0 26 2 19 38 -8 42 5 36 21 -11 11 -33 31 -36 26 -4 -2 21 13
18 88 -16 33 -15 66 -20 120 -20 93 0 130 16 316 135 38 25 80 49 93 53 14 4
20 12 17 21 -3 8 1 14 9 14 9 0 15 -10 15 -25z m10207 -20 c13 -9 33 -30 44
-48 18 -29 19 -47 17 -174 -3 -142 -3 -142 -33 -173 -36 -38 -93 -54 -167 -47
-68 6 -114 35 -134 83 -15 35 -20 214 -8 273 8 39 54 87 97 101 44 13 154 4
184 -15z m414 13 c-1 -5 -1 -32 -1 -61 l0 -53 -33 4 c-25 3 -41 -2 -61 -20
l-28 -24 1 -147 2 -147 -71 0 -70 0 0 225 0 225 71 0 71 0 -4 -30 c-6 -37 1
-38 33 -4 13 14 33 30 44 35 23 9 46 8 46 -3z m290 2 c19 -5 48 -24 65 -41 26
-27 29 -38 33 -110 l3 -79 -101 0 -101 0 0 -59 c0 -62 14 -86 47 -79 13 2 19
14 21 46 l3 42 65 0 64 0 0 -40 c0 -85 -47 -130 -145 -138 -88 -7 -148 21
-175 80 -24 54 -28 239 -6 292 33 80 124 114 227 86z m-11830 -57 c6 -63 3
-101 -8 -125 -8 -17 -13 -68 -13 -138 0 -102 -1 -109 -17 -101 -10 5 -25 12
-34 14 -9 3 -20 18 -23 34 -4 15 -13 35 -20 43 -22 26 -39 97 -32 132 4 22 27
54 68 95 66 67 77 73 79 46z m1095 -419 c31 -64 -13 -148 -109 -208 -16 -10
-32 -15 -35 -11 -4 4 2 11 13 17 32 18 86 80 102 116 13 31 12 34 -9 52 -13
11 -26 19 -30 20 -11 0 -10 30 0 30 4 0 13 -5 20 -12 15 -15 15 -3 0 21 -9 15
-9 23 2 36 13 16 15 15 23 -6 5 -13 15 -38 23 -55z m-1115 16 c9 -14 20 -41
24 -60 6 -33 5 -33 -25 18 -29 49 -50 66 -50 40 0 -6 -3 -9 -6 -5 -12 11 6 39
22 35 9 -2 25 -14 35 -28z m-26 -92 c-14 -22 -15 -20 -15 27 l1 50 15 -28 c13
-24 13 -30 -1 -49z m-25 22 c0 -44 19 -61 44 -41 25 21 30 -9 5 -35 -20 -21
-21 -27 -11 -62 11 -36 28 -51 73 -65 15 -5 35 -54 26 -64 -3 -2 -20 2 -39 10
-42 18 -86 75 -104 135 -16 52 -19 162 -4 162 6 0 10 -18 10 -40z m102 -162
c13 -10 17 -18 10 -18 -17 0 -62 45 -62 63 0 27 15 28 22 0 4 -15 18 -35 30
-45z m191 -314 c22 -20 60 -45 84 -56 44 -19 44 -20 24 -34 -16 -12 -21 -26
-21 -62 0 -26 -3 -64 -6 -84 l-7 -37 -40 50 c-52 66 -72 73 -137 48 -54 -20
-100 -47 -112 -64 -5 -6 -8 -4 -8 4 0 35 151 270 174 271 5 0 27 -16 49 -36z
m677 -9 c30 -25 56 -49 58 -54 1 -4 -25 -14 -59 -21 -68 -15 -105 -41 -134
-94 -11 -20 -23 -36 -28 -36 -4 0 -6 4 -3 8 3 5 -2 21 -10 36 -7 16 -14 39
-14 51 0 13 -7 30 -15 39 -20 20 -19 23 10 30 14 4 25 11 25 16 0 6 8 10 18
10 9 1 33 14 52 30 19 17 37 30 40 30 3 0 30 -20 60 -45z m-246 -82 c-10 -41
-12 -43 -50 -43 -20 0 -44 -5 -55 -11 -16 -8 -23 -7 -33 7 -7 10 -20 15 -28
11 -9 -3 -20 -1 -25 4 -11 11 -36 -8 -46 -33 -9 -22 -24 9 -19 40 l4 27 96 2
c53 1 108 6 122 12 38 15 41 13 34 -16z m307 -47 c-10 -6 -16 -5 -19 2 -2 7
-15 12 -29 12 -37 0 -23 24 18 30 28 4 35 1 40 -15 3 -12 0 -24 -10 -29z
m-586 6 c-4 -20 -1 -33 10 -42 17 -14 20 -40 5 -40 -5 0 -14 9 -20 20 -6 11
-15 20 -21 20 -13 0 0 -50 18 -72 22 -25 12 -52 -21 -56 l-28 -4 7 89 c8 90
16 113 42 113 11 0 13 -7 8 -28z m315 11 c-1 -25 -26 -68 -33 -56 -7 12 14 73
25 73 4 0 8 -8 8 -17z m-162 -86 c30 -80 32 -91 23 -106 -7 -11 -16 -6 -40 21
-17 20 -47 43 -66 52 -40 19 -40 18 -21 54 11 22 22 28 50 29 34 1 36 -1 54
-50z m109 39 c10 -10 15 -93 7 -99 -5 -2 -23 -8 -40 -11 -31 -7 -32 -5 -48 40
-19 57 -19 49 -1 68 14 14 69 15 82 2z m77 -47 c6 -26 -6 -39 -35 -39 -13 0
-11 54 3 68 14 14 23 6 32 -29z m-579 21 c-3 -5 -11 -10 -16 -10 -6 0 -7 5 -4
10 3 6 11 10 16 10 6 0 7 -4 4 -10z m275 -106 c0 -8 -4 -12 -10 -9 -5 3 -10
10 -10 16 0 5 5 9 10 9 6 0 10 -7 10 -16z m360 -46 c0 -3 -13 -3 -30 0 -34 5
-34 6 -19 33 10 20 11 19 30 -5 10 -13 19 -26 19 -28z m-790 -320 c-22 -42
-43 -58 -75 -58 -23 0 -41 -10 -70 -40 -21 -22 -35 -43 -31 -47 4 -4 20 7 34
25 29 35 69 45 57 15 -3 -10 -9 -31 -12 -48 -6 -25 -7 -26 -14 -10 -4 14 -7 8
-7 -20 1 -87 -12 -244 -22 -269 -10 -28 -17 -31 -40 -16 -12 8 -16 45 -18 209
-3 197 -3 200 20 223 13 13 28 22 34 20 5 -1 41 9 80 22 38 13 70 22 72 21 2
-2 -2 -14 -8 -27z m1300 -97 c80 -83 83 -181 12 -349 -22 -52 -34 -67 -64 -82
-44 -21 -49 -13 -13 20 23 21 25 31 25 107 0 103 -15 166 -46 196 -30 28 -30
43 0 62 50 33 84 -15 93 -135 8 -103 21 -95 16 11 -4 84 -16 121 -52 153 -25
23 -67 15 -76 -14 -3 -11 -10 -20 -15 -20 -15 0 11 60 33 75 32 23 47 19 87
-24z m-706 -2 c22 24 38 28 30 6 -4 -8 -2 -15 4 -15 5 0 15 7 22 15 17 20 32
19 28 -2 -2 -14 6 -19 42 -23 48 -5 57 -19 59 -88 l1 -33 -57 8 c-32 4 -138 8
-236 8 l-177 0 0 43 c0 40 1 42 29 42 17 0 33 5 37 11 3 6 17 8 29 5 14 -4 25
-1 28 7 3 8 10 7 26 -7 21 -19 21 -19 21 9 l0 28 24 -22 24 -23 18 28 c18 27
19 27 24 5 l5 -23 19 21z m-670 -103 c-3 -21 -8 -35 -11 -32 -2 2 -1 20 3 40
3 21 8 35 11 32 2 -2 1 -20 -3 -40z m766 -42 c86 -9 94 -16 87 -80 -3 -29 -8
-58 -11 -63 -3 -5 -30 -1 -63 9 -32 10 -89 21 -128 24 -38 4 -85 9 -103 12
-23 4 -32 2 -27 -5 3 -6 23 -11 43 -11 41 0 176 -23 236 -40 l38 -12 -6 -51
c-6 -48 -8 -132 -3 -182 1 -14 -5 -21 -20 -23 -15 -2 -23 -10 -23 -23 0 -11
-4 -18 -10 -14 -5 3 -6 13 -3 22 6 15 -8 16 -143 10 -82 -4 -176 -10 -208 -13
l-59 -7 7 44 c4 24 12 49 19 55 38 36 240 70 350 59 84 -8 91 10 7 19 -68 8
-112 3 -247 -25 -113 -23 -116 -23 -109 -1 7 24 7 209 0 254 -5 33 -4 38 17
42 59 14 235 13 359 0z m513 -12 c17 -19 37 -102 37 -154 0 -16 -7 -45 -17
-66 l-16 -37 -8 40 c-4 22 -10 51 -14 64 -7 21 -5 22 14 16 36 -11 35 19 -3
78 -20 31 -36 61 -36 67 0 16 25 12 43 -8z m-1296 -24 c-3 -7 -5 -2 -5 12 0
14 2 19 5 13 2 -7 2 -19 0 -25z m289 -426 c-11 -10 -14 3 -7 38 l6 35 3 -33
c2 -19 1 -36 -2 -40z m1158 -97 c119 -146 206 -268 206 -289 0 -4 -28 -4 -62
0 -43 5 -73 15 -94 31 -21 15 -44 23 -72 23 -44 0 -52 -11 -57 -73 -3 -36 -35
-107 -48 -107 -5 0 -19 10 -31 23 -12 12 -38 33 -58 47 -36 24 -37 26 -30 70
9 59 9 130 0 127 -4 -1 -15 8 -23 21 -9 12 -20 22 -25 22 -5 0 -21 -22 -35
-50 -14 -27 -28 -50 -30 -50 -8 0 6 51 27 98 21 47 43 54 60 17 15 -32 20 -31
36 5 8 17 21 30 29 30 12 0 14 8 10 38 -9 51 7 76 24 39 7 -15 16 -27 20 -27
15 0 22 49 15 101 l-7 50 32 -23 c17 -13 68 -68 113 -123z m-709 94 c-4 -11
-2 -19 3 -19 5 0 12 10 16 23 10 37 27 -1 21 -48 l-5 -40 24 53 c27 57 52 67
62 26 6 -22 -2 -34 -62 -90 -38 -35 -75 -64 -81 -64 -7 0 -13 -5 -13 -12 0 -6
-9 -3 -20 7 -11 10 -20 14 -20 8 0 -5 9 -18 20 -28 11 -10 20 -13 20 -7 0 7 8
12 18 12 10 0 28 11 41 24 16 17 31 23 59 21 20 -1 49 -3 65 -4 37 -2 35 -28
-3 -36 -31 -7 -48 -40 -36 -71 10 -26 31 -9 31 24 0 24 4 32 18 32 10 0 20 -7
23 -15 4 -8 10 -15 15 -15 5 0 9 7 9 15 0 8 6 15 14 15 27 0 37 -28 35 -91 -2
-41 1 -64 9 -67 7 -2 12 4 12 12 0 9 8 20 18 23 9 4 22 14 29 22 11 14 12 14
13 -2 0 -10 -7 -49 -16 -87 -11 -49 -19 -67 -28 -64 -14 5 -36 -42 -36 -76 0
-10 -9 -24 -20 -31 -13 -10 -21 -29 -24 -59 -2 -25 -9 -58 -15 -73 -6 -16 -8
-39 -5 -52 5 -19 -3 -33 -39 -69 -55 -54 -103 -80 -182 -96 -138 -28 -292 18
-378 115 -51 58 -109 227 -161 468 -7 29 4 19 21 -20 16 -37 16 -37 23 -13 l6
25 8 -22 c16 -51 26 -17 25 95 0 123 11 206 30 225 8 8 11 8 11 0 0 -7 -4 -15
-10 -18 -6 -4 -4 -14 4 -28 8 -12 18 -43 21 -69 7 -44 5 -48 -18 -59 -14 -6
-28 -18 -31 -25 -7 -19 8 -18 24 1 19 22 39 18 50 -10 13 -33 22 -32 18 2 -2
20 2 29 14 31 14 3 16 -3 11 -32 -4 -28 -2 -37 11 -42 23 -9 31 2 31 39 0 26
4 33 24 35 13 2 34 -2 47 -8 12 -7 31 -10 41 -6 15 6 13 9 -14 22 -47 23 -153
123 -153 144 0 54 12 58 206 68 157 9 177 6 169 -19z m-710 -187 c9 -29 17
-83 18 -119 l2 -66 -62 -17 c-50 -14 -63 -14 -67 -4 -3 7 -16 16 -29 19 -14 4
-28 18 -34 36 -12 30 -13 30 -65 24 -45 -6 -57 -3 -80 14 -14 12 -35 21 -46
21 -49 0 -30 33 58 99 19 14 69 53 110 85 112 89 104 84 98 59 -4 -13 -3 -23
0 -23 13 1 39 25 53 50 13 24 14 21 21 -50 4 -41 15 -99 23 -128z m940 96 c19
-64 19 -88 1 -88 -22 0 -28 16 -33 81 -5 74 11 77 32 7z m-75 -10 c0 -14 -7
-17 -40 -15 -22 1 -40 4 -40 6 0 3 12 18 27 33 26 27 29 28 40 12 7 -10 13
-26 13 -36z m-495 -23 c19 -13 18 -14 -19 -15 -31 0 -37 3 -32 16 3 9 6 20 6
25 0 6 5 5 13 -1 6 -6 21 -17 32 -25z m39 -41 c27 -10 18 -24 -16 -24 -42 0
-78 10 -78 21 0 10 70 12 94 3z m-312 -66 c21 -32 31 -68 20 -68 -6 0 -13 11
-16 25 -8 30 -34 44 -47 24 -7 -12 -9 -11 -9 2 0 15 18 39 31 39 4 0 13 -10
21 -22z m1040 -20 c1 -16 7 -24 15 -21 15 6 16 -4 3 -80 -12 -73 -56 -163 -94
-190 l-28 -20 7 34 c4 19 18 47 31 62 28 33 31 77 9 111 -9 13 -13 31 -9 40 7
17 24 22 24 6 0 -5 4 -10 10 -10 5 0 7 13 4 29 -3 16 -1 38 6 51 14 26 19 23
22 -12z m-1042 -48 c11 -26 10 -33 -4 -49 -17 -19 -21 -41 -7 -41 5 0 16 10
24 23 14 19 16 19 16 4 1 -10 -6 -29 -15 -43 -25 -37 -5 -93 45 -133 35 -28
60 -71 42 -71 -5 0 -23 10 -42 23 -73 49 -120 159 -100 233 6 22 11 52 11 67
0 34 13 28 30 -13z m-282 -52 c2 -9 -12 -28 -33 -44 l-36 -27 -25 24 c-33 31
-27 52 16 60 52 10 74 6 78 -13z m1582 -33 c0 -36 -10 -44 -28 -22 -11 14 2
57 18 57 5 0 10 -16 10 -35z m70 20 c16 -15 15 -17 -9 -44 -14 -16 -32 -26
-38 -24 -13 5 -18 65 -6 76 11 12 36 8 53 -8z m-1753 -84 c-8 -9 -17 -25 -21
-36 -7 -20 -8 -20 -22 -1 -17 24 -18 47 -2 80 l11 26 24 -26 c21 -23 22 -28
10 -43z m1363 40 c0 -16 -9 -39 -21 -52 l-21 -24 16 25 c9 13 16 37 16 52 0
16 2 28 5 28 3 0 5 -13 5 -29z m-1221 -43 c-19 -18 -42 -44 -51 -58 -16 -25
-16 -25 -32 -5 -26 34 -19 53 36 90 45 30 54 33 67 21 12 -13 9 -19 -20 -48z
m1655 33 c16 -18 16 -21 -5 -61 l-22 -42 -19 36 c-17 34 -17 38 -2 61 20 30
26 31 48 6z m-467 -13 c-3 -8 -6 -5 -6 6 -1 11 2 17 5 13 3 -3 4 -12 1 -19z
m-911 3 c-7 -11 13 -71 24 -71 4 0 11 -7 14 -16 11 -28 -23 4 -40 39 -14 26
-13 57 1 57 4 0 4 -4 1 -9z m-376 -14 c0 -2 -12 -14 -27 -28 -24 -22 -24 -13
0 19 8 11 27 17 27 9z m125 -73 c-8 -27 -24 -60 -35 -74 -20 -24 -21 -25 -35
-6 -8 11 -15 27 -15 37 0 22 81 112 91 102 5 -5 3 -31 -6 -59z m-197 -4 c4 0
21 -32 38 -71 16 -39 51 -98 77 -131 45 -55 54 -88 26 -88 -6 0 -9 -7 -6 -15
3 -7 -2 -24 -12 -36 -15 -19 -23 -21 -64 -15 -39 6 -52 14 -85 54 -28 34 -39
56 -39 80 0 17 2 32 4 32 3 0 16 -13 29 -30 14 -16 39 -39 56 -51 31 -23 98
-42 98 -29 0 4 -16 11 -36 14 -44 9 -103 62 -134 120 -20 40 -22 55 -17 118 3
40 9 81 12 91 7 16 10 14 26 -12 10 -17 22 -31 27 -31z m1342 1 c0 -21 -6 -46
-14 -57 -13 -17 -16 -17 -30 -4 -15 15 -13 42 10 109 8 26 34 -10 34 -48z
m410 38 c11 -19 10 -20 -9 -10 -27 15 -36 31 -17 31 8 0 20 -9 26 -21z m129
-27 c20 -43 21 -53 11 -115 -9 -60 -65 -197 -80 -197 -18 0 -29 43 -22 82 10
52 6 68 -18 68 -25 0 -40 22 -33 48 6 25 4 25 37 12 24 -9 26 -8 28 23 0 17 2
37 3 42 2 19 37 85 44 85 4 0 18 -21 30 -48z m-133 -9 c35 -22 44 -34 44 -55
0 -31 -3 -33 -31 -18 -11 7 -19 22 -20 38 0 26 0 26 -9 4 l-10 -23 -40 23
c-41 24 -47 32 -30 43 6 3 10 0 10 -7 0 -8 5 -6 11 5 14 23 24 22 75 -10z
m-1672 -8 c13 -20 14 -28 4 -45 -7 -11 -17 -19 -23 -17 -15 5 -29 52 -22 71 9
23 22 20 41 -9z m1597 -66 c4 -20 7 -25 8 -12 1 28 12 34 33 19 11 -8 14 -21
11 -40 -5 -24 -9 -27 -32 -21 -43 10 -77 65 -54 89 14 13 28 -1 34 -35z
m-1549 -65 c-15 -32 -27 -30 -42 6 -10 24 -10 37 -1 57 l12 27 21 -33 c17 -26
19 -36 10 -57z m1171 61 c13 -9 17 -20 12 -35 l-7 -22 -24 23 c-41 38 -24 67
19 34z m-1127 -55 c-15 -22 -31 -40 -38 -40 -7 0 -5 7 4 18 9 9 24 33 33 52
11 20 20 29 23 22 2 -7 -8 -31 -22 -52z m1768 -11 c18 -58 18 -61 0 -102 -19
-42 -79 -117 -94 -117 -5 0 -12 9 -15 20 -4 14 5 41 28 83 33 58 52 120 49
160 -2 37 15 14 32 -44z m-1694 2 c0 -31 -44 -101 -64 -101 -7 0 -21 9 -30 19
-17 19 -16 22 26 74 46 57 68 60 68 8z m1267 -121 c55 -101 73 -133 103 -182
l22 -38 -31 -42 c-17 -23 -29 -44 -26 -46 3 -3 6 -3 8 -1 2 2 15 18 29 36 l26
32 16 -24 c22 -33 20 -45 -7 -45 -39 0 -45 -16 -40 -104 5 -79 4 -84 -18 -100
-25 -17 -40 -21 -37 -8 1 4 -22 31 -51 61 l-53 53 6 51 c9 68 25 103 75 162
55 66 52 83 -4 20 -53 -60 -85 -121 -85 -162 0 -37 -8 -46 -26 -28 -20 19 -18
32 12 82 14 25 23 47 20 51 -9 9 -34 -28 -55 -83 -12 -31 -21 -44 -24 -35 -16
46 -29 140 -34 250 -4 104 -2 132 12 165 17 40 17 40 32 18 23 -35 33 -28 33
24 l0 47 25 -35 c15 -19 47 -72 72 -119z m-223 117 c8 -12 5 -23 -10 -44 -12
-15 -25 -28 -30 -28 -15 0 -16 35 -4 66 13 32 27 33 44 6z m-794 -63 c0 -2 -9
1 -20 8 -20 13 -26 38 -13 51 5 6 33 -44 33 -59z m1280 27 c0 -4 -21 -4 -47
-2 -45 3 -67 16 -57 32 4 8 104 -21 104 -30z m-1214 -26 c7 -19 14 -45 14 -57
0 -23 0 -23 -26 4 -21 21 -25 31 -19 57 4 17 9 31 11 31 3 0 12 -16 20 -35z
m1122 -2 c24 2 27 -2 30 -35 3 -32 0 -38 -17 -38 -27 0 -53 28 -46 50 4 11 -1
20 -12 24 -15 6 -15 8 -3 16 10 7 16 5 18 -5 2 -8 14 -13 30 -12z m-1169 -48
c52 -49 60 -61 65 -103 4 -26 3 -66 -1 -89 l-8 -43 -88 88 -88 88 22 57 c12
31 25 57 30 57 4 0 35 -25 68 -55z m1261 20 c0 -31 -3 -35 -25 -35 -22 0 -25
4 -25 35 0 31 3 35 25 35 22 0 25 -4 25 -35z m206 -77 c9 -50 8 -62 -4 -75
-33 -33 -108 -44 -118 -18 -4 9 8 31 30 56 20 22 44 55 53 74 9 19 19 32 22
29 3 -3 11 -33 17 -66z m-1747 -46 c10 -51 15 -95 10 -97 -24 -15 -138 -53
-143 -48 -12 12 -5 42 26 114 33 76 80 150 85 133 1 -5 11 -51 22 -102z m-185
-14 c12 -1 29 -2 38 -2 22 -2 22 -11 3 -58 -13 -33 -19 -38 -46 -38 -25 0 -41
10 -71 42 -33 36 -38 47 -38 91 l0 49 46 -41 c26 -23 56 -42 68 -43z m1754 48
c8 -18 8 -53 1 -123 -15 -150 -11 -141 -64 -129 -30 7 -45 16 -45 26 0 9 -2
69 -5 133 l-5 117 53 0 c47 0 55 -3 65 -24z m-1368 -53 c58 -43 63 -55 18 -42
-18 5 -50 9 -71 9 -21 0 -37 3 -35 8 21 43 32 62 35 62 2 0 26 -17 53 -37z
m684 -26 c-8 -22 -62 -61 -103 -75 -38 -13 -121 -16 -136 -4 -5 4 -18 22 -27
40 l-17 32 74 0 c40 0 81 3 90 6 15 6 15 4 4 -14 -20 -32 -5 -36 26 -7 24 21
83 47 93 40 1 -1 0 -9 -4 -18z m729 1 c6 -18 -22 -191 -34 -202 -12 -13 -12 4
3 120 10 88 19 111 31 82z m164 -91 l6 -63 -41 -18 c-31 -14 -52 -17 -87 -11
l-47 7 7 55 c9 77 13 83 49 83 17 0 45 8 61 19 38 23 44 15 52 -72z m-2039 43
c22 -22 49 -40 61 -40 24 0 27 -10 9 -28 -18 -18 -62 -14 -92 9 -20 16 -26 29
-26 60 0 21 2 39 4 39 2 0 22 -18 44 -40z m507 5 c11 -5 35 -20 53 -33 27 -21
32 -30 31 -66 0 -22 -6 -59 -13 -81 l-13 -40 -8 40 c-10 50 -37 105 -43 87 -2
-7 2 -19 8 -27 8 -10 10 -28 5 -51 -7 -42 -15 -37 -39 28 -21 57 -90 138 -118
138 -16 0 -18 3 -10 13 12 14 107 8 147 -8z m346 6 c13 -11 21 -22 18 -26 -4
-3 -20 5 -35 19 -34 29 -18 35 17 7z m-424 -78 c16 -21 36 -55 46 -76 17 -38
17 -38 -9 -73 -15 -18 -29 -34 -33 -34 -4 0 -21 29 -39 65 -23 47 -30 74 -26
93 17 76 21 77 61 25z m-325 -5 c-7 -7 -12 -8 -12 -2 0 14 12 26 19 19 2 -3
-1 -11 -7 -17z m-71 -18 c34 0 39 -3 45 -27 4 -16 16 -45 26 -66 19 -38 19
-40 1 -59 -18 -20 -17 -20 5 -14 31 10 38 -13 20 -76 -15 -54 -44 -84 -87 -90
-20 -3 -25 3 -36 38 -6 22 -14 59 -18 82 -5 40 -4 42 21 43 l27 1 -27 11 c-21
8 -28 19 -32 49 -3 21 -9 57 -12 80 -5 36 -4 40 11 35 9 -4 34 -7 56 -7z
m2013 -57 c6 -23 1 -167 -7 -180 -9 -14 -157 11 -157 26 0 4 11 18 25 31 36
34 32 56 -15 80 -58 30 -52 44 18 37 39 -4 67 -2 87 8 40 18 43 18 49 -2z
m-1649 -71 l28 -52 -23 -25 c-13 -13 -27 -22 -31 -19 -16 10 -30 87 -24 126 8
45 11 43 50 -30z m122 -212 l5 -175 -54 -52 -53 -52 3 98 c3 86 -16 233 -33
262 -3 3 3 13 12 20 9 8 34 38 56 68 39 53 40 54 50 30 5 -13 12 -103 14 -199z
m1363 112 c0 -14 99 -44 125 -38 17 4 25 2 25 -7 0 -17 -41 -140 -49 -147 -3
-3 -6 -9 -7 -15 -1 -21 -16 -65 -23 -65 -3 1 -23 15 -44 33 -25 22 -42 48 -52
80 -17 56 -7 61 46 21 19 -14 43 -30 54 -35 29 -14 -65 69 -97 87 -33 17 -32
15 -14 59 13 31 36 48 36 27z m-1803 -157 c-12 -32 -28 -60 -35 -63 -11 -3
-13 4 -16 73 -1 13 6 21 21 23 12 2 27 10 34 18 21 25 20 10 -4 -51z m903
-402 c7 -16 23 -58 36 -95 l23 -68 -85 0 c-48 0 -84 4 -84 10 0 18 79 180 88
180 5 0 15 -12 22 -27z m230 -171 c0 -2 -10 -2 -22 0 -21 3 -23 9 -25 68 l-3
65 25 -65 c14 -36 25 -66 25 -68z m-457 46 c-4 -34 -10 -48 -24 -51 -11 -3
-19 -3 -19 0 0 8 43 104 45 101 2 -2 1 -24 -2 -50z m311 -116 c10 -29 17 -54
15 -56 -7 -7 -233 -24 -247 -18 -14 5 -13 11 9 95 l10 38 97 -3 97 -3 19 -53z
m-320 -31 l-7 -61 -43 0 c-24 0 -44 1 -44 3 0 1 9 27 20 57 11 30 20 56 20 58
0 8 46 19 53 12 5 -4 5 -35 1 -69z m485 42 c12 -42 2 -55 -38 -51 -18 2 -25
10 -27 33 -5 43 2 55 30 55 20 0 27 -7 35 -37z m22 -90 c6 -16 13 -49 16 -75
5 -45 5 -47 -23 -51 l-29 -4 31 -7 c25 -6 33 -15 38 -39 3 -16 4 -33 1 -36 -3
-3 -35 -7 -71 -9 l-66 -4 6 73 c3 41 5 93 6 117 0 35 4 44 23 52 39 16 57 11
68 -17z m-661 -19 c0 -14 -4 -23 -9 -20 -5 3 -7 15 -4 26 7 28 13 25 13 -6z
m509 -34 c15 -71 16 -70 -38 -70 -28 0 -52 -3 -55 -8 -2 -4 21 -7 52 -7 l57 0
9 -38 c6 -23 6 -41 0 -46 -5 -5 -84 -11 -176 -14 l-168 -5 0 43 0 43 108 9
107 10 -102 1 c-115 2 -113 1 -92 74 13 47 30 52 216 56 l71 2 11 -50z m279
-51 c-19 -12 -21 -4 -13 48 l8 48 8 -45 c6 -31 5 -46 -3 -51z m-635 34 c3 -26
3 -52 1 -57 -2 -6 -31 -13 -64 -14 -53 -3 -60 -1 -60 16 0 61 36 99 96 101 18
1 22 -6 27 -46z m-161 -37 c-3 -22 -10 -36 -18 -36 -16 0 -18 19 -4 55 14 36
27 24 22 -19z m810 -51 c0 -14 1 -31 2 -37 1 -12 -39 -19 -56 -11 -3 2 -1 19
5 38 13 43 46 49 49 10z m-641 -35 c4 -19 4 -39 0 -43 -9 -9 -139 -13 -147 -4
-4 3 -3 22 0 41 7 39 21 45 96 42 42 -1 45 -3 51 -36z m-173 -29 c-3 -60 6
-88 18 -57 9 22 51 21 59 -3 3 -10 14 -26 24 -35 17 -16 21 -16 54 4 33 20 36
20 45 4 13 -24 42 -10 42 20 0 16 7 26 23 29 36 10 267 21 267 13 0 -4 -8 -19
-17 -33 -12 -19 -14 -28 -6 -30 7 -3 9 -11 6 -19 -3 -8 0 -14 6 -14 6 0 11 4
11 8 0 5 7 17 16 28 15 19 15 18 11 -3 -4 -15 0 -23 9 -23 8 0 14 9 14 19 0
11 5 23 10 26 6 3 10 -3 10 -15 0 -12 5 -18 10 -15 6 3 10 15 10 25 0 14 5 18
16 13 13 -5 15 -2 10 15 -6 17 -4 21 8 16 9 -3 16 -1 16 5 0 6 9 11 20 11 16
0 20 -7 20 -32 -1 -29 -12 -42 -100 -113 -76 -62 -106 -80 -130 -80 -23 -1
-35 5 -40 20 -8 18 -9 17 -9 -7 -1 -32 9 -40 60 -42 32 -2 43 3 69 31 27 28
38 33 79 33 34 0 56 -6 75 -21 21 -17 26 -18 26 -5 0 26 -46 49 -89 44 -49 -4
-45 4 30 65 48 39 59 54 59 78 0 27 2 29 40 29 46 0 45 5 34 -157 -6 -74 -10
-90 -23 -89 -14 1 -16 -12 -14 -89 5 -175 4 -191 -11 -250 -13 -53 -15 -56
-16 -25 l-2 35 -9 -40 c-18 -80 -32 -94 -146 -142 -29 -12 -78 -27 -108 -34
-58 -13 -78 -33 -22 -23 105 20 256 90 270 126 3 8 6 5 6 -6 1 -26 -67 -87
-133 -119 -87 -43 -174 -53 -292 -33 -107 19 -176 53 -214 106 -29 40 -25 47
6 10 15 -17 40 -38 56 -46 37 -19 166 -44 221 -43 29 0 3 8 -80 24 -122 23
-171 45 -193 85 -9 16 -5 18 50 16 33 -1 60 2 60 6 0 11 -37 17 -90 16 l-45
-1 0 51 c1 40 6 57 22 74 l22 21 93 -28 c136 -42 228 -41 323 5 39 18 87 45
108 59 48 31 67 22 83 -40 10 -36 12 -39 13 -16 1 42 -25 97 -46 97 -10 0 -42
-15 -70 -34 -29 -19 -83 -47 -120 -61 -60 -25 -76 -27 -145 -22 -42 4 -109 18
-148 31 -43 15 -82 23 -97 20 -28 -7 -50 -46 -57 -100 -2 -22 -5 -41 -6 -44
-3 -13 -25 60 -66 218 -39 155 -44 185 -44 287 0 98 2 115 18 124 16 10 16 10
-2 11 -16 0 -17 5 -11 37 8 47 12 53 31 53 12 0 15 -12 12 -59z m592 -28 c0
-5 -5 -15 -10 -23 -8 -12 -10 -11 -10 8 0 12 5 22 10 22 6 0 10 -3 10 -7z
m-413 -19 c2 -6 -12 -18 -32 -27 -33 -16 -35 -16 -45 3 -14 27 -13 28 23 33
41 5 50 3 54 -9z m53 -9 c0 -21 -17 -27 -24 -9 -10 25 -7 34 9 28 8 -4 15 -12
15 -19z m1127 -72 c43 -59 56 -97 57 -165 0 -73 -6 -87 -28 -69 -10 8 -16 9
-21 1 -15 -24 -33 17 -32 71 2 53 1 54 -24 51 -30 -3 -49 26 -27 40 19 12 26
10 37 -9 9 -15 10 -16 11 -2 0 9 -9 24 -20 34 -11 10 -20 13 -20 7 0 -16 -53
-15 -69 1 -11 10 -12 8 -7 -9 12 -38 -41 -121 -62 -99 -3 3 3 31 15 63 20 58
43 79 94 84 13 2 30 9 37 16 20 19 36 15 59 -15z m-527 -208 c-23 -187 -31
-237 -37 -231 -3 3 0 42 5 88 6 46 16 128 23 183 10 94 16 121 24 113 2 -2 -5
-71 -15 -153z m92 89 c9 -69 2 -145 -18 -193 -17 -40 -84 -134 -92 -127 -2 3
12 38 32 79 38 78 42 97 26 128 -7 11 -7 19 -1 19 5 0 9 21 9 46 0 50 12 76
13 28 0 -29 16 -77 19 -59 5 26 -3 91 -11 99 -5 6 -16 2 -29 -9 -11 -10 -20
-14 -20 -8 0 18 42 64 54 60 6 -2 14 -30 18 -63z m-1028 34 c9 -34 8 -35 -16
-34 -21 1 -23 -4 -26 -57 -2 -43 0 -58 10 -56 29 4 34 -2 30 -36 -5 -38 20
-88 71 -142 42 -45 25 -55 -19 -12 -81 78 -123 185 -112 284 8 68 48 103 62
53z m45 -70 c7 -35 23 -105 37 -157 26 -99 27 -140 1 -49 -18 61 -67 262 -67
272 0 4 4 5 9 2 4 -3 14 -34 20 -68z m1327 57 c4 -9 -4 -25 -17 -39 -13 -13
-32 -35 -42 -50 -19 -27 -37 -34 -37 -15 0 17 69 119 81 119 5 0 12 -7 15 -15z
m198 -68 l29 -52 -23 -44 -22 -45 -19 25 c-12 16 -16 31 -11 44 4 11 7 44 6
73 0 28 2 52 6 52 3 0 19 -24 34 -53z m-1570 17 c10 -27 7 -52 -9 -58 -12 -4
-15 3 -15 34 0 40 13 53 24 24z m916 -31 c0 -7 -4 -13 -9 -13 -10 0 -21 36
-13 45 7 7 22 -15 22 -32z m47 -15 c-3 -8 -6 -5 -6 6 -1 11 2 17 5 13 3 -3 4
-12 1 -19z m-57 -64 c0 -21 -4 -33 -10 -29 -5 3 -10 19 -10 36 0 16 5 29 10
29 6 0 10 -16 10 -36z m60 -5 c0 -10 -4 -19 -10 -19 -5 0 -10 12 -10 26 0 14
4 23 10 19 6 -3 10 -15 10 -26z m484 22 c10 -16 -6 -41 -26 -41 -14 0 -18 5
-14 16 3 9 6 20 6 25 0 12 27 12 34 0z m160 -80 c-8 -28 -17 -51 -19 -51 -2 0
-11 12 -18 27 -13 23 -12 31 7 69 18 38 21 41 33 24 10 -14 10 -27 -3 -69z
m-1557 -24 c9 -9 14 -20 11 -23 -8 -7 -48 59 -48 79 0 8 3 24 8 34 5 13 8 5
10 -27 2 -25 11 -53 19 -63z m1373 33 c0 -11 -4 -20 -10 -20 -5 0 -10 9 -10
20 0 11 5 20 10 20 6 0 10 -9 10 -20z m219 -154 c1 -84 -2 -116 -12 -124 -8
-7 -12 -24 -9 -40 2 -18 -2 -35 -13 -45 -17 -18 -65 -23 -65 -8 0 14 51 72 58
67 8 -5 11 22 12 111 1 35 6 65 11 68 5 4 9 11 9 17 0 7 -5 6 -15 -2 -22 -18
-30 28 -11 65 9 17 16 37 17 45 0 8 4 3 9 -12 5 -15 9 -79 9 -142z m-608 37
c13 -16 12 -17 -3 -4 -17 13 -22 21 -14 21 2 0 10 -8 17 -17z m-151 -83 c-15
-57 -21 -46 -7 14 6 27 13 44 15 38 2 -6 -2 -29 -8 -52z m130 3 c38 -32 69
-63 69 -69 1 -5 -9 -30 -20 -54 -12 -24 -23 -62 -25 -85 l-4 -40 13 45 c16 51
42 106 57 115 5 3 27 -11 49 -30 l40 -37 -25 -38 c-17 -25 -30 -65 -38 -116
l-12 -77 -37 32 c-21 19 -37 43 -37 55 -1 20 -2 20 -14 4 -7 -10 -21 -18 -31
-18 -14 0 -16 6 -11 30 3 17 8 45 12 63 l5 32 -15 -34 c-9 -18 -16 -41 -16
-50 -1 -29 -26 14 -64 110 l-36 90 16 52 c14 44 36 77 52 77 2 0 35 -26 72
-57z m-883 -19 c13 -21 23 -48 23 -59 0 -19 -53 -172 -63 -182 -3 -2 -15 12
-27 32 -32 51 -38 35 -7 -18 36 -60 22 -67 -17 -9 -17 26 -52 61 -78 77 -26
17 -46 37 -45 45 3 18 168 161 182 157 5 -2 20 -21 32 -43z m1423 12 c0 -52
-106 -115 -167 -100 -76 20 42 113 155 123 6 1 12 -10 12 -23z m-1952 -28 c43
-10 112 -46 112 -58 0 -3 -19 -15 -41 -27 -33 -18 -40 -19 -35 -6 11 27 -4 53
-29 53 -27 0 -83 -44 -95 -74 -8 -20 -8 -20 -18 4 -5 14 -12 44 -16 67 -6 45
-8 44 62 52 7 0 34 -4 60 -11z m1939 -85 c-3 -27 -13 -72 -22 -102 l-17 -54
-60 6 c-79 7 -96 25 -89 92 l6 50 42 -3 c44 -4 133 28 133 47 0 6 3 11 6 11 4
0 4 -21 1 -47z m-1919 14 c2 -10 -3 -17 -12 -17 -10 0 -16 9 -16 21 0 24 23
21 28 -4z m-38 -17 c9 -16 7 -26 -9 -46 l-20 -25 -11 21 c-9 17 -8 26 5 46 19
29 21 29 35 4z m159 -16 c2 -10 0 -16 -4 -12 -10 10 -82 -28 -130 -69 -40 -34
-59 -30 -33 8 15 23 138 99 153 95 6 -2 12 -11 14 -22z m461 -32 c0 -59 93
-452 126 -530 l14 -35 -29 6 c-38 8 -117 45 -131 62 -28 34 -38 269 -18 449
10 94 13 106 25 90 7 -10 13 -28 13 -42z m-327 3 c-3 -9 -8 -14 -10 -11 -3 3
-2 9 2 15 9 16 15 13 8 -4z m-129 -33 c-14 -22 -48 -22 -52 1 -2 11 5 20 20
26 30 11 47 -3 32 -27z m249 -22 c18 -16 42 -47 51 -69 18 -39 18 -40 -4 -85
-25 -52 -32 -56 -47 -23 -26 56 -114 131 -131 111 -4 -4 -2 -9 5 -11 34 -12
80 -53 105 -95 l29 -47 -26 -46 c-15 -25 -30 -47 -35 -50 -4 -2 -21 18 -39 46
-20 32 -43 55 -62 62 -49 19 -49 64 1 137 6 8 21 41 35 73 l25 58 30 -16 c16
-8 45 -29 63 -45z m258 39 c16 -11 29 -28 29 -38 0 -27 31 -124 37 -117 5 5
-8 69 -23 112 -5 13 -4 16 4 9 6 -5 18 -39 27 -74 9 -35 26 -89 38 -120 11
-31 21 -58 20 -61 0 -3 -4 -15 -8 -27 -9 -33 9 -28 22 5 l11 27 1 -27 c1 -15
-6 -33 -14 -42 -8 -8 -15 -19 -15 -25 0 -17 18 -13 28 6 8 14 12 12 27 -17 9
-18 37 -64 61 -102 24 -37 44 -72 44 -78 0 -10 -108 -6 -155 6 -51 13 -85 122
-164 542 -5 23 -6 42 -4 42 3 0 18 -9 34 -21z m-715 -6 c7 -10 14 -30 14 -45
0 -21 -5 -28 -20 -28 -17 0 -20 7 -20 45 0 49 6 55 26 28z m1678 -24 c5 -29
12 -43 26 -46 11 -3 20 -7 20 -8 0 -2 -11 -27 -25 -57 -14 -29 -25 -70 -25
-90 0 -44 -5 -46 -44 -15 -26 21 -29 28 -27 84 1 80 34 173 61 173 4 0 10 -18
14 -41z m386 -25 c0 -54 -29 -89 -63 -78 -12 3 -23 8 -25 9 -3 3 12 68 22 100
2 6 18 10 35 11 30 1 31 0 31 -42z m-1915 15 c4 -13 0 -27 -11 -40 -23 -25
-32 -24 -46 6 -10 21 -8 28 8 40 27 20 42 18 49 -6z m85 -3 c0 -8 -11 -27 -24
-42 l-23 -28 -7 22 c-6 17 -2 28 16 42 28 23 38 25 38 6z m680 -36 c0 -11 -2
-20 -3 -20 -2 0 -12 9 -22 20 -18 19 -17 20 3 20 15 0 22 -6 22 -20z m40 -7
c-1 -24 -2 -26 -11 -10 -5 9 -7 22 -4 27 10 17 15 11 15 -17z m26 -10 c-11
-11 -19 6 -11 24 8 17 8 17 12 0 3 -10 2 -21 -1 -24z m79 17 c-28 -31 -10 -36
25 -6 17 14 36 26 41 26 19 0 -12 -41 -54 -71 l-42 -30 -12 33 c-17 49 -16 56
15 61 15 2 31 5 36 6 5 0 1 -8 -9 -19z m-971 -22 c7 -20 5 -32 -11 -52 -22
-27 -28 -25 -52 21 -9 19 -8 25 11 43 27 25 40 22 52 -12z m1692 18 c7 -19
-41 -232 -52 -228 -5 2 -8 13 -7 25 1 16 0 17 -3 4 -3 -10 -11 -16 -17 -14
-23 8 -7 108 25 170 31 58 44 68 54 43z m-908 -12 c22 -15 30 -48 13 -58 -10
-6 -61 49 -61 65 0 14 23 11 48 -7z m1029 -21 l50 -5 -17 -62 c-15 -55 -20
-61 -41 -58 -77 10 -105 45 -95 116 7 45 8 45 30 31 13 -9 46 -18 73 -22z
m-1732 7 c6 -20 -9 -60 -24 -60 -4 0 -13 11 -19 24 -8 18 -7 27 6 40 21 21 29
20 37 -4z m75 -20 c0 -39 -14 -45 -29 -14 -9 20 -9 30 0 40 16 19 29 8 29 -26z
m-236 5 c4 -14 21 -42 39 -63 67 -76 94 -121 89 -148 -6 -34 -23 -39 -66 -19
-64 30 -129 164 -112 230 9 34 42 33 50 0z m906 -55 c-24 -85 -30 -101 -40
-95 -4 3 3 35 17 72 13 38 26 74 29 82 2 8 6 12 9 10 2 -2 -5 -33 -15 -69z
m94 23 c4 -21 9 -46 12 -55 3 -10 1 -18 -5 -18 -11 0 -17 17 -26 79 -9 54 10
48 19 -6z m-886 -9 c9 -18 9 -31 2 -45 -13 -24 -22 -24 -38 1 -9 15 -9 25 0
45 14 32 22 32 36 -1z m86 11 c5 -15 -9 -65 -18 -65 -15 0 -26 41 -16 60 13
24 26 26 34 5z m766 0 c0 -8 -9 -15 -20 -15 -20 0 -26 11 -13 23 12 13 33 7
33 -8z m1047 5 c24 0 24 -2 18 -42 -10 -67 -15 -78 -35 -78 -30 0 -71 22 -66
36 3 7 10 31 16 54 8 31 15 40 26 36 9 -3 27 -6 41 -6z m-530 -16 c-3 -3 -12
-4 -19 -1 -8 3 -5 6 6 6 11 1 17 -2 13 -5z m-1228 -104 c1 -19 -12 -34 -55
-64 -30 -21 -57 -36 -60 -33 -9 9 25 90 58 138 l33 49 12 -33 c6 -17 12 -43
12 -57z m-94 51 c3 -10 0 -30 -6 -45 -9 -20 -15 -23 -26 -15 -16 14 -17 33 -3
60 13 24 27 24 35 0z m1641 -12 c12 -11 38 -26 57 -33 35 -12 35 -12 21 -45
-11 -27 -17 -31 -36 -26 -13 4 -37 18 -54 30 -26 20 -30 28 -26 59 5 42 8 43
38 15z m-1489 -43 c16 -14 38 -44 48 -67 l19 -42 -25 -45 c-14 -25 -30 -47
-35 -49 -8 -3 -19 41 -50 200 -7 33 6 34 43 3z m-342 -3 c15 -47 119 -125 139
-106 10 11 7 -25 -6 -52 -31 -69 -148 10 -148 101 0 23 -3 49 -6 58 -3 9 -1
16 4 16 6 0 13 -8 17 -17z m1981 2 c16 -8 36 -15 45 -15 15 0 15 -6 -2 -62
-11 -34 -27 -70 -36 -80 -21 -24 -58 -23 -83 2 -19 19 -19 20 -1 60 24 54 31
59 31 24 0 -32 24 -74 42 -74 6 0 3 9 -7 20 -19 21 -38 101 -29 125 7 18 5 18
40 0z m-917 -49 c13 -54 14 -76 2 -76 -9 0 -13 14 -27 94 -9 54 10 39 25 -18z
m808 -36 c21 0 16 -14 -47 -138 l-59 -117 6 -151 c6 -143 5 -152 -13 -162 -11
-6 -31 -8 -46 -5 -21 4 -27 12 -32 41 -4 21 -13 73 -21 117 l-15 80 41 115
c22 63 52 152 66 196 l26 82 40 -29 c22 -16 46 -29 54 -29z m-1568 -22 c7 -35
28 -118 47 -185 29 -104 34 -139 34 -228 l0 -105 -29 0 c-16 0 -47 -7 -69 -14
-23 -8 -43 -12 -45 -8 -2 4 -5 75 -6 157 -3 171 -3 173 -43 279 -16 43 -26 81
-23 85 21 20 102 80 110 80 6 1 17 -27 24 -61z m1412 -8 c-5 -25 -9 -35 -10
-24 -1 28 11 92 16 79 1 -6 -1 -30 -6 -55z m-31 24 c0 -14 -4 -23 -9 -20 -5 3
-7 15 -4 26 7 28 13 25 13 -6z m-53 -36 c-3 -8 -6 -5 -6 6 -1 11 2 17 5 13 3
-3 4 -12 1 -19z m-1549 -78 c24 0 25 -1 7 -20 -23 -26 -46 -25 -79 1 -19 15
-26 29 -26 56 l0 36 37 -36 c22 -23 46 -37 61 -37z m1479 23 c-3 -10 -5 -4 -5
12 0 17 2 24 5 18 2 -7 2 -21 0 -30z m-1397 -8 c0 -65 -76 -171 -117 -163 -13
3 -57 97 -50 105 2 1 18 -3 36 -10 32 -12 34 -11 72 32 21 24 39 50 39 57 0 8
5 14 10 14 6 0 10 -16 10 -35z m1457 13 c-3 -8 -6 -5 -6 6 -1 11 2 17 5 13 3
-3 4 -12 1 -19z m-1004 -22 c51 -41 81 -56 172 -87 63 -22 86 -24 235 -23 167
1 269 16 389 59 24 8 45 15 48 15 2 0 2 -50 1 -112 l-3 -111 -40 -14 c-56 -20
-279 -63 -326 -63 -21 0 -39 -4 -39 -10 0 -5 1 -10 3 -10 56 0 335 54 389 75
18 7 21 -3 32 -110 7 -63 -2 -77 -56 -85 l-43 -7 46 -2 45 -1 17 -72 c13 -51
14 -75 7 -82 -7 -7 -98 -11 -273 -10 -256 0 -264 1 -352 28 -111 33 -224 78
-290 114 -61 33 -76 70 -53 129 11 28 12 48 5 75 -7 31 -5 43 13 73 l21 35 44
-33 c25 -17 47 -40 50 -49 9 -25 253 -142 360 -173 61 -18 121 -28 185 -30
l95 -4 -80 9 c-137 14 -296 64 -438 138 -75 39 -82 51 -16 27 72 -25 192 -46
203 -35 7 7 -1 10 -23 10 -96 0 -273 68 -346 134 -31 28 -34 37 -36 86 -2 95
1 150 7 150 3 0 24 -15 47 -34z m-437 -98 c-9 -97 -22 -142 -51 -175 -23 -28
-24 -28 -39 -8 -8 11 -20 38 -26 60 -11 36 -10 40 11 57 44 33 67 60 85 99 9
22 19 39 22 39 3 0 2 -33 -2 -72z m34 -47 c0 -33 -5 -53 -17 -62 -15 -13 -16
-11 -10 11 4 14 7 44 7 68 0 26 4 41 10 37 6 -3 10 -28 10 -54z m248 -16 c-3
-3 -9 2 -12 12 -6 14 -5 15 5 6 7 -7 10 -15 7 -18z m1063 2 c-10 -9 -11 -8 -5
6 3 10 9 15 12 12 3 -3 0 -11 -7 -18z m99 -33 c-11 -27 -18 -37 -15 -22 8 40
25 82 31 76 2 -3 -5 -27 -16 -54z m-39 9 c-12 -20 -14 -14 -5 12 4 9 9 14 11
11 3 -2 0 -13 -6 -23z m-1157 -53 c5 -17 4 -20 -2 -10 -5 8 -13 26 -16 40 -5
17 -4 20 2 10 5 -8 13 -26 16 -40z m1137 -1 c-5 -13 -10 -19 -10 -12 -1 15 10
45 15 40 3 -2 0 -15 -5 -28z m-1053 -84 c-3 -3 -9 2 -12 12 -6 14 -5 15 5 6 7
-7 10 -15 7 -18z m1072 12 c0 -7 -9 -18 -21 -25 -21 -13 -21 -13 -3 12 22 29
24 31 24 13z m-1105 -27 c3 -5 1 -10 -4 -10 -6 0 -11 5 -11 10 0 6 2 10 4 10
3 0 8 -4 11 -10z m1040 -50 c-3 -5 -12 -10 -18 -10 -7 0 -6 4 3 10 19 12 23
12 15 0z m-904 -155 c39 -20 103 -47 142 -61 40 -14 79 -29 88 -34 18 -9 122
-35 184 -45 22 -3 50 -9 63 -12 12 -3 22 0 22 5 0 6 -12 13 -27 15 -16 2 67 4
182 4 116 1 216 3 224 5 22 5 34 -72 15 -92 -19 -20 -153 -24 -499 -15 l-284
7 -33 27 c-45 35 -119 110 -146 145 -23 29 -30 86 -12 86 6 0 42 -16 81 -35z
m44 -207 c-5 -4 -30 -8 -53 -8 -60 0 -81 26 -82 101 l0 57 73 -72 c42 -42 68
-74 62 -78z m-120 2 c3 -5 2 -10 -4 -10 -5 0 -13 5 -16 10 -3 6 -2 10 4 10 5
0 13 -4 16 -10z"/>
<path d="M11542 9857 c-38 -39 -55 -77 -34 -77 12 0 92 96 92 109 0 20 -15 11
-58 -32z"/>
<path d="M12142 9873 c2 -5 17 -32 33 -60 32 -56 55 -68 55 -30 0 27 -55 97
-77 97 -8 0 -13 -3 -11 -7z"/>
<path d="M11616 9837 c-28 -36 -34 -67 -13 -67 12 1 57 63 57 80 0 23 -21 17
-44 -13z"/>
<path d="M12060 9835 c0 -25 23 -65 37 -65 17 0 16 40 -1 63 -16 21 -36 22
-36 2z"/>
<path d="M11688 9815 c-6 -14 -8 -28 -5 -32 9 -8 47 27 47 44 0 23 -30 14 -42
-12z"/>
<path d="M10766 9152 c-11 -17 -17 -83 -11 -111 8 -38 35 -55 59 -38 18 13 25
93 12 135 -7 21 -49 32 -60 14z"/>
<path d="M10723 8778 c-37 -48 -15 -68 77 -68 81 0 100 6 100 31 0 24 -26 34
-106 43 -44 5 -64 3 -71 -6z"/>
<path d="M11948 8971 c-29 -25 -38 -41 -38 -65 0 -35 15 -56 41 -56 30 0 40
26 37 91 l-3 63 -37 -33z"/>
<path d="M12688 8969 c-52 -51 -50 -119 3 -119 30 0 40 26 37 92 l-3 63 -37
-36z"/>
<path d="M13634 8780 c-11 -4 -33 -23 -48 -41 -36 -43 -31 -91 14 -131 35 -32
93 -37 140 -13 36 19 50 43 50 87 0 74 -85 127 -156 98z m77 -40 c21 -12 26
-46 7 -52 -8 -3 -5 -14 10 -35 30 -43 6 -51 -29 -10 -29 33 -49 30 -49 -8 0
-18 -4 -23 -15 -19 -11 5 -15 22 -15 70 l0 64 36 0 c19 0 44 -5 55 -10z"/>
<path d="M13655 8720 c-4 -7 -3 -16 3 -22 14 -14 45 -2 40 15 -6 16 -34 21
-43 7z"/>
<path d="M2618 8443 c-5 -41 1 -63 19 -63 12 0 14 8 10 37 -8 48 -23 62 -29
26z"/>
<path d="M1730 8377 c0 -26 210 -154 231 -141 16 10 0 23 -73 60 -40 19 -89
49 -109 65 -41 32 -49 35 -49 16z"/>
<path d="M2130 8295 c0 -12 24 -55 32 -55 11 0 10 17 -2 41 -9 17 -30 27 -30
14z"/>
<path d="M2300 8289 c-25 -4 -65 -5 -89 -2 -34 4 -43 3 -39 -8 3 -8 21 -18 41
-24 29 -8 34 -13 27 -25 -16 -24 -11 -136 7 -181 41 -104 187 -79 209 37 8 42
-2 138 -17 166 -8 14 -7 23 2 34 11 13 5 15 -42 13 -30 -2 -74 -6 -99 -10z
m114 -31 c22 -32 40 -120 32 -162 -10 -52 -43 -86 -92 -93 -80 -10 -123 66
-103 186 10 66 16 73 71 82 70 11 76 10 92 -13z"/>
<path d="M2314 8166 c-9 -24 0 -51 18 -54 19 -4 35 38 23 57 -9 16 -35 13 -41
-3z"/>
<path d="M1755 8247 c-69 -69 -74 -212 -9 -282 22 -24 31 -27 65 -22 80 11
118 59 124 156 5 72 -21 133 -67 161 -47 28 -75 25 -113 -13z m107 -7 c78 -61
77 -224 -2 -265 -81 -42 -140 10 -140 122 0 76 21 127 59 148 36 19 54 18 83
-5z"/>
<path d="M1814 8126 c-8 -22 3 -49 19 -43 6 2 12 14 12 27 0 27 -22 39 -31 16z"/>
<path d="M2032 8108 c0 -35 -3 -85 -7 -113 -4 -28 -3 -46 1 -42 10 9 12 24 20
140 3 46 2 77 -4 77 -5 0 -10 -28 -10 -62z"/>
<path d="M2557 8066 c-3 -9 -9 -38 -13 -66 -8 -57 3 -64 35 -24 26 33 26 52 2
83 -15 20 -19 21 -24 7z m28 -36 c6 -9 -24 -64 -31 -57 -2 2 -1 18 2 35 7 32
18 40 29 22z"/>
<path d="M2455 8010 c-4 -6 3 -10 14 -10 25 0 27 6 6 13 -8 4 -17 2 -20 -3z"/>
<path d="M2070 7960 c0 -5 5 -10 10 -10 6 0 10 5 10 10 0 6 -4 10 -10 10 -5 0
-10 -4 -10 -10z"/>
<path d="M2473 7937 c6 -15 3 -17 -13 -12 -18 6 -20 2 -20 -54 0 -61 4 -68 28
-53 10 7 10 15 2 36 -12 33 -13 49 -1 42 13 -9 22 37 9 49 -8 7 -9 5 -5 -8z"/>
<path d="M1710 7836 c0 -22 3 -27 11 -19 8 8 8 16 0 30 -9 16 -10 14 -11 -11z"/>
<path d="M2080 7780 c-115 -10 -182 -30 -205 -63 -24 -35 -17 -43 13 -15 44
42 63 47 207 58 140 11 209 3 218 -23 2 -6 8 -8 13 -4 4 4 -1 17 -12 28 -26
25 -91 30 -234 19z"/>
<path d="M12576 8484 c-22 -22 -23 -250 -2 -280 12 -15 18 -17 33 -8 16 10 18
28 21 144 3 153 -9 187 -52 144z"/>
<path d="M13321 8476 c-7 -8 -11 -30 -9 -48 3 -29 7 -33 36 -36 l33 -3 -3 48
c-2 40 -7 49 -24 51 -11 2 -26 -4 -33 -12z"/>
<path d="M1521 8309 c-15 -44 -14 -48 9 -42 15 4 20 14 20 39 0 43 -15 44 -29
3z"/>
<path d="M1780 7524 c-13 -33 -13 -57 0 -49 6 4 8 10 5 15 -3 5 5 16 17 26 18
12 19 15 4 10 -13 -5 -17 -2 -12 9 3 8 3 15 0 15 -2 0 -9 -12 -14 -26z"/>
<path d="M1805 7493 c-8 -8 -15 -19 -15 -24 0 -5 -7 -9 -15 -9 -9 0 -15 -9
-14 -22 1 -17 2 -19 6 -5 5 18 23 24 23 6 0 -5 5 -7 10 -4 6 3 10 1 10 -4 0
-6 -5 -11 -12 -11 -6 0 -9 -3 -5 -6 3 -3 13 -2 22 4 16 8 16 10 -4 24 -20 14
-20 16 -4 30 10 9 27 18 38 20 19 4 18 4 -3 10 -14 4 -28 1 -37 -9z"/>
<path d="M1850 7476 c0 -4 7 -14 15 -22 8 -9 15 -11 15 -6 0 5 -7 15 -15 22
-8 7 -15 9 -15 6z"/>
<path d="M1855 7409 c-4 -6 -13 -8 -21 -5 -19 7 -18 -11 2 -22 8 -5 16 -16 18
-25 4 -30 15 -29 14 2 -1 17 -5 28 -10 25 -12 -8 -10 10 4 24 7 7 9 12 6 12
-4 0 -10 -5 -13 -11z"/>
<path d="M2353 7522 c-1 -10 5 -19 13 -19 16 0 16 0 8 21 -8 22 -19 20 -21 -2z"/>
<path d="M2303 7471 c0 -11 5 -18 9 -15 4 3 5 11 1 19 -7 21 -12 19 -10 -4z"/>
<path d="M2366 7474 c-9 -23 -4 -24 17 -2 13 14 14 18 3 18 -8 0 -17 -7 -20
-16z"/>
<path d="M2315 7430 c-3 -5 -1 -10 4 -10 6 0 11 5 11 10 0 6 -2 10 -4 10 -3 0
-8 -4 -11 -10z"/>
<path d="M2820 6731 c0 -6 4 -13 10 -16 6 -3 7 1 4 9 -7 18 -14 21 -14 7z"/>
<path d="M2752 6610 c7 -10 14 -18 15 -16 6 6 -9 36 -18 36 -5 0 -4 -9 3 -20z"/>
<path d="M2760 6485 c0 -5 5 -17 10 -25 5 -8 10 -10 10 -5 0 6 -5 17 -10 25
-5 8 -10 11 -10 5z"/>
<path d="M2047 6043 c-11 -20 -18 -67 -8 -58 11 11 26 65 18 65 -3 0 -8 -3
-10 -7z"/>
<path d="M2230 6000 c-26 -16 -4 -20 36 -6 38 14 38 15 9 15 -16 0 -37 -3 -45
-9z"/>
<path d="M1941 5907 c-5 -14 -18 -28 -28 -31 -75 -22 -133 -14 -159 22 -7 9
-15 14 -19 11 -3 -4 5 -20 19 -35 22 -26 30 -29 84 -28 66 1 106 20 117 54 10
31 -3 37 -14 7z"/>
<path d="M2240 5923 c0 -5 9 -18 20 -28 16 -14 33 -17 95 -13 53 2 79 8 85 18
17 27 10 32 -16 11 -38 -30 -129 -29 -161 1 -13 12 -23 17 -23 11z"/>
<path d="M2067 5820 c3 -41 7 -77 9 -79 9 -10 3 125 -6 139 -6 10 -7 -11 -3
-60z"/>
<path d="M1740 5829 c0 -7 -12 -25 -27 -41 -29 -31 -24 -51 6 -24 29 26 36 2
11 -39 -12 -19 -17 -35 -12 -35 5 0 13 7 16 16 3 8 10 12 16 9 5 -3 10 3 10
14 0 11 5 23 10 26 6 3 10 -4 10 -18 0 -42 13 -38 42 13 16 28 34 50 40 50 6
0 9 3 6 6 -10 10 -46 -15 -53 -36 -3 -11 -11 -20 -16 -20 -13 0 -11 34 3 48 6
6 9 14 6 17 -9 9 -37 -6 -41 -23 -3 -10 -5 -5 -6 10 -1 26 -21 51 -21 27z"/>
<path d="M2115 5691 c-3 -5 -1 -12 5 -16 5 -3 10 1 10 9 0 18 -6 21 -15 7z"/>
<path d="M2055 5680 c3 -5 8 -10 11 -10 2 0 4 5 4 10 0 6 -5 10 -11 10 -5 0
-7 -4 -4 -10z"/>
<path d="M2160 5569 c-19 -5 -79 -13 -133 -18 -98 -9 -127 -20 -127 -49 0 -13
2 -13 18 2 12 10 51 20 101 26 46 6 105 15 133 20 66 13 125 13 133 0 3 -5 14
-10 23 -10 14 1 13 4 -7 20 -25 22 -79 25 -141 9z"/>
<path d="M2965 5550 c-3 -5 -1 -10 4 -10 6 0 11 5 11 10 0 6 -2 10 -4 10 -3 0
-8 -4 -11 -10z"/>
<path d="M2734 5064 c-4 -10 -13 -34 -20 -53 -8 -18 -14 -43 -13 -55 0 -11 11
10 24 49 13 38 22 71 20 73 -3 3 -8 -4 -11 -14z"/>
<path d="M2320 3890 c0 -5 6 -10 14 -10 8 0 18 5 21 10 3 6 -3 10 -14 10 -12
0 -21 -4 -21 -10z"/>
<path d="M1760 3732 c0 -14 115 -115 173 -152 26 -16 65 -33 87 -36 39 -6 40
-6 39 22 -1 19 -3 23 -6 10 -4 -14 -11 -17 -35 -12 -30 6 -143 69 -153 86 -11
18 -105 91 -105 82z"/>
<path d="M2341 3528 c-10 -27 3 -58 24 -58 20 0 30 47 15 65 -17 21 -29 19
-39 -7z"/>
<path d="M1830 3500 c0 -5 9 -10 19 -10 33 0 33 -17 1 -29 -44 -15 -37 -24 13
-17 29 4 51 1 71 -9 16 -8 31 -13 34 -10 8 8 -29 45 -45 45 -7 0 -13 4 -13 9
0 5 -14 14 -31 20 -39 14 -49 14 -49 1z"/>
<path d="M2430 3445 c-43 -24 -107 -29 -135 -11 -33 22 -42 20 -21 -3 10 -11
29 -22 43 -26 30 -7 126 19 143 40 15 19 3 19 -30 0z"/>
<path d="M2101 3412 c-1 -17 -12 -27 -45 -42 -57 -24 -74 -52 -51 -86 18 -28
33 -30 61 -9 24 18 34 19 34 1 0 -8 5 -18 12 -22 8 -5 9 0 6 14 -5 17 -2 22
12 22 14 0 17 -5 12 -22 -3 -14 -2 -19 6 -14 7 4 12 13 12 21 0 8 13 15 33 17
29 3 32 6 32 37 0 38 -11 47 -68 56 -26 4 -41 13 -47 28 l-9 22 0 -23z m36
-57 c7 -19 5 -20 -24 -29 -18 -6 -23 -3 -23 12 0 33 35 46 47 17z m38 -5 c-3
-5 -1 -10 4 -10 6 0 11 6 11 13 0 8 4 7 10 -3 14 -22 12 -33 -5 -26 -8 3 -15
1 -15 -4 0 -6 -4 -10 -10 -10 -5 0 -10 11 -10 25 0 14 5 25 11 25 5 0 7 -4 4
-10z m-95 -32 c0 -5 -7 -8 -16 -8 -8 0 -12 -5 -8 -11 4 -7 -2 -9 -17 -7 -12 1
-24 9 -27 16 -2 7 2 10 12 6 12 -4 15 -2 10 9 -3 10 1 17 13 19 17 4 33 -8 33
-24z"/>
<path d="M1750 3395 c-9 -11 -10 -15 0 -15 6 0 11 -12 10 -27 -3 -43 2 -51 10
-18 17 67 8 94 -20 60z"/>
<path d="M2444 3393 c-10 -15 -15 -16 -33 -5 -18 10 -21 10 -21 -3 0 -8 -9
-15 -19 -15 -11 0 -23 -4 -26 -10 -10 -16 68 -12 93 6 12 8 22 12 22 7 0 -4 4
-1 9 7 10 14 6 30 -7 30 -4 0 -12 -8 -18 -17z"/>
<path d="M2435 3180 c-4 -6 -15 -8 -24 -5 -10 3 -31 -1 -47 -10 -16 -8 -37
-15 -46 -15 -10 0 -18 -5 -18 -10 0 -11 42 -4 72 11 9 5 28 9 42 9 24 0 44 16
33 26 -3 3 -8 0 -12 -6z"/>
<path d="M1960 3098 c0 -5 20 -8 45 -8 25 0 45 4 45 9 0 5 -20 8 -45 7 -25 0
-45 -4 -45 -8z"/>
<path d="M3080 3503 c0 -4 5 -15 10 -23 8 -13 10 -13 10 2 0 9 -4 20 -10 23
-5 3 -10 3 -10 -2z"/>
<path d="M14319 7663 c-198 -153 -310 -246 -306 -257 2 -6 35 -15 73 -19 38
-5 75 -15 83 -22 13 -13 10 -20 -18 -55 -21 -26 -30 -47 -26 -59 4 -14 -14
-34 -77 -87 -45 -38 -95 -84 -112 -103 -17 -18 -51 -47 -76 -64 -45 -31 -283
-239 -309 -270 -32 -39 30 -3 194 111 33 23 71 42 86 42 14 0 54 20 89 45 49
35 69 43 89 38 33 -7 31 -5 25 -30 -5 -19 -22 -29 -179 -104 -48 -23 -197
-129 -255 -181 -36 -33 -45 -58 -22 -58 9 0 107 72 147 109 41 37 116 84 123
77 3 -3 -5 -17 -18 -31 -42 -44 -1 -29 169 65 90 50 167 90 172 88 6 -2 -24
-28 -66 -58 -41 -30 -75 -61 -75 -70 0 -8 -7 -26 -16 -38 -8 -12 -13 -30 -10
-40 6 -19 -24 -46 -107 -97 -26 -17 -90 -57 -141 -90 -52 -33 -115 -72 -140
-87 l-46 -28 0 -127 0 -128 -32 -28 c-47 -41 -16 -23 80 48 118 85 171 119
178 112 10 -10 -6 -26 -64 -64 -31 -20 -80 -55 -109 -78 -29 -24 -81 -59 -116
-79 -65 -36 -100 -66 -78 -66 18 0 66 27 174 97 93 61 101 64 128 52 23 -9 39
-9 73 1 32 9 49 9 64 1 13 -7 36 -8 66 -2 25 4 47 6 50 4 2 -2 -3 -19 -12 -36
-32 -64 -9 -117 50 -117 16 0 28 -5 28 -13 0 -16 -67 -81 -140 -135 -108 -81
-322 -253 -332 -267 -9 -11 -11 -85 -3 -85 5 0 39 22 100 63 60 41 233 145
251 151 12 3 29 15 39 26 10 11 26 20 36 20 24 0 75 31 183 109 75 55 95 65
127 64 22 -1 42 4 49 13 7 8 19 14 26 14 12 0 14 141 14 890 0 490 -1 890 -3
890 -2 0 -37 -26 -78 -57z"/>
<path d="M13955 6915 c-16 -13 -25 -24 -19 -25 6 0 21 11 34 25 30 32 24 32
-15 0z"/>
<path d="M13179 6023 c-13 -15 -12 -15 9 -4 23 12 28 21 13 21 -5 0 -15 -7
-22 -17z"/>
<path d="M13104 5972 c-23 -15 -50 -32 -60 -38 -11 -7 -17 -14 -14 -17 6 -7
114 60 118 73 5 14 2 13 -44 -18z"/>
<path d="M13325 5960 c-3 -5 -2 -10 4 -10 5 0 13 5 16 10 3 6 2 10 -4 10 -5 0
-13 -4 -16 -10z"/>
<path d="M14345 5853 c-22 -19 -81 -66 -131 -104 -50 -38 -96 -75 -103 -83
-16 -19 2 -30 28 -17 10 6 47 21 82 34 35 12 90 43 121 67 56 44 58 47 58 93
0 26 -3 47 -7 47 -5 -1 -26 -17 -48 -37z"/>
<path d="M14286 5678 c-51 -46 -132 -116 -180 -157 -47 -41 -86 -80 -86 -87 0
-20 28 -17 66 7 19 11 42 18 52 15 13 -4 45 11 98 46 63 42 87 52 122 53 l42
0 0 103 c0 60 -4 102 -10 102 -5 0 -52 -37 -104 -82z m-111 -188 c-10 -11 -21
-17 -24 -14 -3 3 3 12 13 20 28 20 32 17 11 -6z"/>
<path d="M12721 4928 c-94 -70 -107 -83 -87 -86 14 -2 35 3 48 10 35 20 188
129 188 134 0 6 -13 -1 -50 -26 -52 -35 -64 -29 -20 10 25 22 42 40 39 40 -4
0 -56 -37 -118 -82z"/>
<path d="M14325 4864 c-38 -30 -102 -80 -142 -110 -63 -49 -133 -122 -133
-138 0 -3 11 -6 24 -6 13 0 29 -7 36 -15 18 -22 28 -19 90 24 31 22 70 43 87
48 17 4 49 25 72 46 l42 38 -3 83 -3 84 -70 -54z"/>
<path d="M14379 4414 c-7 -9 -38 -33 -69 -54 -30 -21 -88 -72 -129 -114 -45
-45 -86 -78 -103 -81 -16 -4 -40 -22 -56 -42 -15 -20 -46 -55 -68 -77 -23 -23
-44 -51 -48 -62 -3 -11 -27 -37 -52 -58 -25 -21 -43 -40 -41 -42 2 -3 31 9 63
26 81 43 206 143 359 288 17 16 36 32 43 36 31 18 -9 -31 -76 -94 -131 -122
-227 -209 -255 -230 -15 -12 -32 -31 -38 -42 -10 -19 -9 -20 17 -14 44 11 134
74 144 101 5 14 14 25 20 25 5 0 46 32 90 71 64 56 86 70 108 67 20 -2 27 -9
27 -25 1 -33 9 -36 49 -12 l36 21 0 164 c0 90 -2 164 -4 164 -2 0 -10 -7 -17
-16z"/>
<path d="M14370 4060 c-8 -5 -24 -10 -35 -10 -13 0 -35 -21 -59 -55 -21 -30
-68 -83 -104 -119 -65 -65 -78 -94 -28 -60 31 19 42 14 28 -13 -10 -16 -109
-103 -157 -137 -35 -25 -7 -30 39 -8 24 12 46 22 50 22 9 0 95 38 126 55 25
14 58 30 133 62 l37 16 0 129 c0 70 -3 128 -7 128 -5 0 -15 -5 -23 -10z m-34
-116 c-15 -14 -31 -22 -35 -19 -3 4 7 17 24 30 38 31 49 21 11 -11z"/>
<path d="M13797 3863 c-4 -3 -7 -11 -7 -17 0 -6 5 -5 12 2 6 6 9 14 7 17 -3 3
-9 2 -12 -2z"/>
<path d="M13890 3790 c-23 -19 -29 -29 -19 -30 8 0 28 14 44 30 37 39 20 39
-25 0z"/>
<path d="M13796 3724 c-4 -9 -4 -19 -1 -23 8 -7 38 12 43 27 6 19 -35 14 -42
-4z"/>
<path d="M14123 3664 c-18 -8 -33 -21 -33 -29 0 -21 10 -18 50 15 37 33 33 36
-17 14z"/>
<path d="M8261 543 c-22 -4 -111 -88 -111 -105 0 -22 113 5 148 35 12 11 22
28 22 37 0 16 -19 41 -29 39 -4 -1 -17 -4 -30 -6z"/>
<path d="M8020 342 c-182 -146 -234 -189 -363 -304 l-42 -37 216 -1 215 0 23
31 c13 18 71 83 130 146 58 63 114 128 124 144 18 27 18 29 2 29 -18 0 -215
-81 -300 -123 -27 -14 -61 -28 -75 -32 -58 -17 17 32 130 85 120 55 140 67
140 81 0 13 -24 11 -56 -5 -33 -18 -61 -7 -66 25 -3 19 -11 14 -78 -39z"/>
<path d="M6765 328 c-36 -21 -340 -328 -325 -328 9 0 54 37 101 83 47 45 110
105 140 133 111 105 142 145 84 112z"/>
<path d="M8493 273 c-7 -2 -13 -11 -13 -20 0 -20 34 -12 38 10 3 17 -3 20 -25
10z"/>
<path d="M8400 191 c-19 -16 -33 -32 -29 -35 6 -7 79 44 79 56 0 15 -15 8 -50
-21z"/>
<path d="M8510 133 c-26 -18 -43 -32 -94 -74 -17 -14 -42 -33 -56 -42 l-24
-17 39 0 c35 1 48 8 109 66 40 39 64 70 59 75 -5 5 -19 2 -33 -8z"/>
<path d="M8354 110 c-34 -17 -80 -48 -103 -70 l-41 -40 49 0 c44 0 54 5 93 40
23 23 58 51 75 63 68 46 18 51 -73 7z"/>
<path d="M8960 10 c-13 -8 -12 -10 3 -10 9 0 17 5 17 10 0 12 -1 12 -20 0z"/>
</g>
</svg>
