<?xml version="1.0" standalone="no"?>
<!DOCTYPE svg PUBLIC "-//W3C//DTD SVG 20010904//EN"
 "http://www.w3.org/TR/2001/REC-SVG-20010904/DTD/svg10.dtd">
<svg version="1.0" xmlns="http://www.w3.org/2000/svg"
 width="1440.000000pt" height="1040.000000pt" viewBox="0 0 1440.000000 1040.000000"
 preserveAspectRatio="xMidYMid meet">

<g transform="translate(0.000000,1040.000000) scale(0.100000,-0.100000)"
fill="#000000" stroke="none">
<path d="M0 5200 l0 -5200 2750 0 c2323 0 2750 2 2757 14 4 7 29 38 55 67 265
302 263 299 238 299 -5 0 -64 -54 -130 -120 -67 -66 -123 -120 -125 -120 -18
0 6 33 79 108 157 163 236 265 194 250 -7 -3 -44 -15 -81 -29 -53 -18 -76 -32
-99 -61 -32 -41 -48 -48 -48 -22 0 9 -9 18 -20 21 -23 6 -25 16 -8 43 21 32
-8 69 -81 103 l-64 30 -39 -22 c-21 -12 -74 -48 -116 -80 -110 -83 -128 -93
-154 -89 -22 3 -21 4 14 43 20 22 53 46 75 54 21 8 64 33 96 57 157 120 177
136 177 145 0 5 25 25 55 45 31 19 69 54 85 77 68 98 101 135 135 151 19 9 56
38 82 64 27 26 65 62 86 80 31 27 37 39 37 72 0 22 -5 40 -11 40 -6 0 -64 -37
-130 -82 -66 -46 -144 -97 -172 -114 -29 -16 -72 -44 -96 -62 -24 -18 -69 -44
-100 -58 -31 -15 -78 -42 -106 -60 -27 -19 -56 -34 -63 -34 -26 0 57 69 203
168 154 103 272 203 261 220 -7 12 22 38 100 91 34 22 93 71 131 108 39 38 90
81 114 96 131 84 351 241 479 341 30 23 91 66 135 95 44 29 118 92 165 140 47
47 121 121 165 162 76 72 115 123 103 134 -11 11 -144 -68 -253 -150 -118 -88
-220 -156 -300 -200 -27 -15 -68 -40 -90 -56 -93 -68 -248 -169 -252 -165 -2
2 35 35 83 73 48 37 99 79 113 93 26 25 127 101 201 150 39 27 185 133 235
172 23 18 26 24 12 26 -9 2 -29 -6 -45 -18 -37 -29 -181 -120 -190 -120 -4 -1
-23 -14 -42 -30 -19 -17 -40 -30 -46 -30 -7 0 -30 -15 -52 -33 -22 -19 -54
-40 -71 -47 -17 -7 -31 -16 -31 -20 0 -4 -26 -20 -57 -35 -70 -32 -117 -63
-203 -131 -36 -28 -113 -83 -171 -123 -58 -39 -118 -85 -134 -101 -28 -29 -55
-39 -55 -21 0 17 114 111 255 211 50 34 99 72 111 84 63 63 116 106 169 140
90 57 126 86 120 97 -7 11 -69 -19 -145 -71 -30 -21 -77 -47 -104 -60 -28 -12
-90 -48 -139 -79 -49 -31 -105 -65 -123 -76 -19 -11 -50 -33 -69 -49 -19 -16
-45 -36 -59 -45 -13 -9 -39 -28 -58 -42 -18 -14 -46 -31 -62 -38 -27 -11 -28
-11 -15 5 7 9 32 28 54 42 86 53 143 103 165 146 17 35 38 54 89 84 150 89
255 156 567 365 316 213 414 287 414 313 0 25 -30 22 -92 -10 -106 -56 -218
-129 -488 -322 -165 -117 -360 -248 -424 -283 -44 -25 -61 -30 -66 -21 -12 20
-62 5 -148 -45 -72 -41 -149 -74 -257 -109 -22 -8 -48 -17 -57 -21 -14 -5 -18
-2 -18 14 0 12 -6 21 -12 21 -7 0 6 18 30 40 23 21 42 48 42 60 0 11 6 20 13
20 10 0 182 73 262 111 12 6 65 44 118 85 91 70 117 104 82 104 -44 0 8 42
175 139 69 40 136 82 150 92 14 10 45 31 70 46 102 61 298 196 340 234 227
210 273 265 153 184 -29 -19 -56 -35 -60 -35 -4 0 -30 -15 -58 -34 -27 -19
-95 -63 -150 -98 -55 -36 -164 -106 -242 -156 -78 -51 -144 -92 -148 -92 -3 0
-18 -9 -33 -19 -65 -46 -449 -285 -572 -356 -74 -43 -145 -85 -157 -93 -50
-32 -18 1 60 62 45 35 102 86 127 111 25 26 63 61 85 77 22 16 74 58 115 93
212 182 369 304 504 393 47 32 125 99 186 162 59 60 139 130 183 160 43 28 88
62 99 75 11 13 57 47 102 74 44 28 95 63 111 79 25 23 154 114 365 257 103 70
251 177 390 284 36 28 126 91 200 142 74 50 150 104 168 120 18 16 37 29 42
29 6 0 27 15 47 34 21 18 58 46 83 61 25 15 68 47 95 70 28 23 88 68 135 100
47 32 110 81 141 109 31 28 64 57 73 64 18 14 13 32 -8 32 -7 0 -62 -35 -122
-78 -109 -77 -125 -90 -193 -147 -20 -17 -81 -61 -136 -98 -55 -37 -176 -125
-268 -197 -146 -113 -174 -130 -205 -130 -30 0 -63 -17 -167 -86 -72 -47 -143
-98 -160 -113 -46 -43 -118 -89 -145 -93 -14 -1 -30 -14 -37 -28 -16 -33 -50
-60 -75 -60 -11 0 -28 -10 -39 -22 -10 -13 -18 -17 -19 -10 0 20 -27 14 -54
-13 -14 -14 -33 -25 -42 -25 -9 0 -31 -12 -50 -27 -71 -59 -93 -73 -147 -93
-31 -12 -59 -26 -62 -31 -11 -17 -155 -110 -155 -100 0 6 8 15 19 20 10 6 51
37 90 71 40 33 86 68 102 77 35 21 35 49 0 45 -24 -2 -32 -8 -145 -97 -66 -53
-86 -64 -86 -47 0 12 191 168 380 310 24 17 47 32 52 32 8 0 37 21 232 172 65
50 90 78 69 78 -5 0 -56 -31 -114 -68 -119 -79 -166 -105 -180 -100 -6 2 34
33 88 70 54 37 126 89 160 117 35 28 100 76 145 107 46 31 104 78 130 104 43
44 136 118 183 147 101 60 185 116 196 130 19 22 206 163 217 163 4 0 19 14
32 32 19 26 21 34 11 50 -10 16 -6 26 25 63 20 25 40 45 44 45 10 0 226 192
270 240 19 21 64 53 100 70 36 18 113 68 172 111 59 44 109 79 112 79 25 0
270 136 390 216 82 54 163 107 180 117 17 11 54 36 81 56 28 21 61 43 75 50
41 22 127 76 453 292 579 381 662 437 692 464 38 33 275 195 286 195 5 0 26
15 46 34 21 18 71 54 111 80 41 26 84 58 95 71 12 14 40 30 62 37 29 10 41 19
43 36 3 19 9 22 52 22 60 0 80 7 80 29 0 19 -8 15 216 139 99 55 199 111 224
125 25 14 72 33 105 42 33 10 69 21 80 25 11 5 45 16 75 26 30 10 70 29 89 43
18 15 47 36 65 49 29 21 76 94 76 118 0 6 26 38 58 71 57 60 58 60 146 77 75
14 111 26 170 54 5 3 6 -1 2 -7 -14 -21 4 -71 25 -71 10 0 19 5 19 10 0 6 5
10 11 10 17 0 0 -19 -57 -61 -40 -29 -54 -46 -54 -64 0 -43 41 -43 99 -2 36
26 52 32 60 24 17 -17 13 -31 -15 -58 -16 -15 -23 -31 -20 -43 3 -11 -5 -32
-19 -50 -26 -34 -53 -121 -42 -132 4 -4 25 6 47 22 22 16 129 95 238 175 108
80 217 158 242 173 l45 28 -36 -34 c-19 -18 -117 -98 -217 -178 -100 -79 -182
-150 -182 -156 0 -21 47 -24 146 -9 55 9 176 18 269 22 l170 5 87 59 c48 32
129 89 180 127 51 37 114 83 140 101 27 17 48 36 48 40 0 5 48 39 108 75 59
37 127 82 152 101 54 41 57 41 63 13 2 -13 5 538 6 1225 l1 1247 -7200 0
-7200 0 0 -5200z m12463 4975 c252 -62 441 -209 568 -440 16 -29 29 -56 29
-59 0 -3 -375 -6 -834 -6 l-834 0 38 73 c77 147 222 288 380 368 36 18 112 45
170 60 147 39 339 40 483 4z m1388 -745 c22 -12 27 -78 7 -98 -9 -9 -385 -12
-1629 -12 l-1618 0 -15 22 c-21 30 -20 54 4 78 20 20 33 20 1626 20 1087 0
1612 -3 1625 -10z m-3694 -190 c19 -91 36 -172 39 -180 4 -8 12 11 20 45 7 33
26 115 41 183 l27 122 77 0 76 0 6 -112 c4 -62 7 -207 7 -321 l0 -208 -52 3
-53 3 -2 50 c-1 28 -2 117 -2 200 -1 86 -5 145 -10 140 -5 -6 -23 -86 -41
-180 -45 -241 -35 -217 -89 -213 l-46 3 -39 197 c-22 109 -42 195 -45 192 -3
-3 -8 -92 -11 -197 l-5 -192 -52 -3 -53 -3 0 154 c0 85 3 229 7 321 l6 167 81
-3 80 -3 33 -165z m1211 -15 c16 -34 17 -32 -23 -45 -34 -11 -35 -13 -28 -48
18 -87 0 -141 -61 -186 -23 -17 -42 -21 -112 -21 -56 1 -85 -3 -88 -11 -9 -23
18 -32 123 -43 119 -11 147 -26 170 -86 13 -32 13 -43 0 -79 -11 -34 -23 -45
-63 -65 -40 -20 -64 -24 -135 -24 -97 0 -150 17 -176 56 -21 32 -11 70 24 100
l27 22 -28 27 c-35 33 -36 67 -3 107 l26 30 -21 33 c-27 45 -27 129 0 173 11
18 37 41 58 51 50 24 150 24 186 0 26 -17 28 -16 57 8 38 33 53 33 67 1z
m1053 -10 c49 -26 57 -60 61 -263 l3 -183 -60 3 c-58 3 -60 4 -65 33 l-5 29
-17 -26 c-10 -15 -27 -30 -39 -33 -19 -6 -17 -9 18 -25 52 -23 80 -61 89 -116
3 -25 5 -47 3 -48 -2 -2 -32 -7 -66 -11 l-63 -7 0 34 c0 40 -15 58 -47 58 -27
0 -45 -35 -36 -71 7 -31 34 -60 111 -121 79 -64 115 -122 116 -192 0 -65 -26
-113 -80 -144 -33 -19 -51 -22 -116 -20 -58 2 -83 8 -105 24 -32 23 -70 94
-75 139 -3 29 -2 30 59 41 69 12 64 15 78 -54 11 -53 75 -69 90 -21 13 41 -6
78 -68 132 -112 96 -145 135 -155 183 -11 50 -2 102 22 139 20 30 85 65 123
65 l27 0 -32 28 c-57 48 -60 127 -6 183 15 16 58 41 96 56 l69 28 -3 40 c-3
35 -6 40 -28 40 -19 0 -26 -7 -34 -32 -8 -31 -12 -33 -52 -33 -23 0 -49 3 -58
6 -36 14 -4 109 46 135 59 32 142 33 199 4z m739 0 c52 -27 58 -52 62 -258 l3
-188 -60 3 c-58 3 -60 4 -63 32 l-4 28 -27 -33 c-71 -85 -206 -4 -180 109 11
50 53 88 131 119 l69 28 -3 40 c-3 35 -6 40 -27 40 -19 0 -27 -7 -33 -32 -8
-31 -11 -33 -56 -33 -26 0 -53 4 -61 9 -18 12 -7 70 20 105 40 51 159 67 229
31z m-2480 -169 c0 -119 4 -187 11 -191 5 -4 21 -4 35 -1 l24 6 0 185 0 185
70 0 70 0 0 -230 0 -230 -70 0 c-64 0 -70 2 -70 20 0 19 -1 20 -24 5 -41 -27
-88 -36 -124 -24 -56 18 -62 44 -62 264 l0 195 70 0 70 0 0 -184z m870 -46 l0
-230 -65 0 -65 0 0 230 0 230 65 0 65 0 0 -230z m195 110 c10 -66 20 -118 23
-116 2 3 12 56 21 118 l16 113 50 0 50 0 16 -120 c9 -66 18 -122 19 -125 1 -3
10 46 20 109 10 62 21 120 24 127 4 9 22 14 56 14 l50 0 -6 -42 c-4 -24 -21
-126 -38 -228 l-31 -185 -57 -3 c-65 -3 -58 -15 -84 136 -9 56 -20 100 -23 96
-3 -3 -15 -56 -26 -117 l-20 -112 -60 0 -60 0 -27 175 c-15 96 -30 199 -34
228 l-7 52 55 0 56 0 17 -120z m965 84 l0 -35 34 35 c24 26 42 36 65 36 l31 0
0 -60 0 -60 -42 0 c-29 0 -49 -7 -65 -22 -22 -21 -23 -28 -23 -170 l0 -148
-70 0 -70 0 0 230 0 230 70 0 70 0 0 -36z m1377 -395 c15 -5 40 -22 55 -36 80
-76 16 -203 -103 -203 -143 0 -192 173 -66 231 48 21 74 23 114 8z m-1437
-159 l0 -70 35 0 c34 0 35 -1 35 -40 0 -39 -1 -40 -35 -40 l-35 0 0 -129 c0
-139 2 -145 51 -143 28 1 29 -1 29 -48 l0 -48 -40 -7 c-61 -10 -120 3 -152 35
l-28 28 0 156 0 156 -25 0 c-22 0 -25 4 -25 40 0 36 3 40 25 40 24 0 25 2 25
70 l0 70 70 0 70 0 0 -70z m417 -85 c13 -9 33 -30 44 -48 18 -29 19 -47 17
-174 -3 -142 -3 -142 -33 -173 -36 -38 -93 -54 -167 -47 -68 6 -112 34 -133
84 -16 37 -21 211 -9 272 8 39 54 87 97 101 44 13 154 4 184 -15z m414 13 c-1
-5 -1 -32 -1 -61 l0 -53 -33 4 c-25 3 -41 -2 -61 -20 l-28 -24 1 -147 2 -147
-71 0 -70 0 0 225 0 225 71 0 71 0 -4 -30 c-6 -37 1 -38 33 -4 13 14 33 30 44
35 23 9 46 8 46 -3z m290 2 c19 -5 48 -24 65 -41 26 -27 29 -38 33 -110 l3
-79 -101 0 -101 0 0 -59 c0 -62 14 -86 47 -79 13 2 19 14 21 46 l3 42 65 0 64
0 0 -40 c0 -85 -47 -130 -145 -138 -88 -7 -148 21 -175 80 -24 54 -28 239 -6
292 33 80 124 114 227 86z m-10023 -494 c35 -2 66 -7 69 -10 4 -3 17 -6 30 -6
44 0 263 -83 398 -151 22 -11 73 -49 114 -84 41 -35 77 -63 81 -60 16 10 132
-120 220 -245 l95 -135 42 -170 c24 -93 43 -186 43 -205 0 -19 4 -52 9 -73 11
-44 11 -44 -26 10 -15 23 -54 69 -86 103 -66 69 -80 103 -71 172 7 52 -1 98
-17 98 -7 0 -9 -32 -7 -90 3 -79 1 -88 -12 -74 -11 11 -15 38 -15 104 0 119
-19 138 -23 22 -2 -47 -4 -88 -6 -89 -2 -2 -11 -1 -20 3 -15 6 -17 18 -12 95
4 48 2 90 -2 93 -5 3 -9 -7 -9 -22 -1 -46 -15 -142 -22 -142 -3 0 -14 7 -24
15 -16 12 -18 23 -12 86 5 63 -8 149 -21 136 -3 -2 0 -17 6 -32 8 -21 7 -47
-2 -97 -7 -37 -15 -68 -18 -68 -3 0 -27 13 -53 30 -45 28 -47 31 -42 67 2 21
0 45 -6 53 -9 12 -10 10 -6 -9 3 -12 1 -33 -5 -46 l-10 -22 -41 20 c-23 11
-58 28 -78 38 -19 9 -53 21 -74 25 -21 4 -53 15 -69 25 -17 10 -71 27 -121 39
-49 11 -121 28 -160 37 -38 9 -88 20 -110 23 -22 4 -49 10 -60 14 -13 5 -11 2
5 -8 14 -8 37 -15 51 -16 15 0 55 -9 90 -19 35 -11 84 -22 109 -26 84 -12 176
-44 199 -69 18 -19 22 -33 19 -64 -2 -22 0 -38 4 -36 5 3 8 25 8 49 0 31 4 43
13 41 6 -3 24 -7 38 -10 14 -3 38 -15 54 -28 15 -12 39 -23 52 -24 13 -2 57
-23 96 -47 40 -24 107 -64 150 -88 136 -76 250 -183 324 -303 14 -23 51 -66
82 -96 39 -38 63 -70 74 -102 8 -26 29 -67 45 -90 66 -96 98 -189 129 -373 25
-145 24 -494 -1 -585 -38 -137 -123 -302 -202 -389 -24 -27 -75 -68 -112 -92
-37 -23 -96 -63 -132 -89 -82 -60 -167 -103 -280 -141 -161 -54 -260 -70 -457
-76 -101 -3 -183 -3 -183 0 0 11 97 151 116 168 11 9 35 20 54 24 53 11 114
50 158 101 l39 46 17 -26 c18 -29 62 -37 52 -10 -5 14 18 151 27 161 2 2 17
-3 33 -12 16 -8 48 -17 73 -21 35 -5 40 -9 27 -16 -10 -6 -29 -7 -43 -3 -18 4
-24 2 -21 -7 3 -7 16 -14 31 -16 31 -4 117 32 117 48 0 6 -4 9 -10 5 -28 -17
-85 85 -100 180 -10 65 -10 155 0 155 7 0 66 -90 86 -134 10 -20 22 -36 27
-36 6 0 8 74 4 198 -9 308 -49 501 -145 697 -56 113 -168 286 -232 358 -47 53
-200 165 -300 219 -210 114 -489 180 -668 158 -43 -6 -133 -17 -202 -25 -147
-18 -259 -50 -390 -111 -114 -54 -170 -88 -275 -170 -85 -66 -216 -194 -199
-194 5 0 15 5 22 12 16 16 15 5 -2 -35 -17 -40 -78 -99 -226 -217 -144 -115
-222 -189 -214 -201 3 -6 12 -8 20 -5 10 4 14 -3 14 -24 0 -21 5 -30 16 -30
12 0 15 7 12 29 -4 30 -4 30 71 47 42 9 101 20 132 23 l57 7 -97 -94 c-53 -52
-126 -112 -163 -134 -38 -22 -68 -44 -68 -48 0 -4 31 -11 68 -15 58 -6 78 -3
140 19 l73 25 -18 -30 c-24 -42 -74 -84 -133 -114 -28 -14 -50 -27 -50 -30 0
-11 92 -56 165 -80 118 -40 126 -46 113 -92 -53 -193 147 -461 317 -423 29 7
36 4 48 -14 12 -18 11 -25 -5 -51 -10 -16 -18 -47 -18 -69 0 -38 0 -38 -34
-32 -39 8 -211 78 -302 124 -34 17 -72 46 -88 66 -15 20 -51 48 -79 62 -86 43
-151 98 -213 181 -32 43 -85 109 -117 148 -68 81 -76 95 -123 218 -79 204 -95
279 -100 462 -7 241 49 487 148 653 39 65 122 159 148 167 10 3 21 17 24 30 6
24 88 95 110 95 6 0 17 9 24 20 18 29 195 143 284 184 40 18 115 48 165 66 51
18 90 36 87 41 -7 12 46 86 98 135 129 123 411 315 438 299 6 -3 23 3 39 14
35 25 197 71 296 83 37 5 515 0 603 -6z m-462 -982 l52 -7 -18 -31 c-44 -75
-55 -142 -55 -336 0 -162 3 -195 23 -265 21 -75 127 -305 141 -305 3 0 6 75 7
168 0 182 11 237 73 374 53 118 164 287 189 288 7 0 30 -9 52 -20 42 -21 48
-36 84 -195 46 -208 57 -323 46 -471 -9 -108 -37 -273 -55 -316 -11 -28 17
-22 47 10 15 15 42 53 61 85 l35 57 7 -45 c10 -67 -4 -148 -41 -252 -19 -51
-31 -93 -28 -93 3 0 31 23 63 50 32 28 62 50 68 50 15 0 -2 -102 -41 -242 -19
-67 -37 -141 -41 -163 l-6 -40 23 30 c13 17 42 49 66 73 52 52 82 54 122 12
49 -52 49 -142 1 -250 -24 -54 -112 -143 -162 -164 -78 -32 -179 -30 -179 5 0
6 15 29 34 50 18 22 55 81 82 130 46 88 128 189 152 189 17 0 30 -60 21 -94
-9 -29 -5 -45 7 -33 13 12 16 95 5 116 -35 64 -122 -21 -231 -227 -65 -123
-240 -254 -380 -286 -61 -14 -237 -30 -427 -40 -82 -4 -99 3 -74 30 20 22 29
74 20 109 -6 19 -14 35 -19 35 -6 0 -10 5 -10 12 0 19 -62 78 -82 78 -10 0
-18 6 -18 13 0 16 -52 67 -68 67 -15 0 -16 16 -2 25 6 4 33 41 62 83 28 42 73
100 100 129 26 28 48 57 48 63 0 21 -58 70 -84 70 -19 0 -60 -35 -169 -145
-142 -143 -144 -145 -162 -125 -10 11 -23 20 -28 20 -6 0 0 -11 13 -25 l24
-25 -40 -42 c-21 -22 -30 -35 -19 -27 11 8 72 68 134 134 124 131 228 225 246
225 20 0 65 -40 65 -58 0 -9 -17 -33 -38 -52 -20 -20 -70 -84 -110 -142 -40
-58 -82 -114 -92 -123 -11 -10 -20 -23 -20 -28 0 -6 10 -1 23 11 13 12 29 22
37 22 38 0 79 -77 50 -95 -5 -3 -10 -11 -10 -16 0 -5 13 0 29 12 24 17 32 19
50 9 30 -15 45 -58 29 -78 -11 -13 -10 -14 10 -8 18 6 24 2 33 -21 17 -44 -5
-97 -69 -167 -31 -34 -74 -84 -95 -109 -40 -49 -100 -87 -139 -87 -21 0 -21 1
7 19 36 23 113 101 99 101 -5 0 -28 -18 -49 -41 -59 -61 -102 -79 -183 -79
l-69 0 -144 -162 c-79 -88 -196 -211 -259 -271 -63 -61 -97 -96 -75 -80 52 40
312 304 407 413 53 61 82 86 101 88 19 2 27 -1 27 -12 0 -22 -88 -188 -143
-271 -87 -130 -139 -176 -272 -243 -66 -33 -191 -103 -278 -155 -86 -52 -178
-100 -202 -107 -104 -29 -149 22 -149 170 0 137 35 193 191 302 87 61 263 199
333 261 89 79 242 233 260 262 32 52 52 124 45 165 -9 55 14 101 76 150 30 23
60 52 68 64 9 11 -9 0 -38 -26 -29 -27 -58 -48 -65 -48 -30 0 -121 152 -150
250 -39 132 -117 622 -102 638 3 3 16 -8 28 -24 39 -49 90 -104 98 -104 4 0
10 60 14 133 6 117 46 360 64 393 4 7 8 -45 9 -114 1 -70 6 -138 11 -152 9
-23 11 -20 17 28 4 30 13 59 20 65 7 6 10 19 7 29 -2 9 5 34 16 55 11 21 23
50 26 64 3 15 17 31 32 38 31 14 30 15 47 -34 8 -21 21 -43 30 -49 19 -12 67
3 136 43 55 32 62 60 32 120 -12 22 -21 43 -21 45 0 5 94 56 102 56 2 0 2 -26
0 -59 -3 -47 -7 -58 -20 -57 -9 0 -18 -7 -20 -16 -2 -11 3 -18 13 -18 10 0 13
5 9 12 -4 7 -3 8 4 4 7 -4 12 -20 12 -36 0 -28 -8 -34 -137 -98 -76 -38 -160
-83 -187 -100 -28 -18 -58 -32 -68 -32 -10 0 -18 -5 -18 -10 0 -13 62 12 111
45 20 13 95 53 167 89 127 63 130 65 137 43 8 -22 8 -22 12 3 3 21 22 34 104
73 118 56 134 76 100 131 -30 48 -88 97 -106 90 -25 -10 -17 9 41 102 60 97
104 153 175 226 48 51 54 53 145 42z m-370 -76 c-37 -58 -88 -203 -93 -268
l-6 -69 -116 -60 c-64 -33 -138 -76 -166 -95 -27 -20 -53 -36 -57 -36 -12 0
76 149 133 225 31 41 76 96 101 122 51 55 208 203 214 203 2 0 -2 -10 -10 -22z
m35 -319 c25 -13 79 -87 79 -108 0 -23 -183 -132 -197 -117 -2 2 1 24 8 50 9
38 14 44 26 35 10 -9 17 -9 25 -1 15 15 1 45 -17 38 -20 -7 -19 2 6 63 22 52
35 59 70 40z m-234 -155 c13 -21 23 -45 23 -52 0 -31 -153 -103 -174 -82 -10
10 -38 92 -33 96 14 14 144 83 152 81 5 -2 20 -21 32 -43z m-589 -850 c12 -8
29 -28 37 -44 18 -35 19 -48 3 -32 -7 7 -27 12 -46 12 -28 0 -35 -5 -47 -34
-11 -25 -12 -42 -4 -70 14 -51 21 -45 14 12 -8 59 9 88 47 79 52 -13 67 -38
93 -145 24 -101 48 -160 87 -215 11 -16 18 -31 14 -34 -3 -3 -26 -5 -52 -5
-156 4 -307 233 -260 395 27 93 62 118 114 81z m1627 -723 c3 -5 9 -30 14 -54
l8 -45 -74 -11 c-41 -6 -88 -11 -105 -11 -29 0 -26 4 53 64 89 68 94 71 104
57z m-350 -110 c-20 -57 -19 -100 1 -108 9 -3 75 0 148 7 161 15 221 6 261
-42 63 -75 154 -330 124 -348 -17 -11 -197 -22 -279 -18 -64 3 -65 4 -65 31 1
15 -3 27 -7 27 -4 0 -8 -14 -8 -31 0 -24 -4 -30 -17 -27 -10 2 -19 14 -21 28
-6 40 -22 48 -22 12 0 -30 -2 -32 -35 -32 -102 0 -427 67 -505 104 -49 23 -75
61 -126 188 l-27 67 71 84 70 84 174 7 c95 4 193 11 218 15 25 4 48 4 53 1 4
-4 1 -26 -8 -49z m104 8 c-8 -11 -17 -20 -21 -20 -5 1 -18 1 -30 1 -19 0 -17
3 12 19 47 25 55 25 39 0z m-799 -699 c74 -11 141 -20 148 -20 13 0 15 -33 6
-104 l-7 -46 -51 1 c-28 0 -73 4 -101 9 -27 4 -53 5 -56 2 -4 -4 -10 -40 -13
-80 l-7 -74 30 23 c23 17 38 21 68 16 80 -13 137 -126 135 -267 -2 -160 -68
-250 -184 -250 -112 1 -191 85 -200 215 l-3 40 44 -3 c56 -4 67 -13 75 -61 7
-44 44 -81 82 -81 74 0 110 162 53 234 -33 42 -84 30 -117 -29 -9 -16 -13 -15
-56 14 -37 25 -45 37 -41 54 9 39 34 249 40 340 4 48 10 87 13 87 4 0 68 -9
142 -20z m1365 -147 c26 -82 57 -166 69 -188 20 -38 21 -52 19 -307 -1 -205
-6 -300 -22 -410 -11 -79 -23 -169 -27 -201 -8 -67 4 -247 16 -247 5 0 6 16 3
37 -8 46 9 38 39 -20 19 -38 20 -53 15 -180 -5 -127 -4 -140 14 -158 23 -23
33 -24 49 -4 29 35 41 -20 16 -78 -16 -38 -42 -67 -61 -67 -7 0 -35 16 -60 36
-57 43 -70 39 -19 -5 34 -31 35 -33 18 -47 -66 -51 -90 -44 -154 48 -27 39
-50 68 -50 64 0 -9 36 -75 56 -103 14 -20 14 -22 -7 -28 -33 -11 -61 10 -109
81 -24 35 -45 64 -47 64 -10 0 1 -24 33 -70 33 -48 34 -51 12 -44 -37 11 -88
55 -94 81 -6 23 54 159 119 268 13 22 27 58 32 80 16 86 -4 589 -30 725 -25
137 -35 224 -33 290 2 57 -2 74 -34 140 -20 41 -57 106 -81 144 -35 53 -44 74
-37 87 12 22 133 113 185 139 22 11 59 20 81 20 l42 0 47 -147z m-879 78 c22
-10 55 -36 72 -57 51 -62 81 -181 45 -178 -7 1 -31 2 -53 3 -37 1 -40 3 -50
42 -21 79 -87 106 -129 53 -22 -28 -51 -113 -51 -148 0 -19 0 -19 23 2 53 49
140 32 202 -41 82 -96 84 -246 5 -354 -99 -135 -284 -95 -332 71 -18 61 -14
285 7 381 17 80 52 163 83 199 41 46 112 57 178 27z m-524 -1088 l97 -6 -14
-26 c-13 -26 -18 -27 -177 -44 -90 -9 -170 -16 -178 -15 -8 1 -40 0 -70 -1
-47 -2 -51 -4 -27 -11 55 -17 220 -18 315 -3 52 8 100 12 108 9 17 -7 19 -56
2 -56 -122 -3 -431 -70 -462 -101 -13 -12 20 -12 64 1 54 16 323 60 364 60 21
0 38 -5 40 -12 7 -24 44 -223 43 -224 -1 -1 -49 2 -107 8 -116 10 -226 32
-247 50 -7 6 -16 8 -20 4 -11 -11 30 -34 82 -47 28 -6 73 -23 100 -37 l50 -26
-55 -7 c-55 -8 -157 -45 -148 -54 3 -3 29 -1 59 4 30 5 83 15 119 21 l65 11
30 -37 c17 -20 49 -58 73 -85 23 -27 42 -57 42 -67 0 -9 -10 -37 -21 -62 -17
-39 -38 -68 -118 -164 -15 -18 -15 -18 4 -8 11 6 33 24 49 41 31 32 46 39 46
21 0 -6 -20 -52 -44 -103 -25 -51 -50 -114 -57 -140 -16 -65 -45 -85 -88 -62
-26 13 -39 14 -73 5 -38 -11 -42 -10 -62 13 -27 32 -47 38 -71 21 -27 -20 -31
-18 -54 21 -17 29 -26 35 -53 35 -24 0 -41 8 -58 28 -14 16 -32 31 -39 33 -10
4 12 36 68 103 45 54 80 100 77 103 -3 4 -16 -7 -28 -23 -44 -59 -124 -125
-194 -161 -63 -33 -75 -36 -98 -25 -14 6 -35 30 -46 52 -23 44 -43 58 -63 42
-9 -8 -24 0 -54 26 l-43 37 16 60 c8 33 31 88 50 122 47 85 150 293 158 321 8
25 17 27 34 10 26 -26 20 0 -8 33 -16 19 -29 39 -29 44 -1 6 16 26 37 46 30
30 47 37 91 42 82 10 89 27 10 27 -74 0 -105 15 -95 47 9 30 98 101 132 106
48 7 372 7 476 0z m235 -34 c16 -6 24 -22 33 -65 13 -60 11 -90 -17 -263 l-16
-103 -40 6 c-58 10 -77 23 -77 54 -1 15 -7 54 -15 87 -20 83 -20 254 0 283 14
19 22 21 63 15 26 -3 57 -10 69 -14z m228 -23 c147 -21 394 -75 442 -97 43
-21 182 -139 210 -179 20 -28 14 -32 -86 -56 l-76 -19 54 -3 c29 -2 66 1 81 7
27 9 28 8 45 -47 9 -32 20 -66 25 -78 6 -15 -1 -41 -26 -95 -47 -103 -45 -119
19 -180 28 -28 62 -58 75 -66 16 -11 22 -25 22 -53 0 -33 -5 -42 -42 -70 -56
-40 -79 -45 -132 -28 -38 13 -50 13 -76 1 -18 -7 -34 -22 -37 -33 -3 -11 -8
-20 -12 -20 -18 0 -228 73 -274 95 l-52 26 45 -41 c25 -23 71 -60 104 -82 52
-36 56 -42 43 -55 -13 -13 -22 -14 -64 -3 -58 15 -91 9 -130 -24 -24 -20 -39
-24 -79 -22 -69 4 -94 22 -94 67 0 55 -66 358 -90 414 -11 26 -53 83 -92 127
-39 43 -69 80 -67 83 3 2 67 -10 144 -26 142 -30 241 -38 284 -22 18 7 -1 12
-85 22 -60 6 -145 20 -188 31 -44 11 -83 17 -88 14 -12 -7 -10 4 14 118 12 60
28 108 37 115 20 15 154 17 236 2 132 -22 131 -22 119 -10 -14 15 -172 48
-275 57 -43 3 -79 10 -79 14 0 9 122 29 228 37 128 10 88 23 -71 23 -165 0
-167 1 -167 51 0 23 16 24 155 5z m-1301 -847 c35 -31 50 -39 59 -30 20 20 33
12 57 -39 21 -44 29 -52 67 -63 43 -12 43 -14 25 -30 -10 -9 -36 -26 -58 -37
-23 -13 -29 -18 -14 -14 30 8 118 64 143 92 16 18 23 19 45 9 15 -6 41 -25 57
-43 24 -25 37 -31 58 -27 22 4 30 0 48 -31 21 -36 46 -45 66 -25 18 18 60 2
67 -25 6 -24 7 -24 51 -10 55 16 92 6 97 -28 3 -24 20 -28 118 -28 49 -1 65
-7 52 -23 -6 -7 -9 -29 -8 -48 2 -27 -4 -46 -26 -75 -15 -21 -36 -56 -45 -76
-9 -21 -19 -38 -23 -38 -3 0 -16 -9 -29 -21 -25 -23 -104 -30 -123 -11 -7 7
-23 12 -37 12 -32 1 -67 25 -51 35 6 4 26 39 44 79 18 39 45 86 61 104 15 18
25 35 22 38 -9 9 -67 -76 -94 -136 -33 -73 -57 -98 -89 -92 -33 6 -38 18 -20
44 9 12 16 32 16 43 0 12 11 32 25 45 30 28 34 51 4 24 -25 -22 -39 -47 -44
-77 -10 -51 -85 -75 -119 -38 -10 11 -37 21 -68 24 -28 4 -62 14 -77 24 -14
10 -39 20 -56 23 -25 4 -31 11 -36 42 -6 39 -24 68 -42 68 -5 0 -2 -9 8 -20
22 -24 22 -24 -38 -44 -67 -22 -94 -20 -122 10 -27 29 -82 47 -139 45 -59 -1
-78 20 -71 83 22 191 33 224 87 252 17 9 42 29 55 45 14 16 30 29 37 29 7 0
34 -19 60 -41z m2334 -67 c21 -26 29 -46 27 -67 -2 -16 2 -37 9 -45 8 -8 19
-32 26 -53 11 -36 10 -39 -26 -90 -21 -28 -44 -58 -53 -64 -20 -17 -41 -16
-41 0 0 8 -9 22 -20 32 -11 10 -20 13 -20 8 0 -6 7 -16 15 -23 21 -18 19 -37
-10 -65 -21 -22 -33 -25 -92 -25 -69 -1 -103 -14 -103 -42 0 -8 -10 -24 -22
-35 -20 -18 -35 -20 -113 -18 -49 1 -96 2 -102 3 -18 3 -16 41 2 48 8 4 15 11
15 17 0 6 -11 0 -25 -13 -13 -12 -23 -32 -22 -43 3 -33 -49 -41 -115 -18 -55
19 -55 19 -89 -2 -19 -12 -36 -24 -39 -28 -13 -15 -83 -18 -106 -3 -21 14 -26
14 -52 -2 -38 -22 -58 -14 -67 28 -4 18 -15 47 -25 63 -32 52 -59 172 -48 211
11 43 32 52 59 29 17 -17 51 -24 117 -26 13 -1 36 11 51 25 35 33 76 41 127
24 49 -18 60 -14 80 24 16 31 28 33 92 13 20 -7 25 -2 39 33 12 31 23 43 44
47 33 8 65 -1 96 -25 31 -24 104 -12 141 23 17 16 39 27 56 27 15 0 34 7 42
15 8 8 33 19 54 25 22 6 40 15 40 20 0 22 30 8 58 -28z m-2189 -362 c-8 -15
25 -50 47 -50 14 0 37 -9 52 -20 15 -11 51 -23 79 -27 29 -3 59 -13 67 -22 30
-33 38 -145 31 -431 -6 -230 -5 -281 7 -311 8 -19 18 -55 22 -81 5 -33 24 -72
62 -129 76 -115 76 -118 -45 -158 -67 -22 -85 -20 -76 8 9 28 -23 130 -56 177
-35 51 -127 116 -218 155 l-64 27 34 17 c51 26 79 56 79 84 0 32 -29 132 -66
226 -55 141 -125 357 -128 398 -2 23 -7 63 -11 90 -9 52 -8 53 29 33 28 -14
89 -7 125 14 16 9 35 9 30 0z m2101 -39 c0 -34 -70 -269 -124 -418 -87 -237
-104 -308 -87 -364 7 -23 32 -62 56 -88 l44 -47 -72 -11 c-96 -14 -174 -45
-225 -89 -50 -43 -128 -148 -137 -187 -4 -15 -11 -27 -17 -27 -13 0 -58 51
-58 66 0 7 29 54 64 104 48 67 68 106 77 148 19 83 20 96 25 217 2 61 8 211
13 335 5 124 9 227 9 230 -1 30 4 32 96 28 88 -3 96 -1 120 21 14 14 26 32 26
41 0 26 42 43 87 36 21 -4 50 -3 63 3 32 13 40 13 40 2z m-2213 -911 c74 0
197 -79 233 -151 36 -69 24 -73 -45 -15 -95 81 -178 95 -274 46 -44 -22 -50
-19 -72 42 -10 31 -10 39 2 54 23 28 69 43 103 33 17 -5 41 -9 53 -9z m-213
-130 l18 -70 49 0 c42 0 51 -3 59 -22 6 -17 9 -18 9 -6 1 9 -8 23 -20 32 l-21
14 22 12 c43 23 123 24 166 2 39 -20 154 -126 154 -142 0 -20 -117 -44 -200
-43 -47 1 -132 2 -190 3 -125 1 -153 13 -148 63 2 23 12 37 35 52 18 11 32 24
33 29 0 11 -51 -21 -67 -42 -7 -9 -13 -33 -13 -54 0 -37 -1 -38 -34 -38 -97 0
-77 112 29 161 22 10 34 19 27 19 -48 1 -122 -72 -129 -129 -6 -41 -19 -51
-41 -29 -26 26 -14 65 34 107 26 23 43 41 38 41 -14 -1 -80 -63 -93 -88 -7
-13 -10 -30 -7 -38 7 -17 -25 -19 -42 -2 -20 20 -14 40 26 82 31 33 32 36 7
17 -37 -28 -65 -70 -58 -87 6 -15 -15 -18 -34 -6 -6 4 -14 19 -18 33 -12 48
27 71 200 119 44 12 103 34 130 50 28 15 52 28 55 29 3 0 14 -30 24 -69z
m2427 53 c7 -7 4 -21 -10 -44 -12 -19 -21 -42 -21 -51 0 -22 1 -22 -41 -1 -74
37 -210 23 -299 -29 l-35 -21 40 42 c45 47 116 84 202 106 62 15 148 14 164
-2z m161 -75 c55 -18 82 -35 138 -86 39 -35 70 -70 70 -78 0 -8 -2 -14 -4 -14
-2 0 -11 -3 -20 -6 -9 -4 -16 -1 -16 6 0 16 -41 73 -48 66 -3 -3 2 -14 10 -23
22 -27 28 -50 15 -61 -17 -14 -57 4 -57 26 0 10 -7 27 -16 38 -14 18 -15 18
-8 -6 12 -42 10 -54 -8 -58 -12 -2 -18 3 -18 14 0 38 -98 129 -118 110 -3 -3
0 -6 6 -6 20 0 92 -71 92 -90 0 -22 -25 -44 -40 -35 -5 3 -10 17 -10 29 0 29
-46 76 -74 76 -18 -1 -18 -3 7 -16 25 -13 27 -18 15 -32 -12 -15 -11 -16 5 -3
19 15 29 10 34 -18 5 -36 -21 -44 -122 -37 -71 5 -112 2 -163 -9 -62 -15 -149
-14 -204 1 -48 14 1 76 92 118 74 35 149 35 216 1 66 -34 91 -28 86 22 -3 28
2 46 18 66 26 33 35 33 122 5z m-2917 -180 c17 -6 48 -13 70 -17 22 -4 49 -12
60 -18 35 -19 179 -35 279 -32 53 2 96 1 96 -2 0 -15 -63 -32 -135 -37 -174
-10 -418 30 -476 77 -23 18 -23 20 -6 39 19 21 21 21 112 -10z m2210 -8 c16 0
17 -11 7 -47 -7 -20 -9 -21 -39 -8 -18 8 -33 21 -33 30 0 8 -7 15 -15 15 -18
0 -19 12 -4 27 9 9 19 8 40 -3 15 -7 35 -14 44 -14z m114 -32 c34 -22 46 -23
201 -21 91 1 195 2 232 3 79 3 121 -6 115 -23 -6 -19 -158 -25 -392 -15 -222
9 -235 13 -235 60 0 25 34 23 79 -4z"/>
<path d="M11902 9857 c-38 -39 -55 -77 -34 -77 12 0 92 96 92 109 0 20 -15 11
-58 -32z"/>
<path d="M12502 9873 c2 -5 17 -32 33 -60 32 -56 55 -68 55 -30 0 27 -55 97
-77 97 -8 0 -13 -3 -11 -7z"/>
<path d="M11976 9837 c-28 -36 -34 -67 -13 -67 12 1 57 63 57 80 0 23 -21 17
-44 -13z"/>
<path d="M12420 9835 c0 -25 23 -65 37 -65 17 0 16 40 -1 63 -16 21 -36 22
-36 2z"/>
<path d="M12048 9815 c-6 -14 -8 -28 -5 -32 9 -8 47 27 47 44 0 23 -30 14 -42
-12z"/>
<path d="M11126 9152 c-11 -17 -17 -83 -11 -111 8 -38 35 -55 59 -38 18 13 25
93 12 135 -7 21 -49 32 -60 14z"/>
<path d="M11083 8778 c-37 -48 -15 -68 77 -68 81 0 100 6 100 31 0 24 -26 34
-106 43 -44 5 -64 3 -71 -6z"/>
<path d="M12308 8971 c-29 -25 -38 -41 -38 -65 0 -35 15 -56 41 -56 30 0 40
26 37 91 l-3 63 -37 -33z"/>
<path d="M13048 8969 c-52 -51 -50 -119 3 -119 30 0 40 26 37 92 l-3 63 -37
-36z"/>
<path d="M13994 8780 c-11 -4 -33 -23 -48 -41 -36 -43 -31 -91 14 -131 35 -32
93 -37 140 -13 36 19 50 43 50 87 0 74 -85 127 -156 98z m77 -40 c21 -12 26
-46 7 -52 -8 -3 -5 -14 10 -35 30 -43 6 -51 -29 -10 -29 33 -49 30 -49 -8 0
-18 -4 -23 -15 -19 -11 5 -15 22 -15 70 l0 64 36 0 c19 0 44 -5 55 -10z"/>
<path d="M14015 8720 c-4 -7 -3 -16 3 -22 14 -14 45 -2 40 15 -6 16 -34 21
-43 7z"/>
<path d="M12936 8484 c-22 -22 -23 -250 -2 -280 12 -15 18 -17 33 -8 16 10 18
28 21 144 3 153 -9 187 -52 144z"/>
<path d="M13681 8476 c-7 -8 -11 -30 -9 -48 3 -29 7 -33 36 -36 l33 -3 -3 48
c-2 40 -7 49 -24 51 -11 2 -26 -4 -33 -12z"/>
<path d="M2777 7948 c-26 -35 -46 -71 -70 -130 -26 -62 -9 -43 24 27 17 36 42
79 56 96 14 16 23 32 20 35 -3 3 -16 -10 -30 -28z"/>
<path d="M2706 7915 c-11 -8 -15 -15 -10 -15 6 0 19 7 30 15 10 8 15 14 9 14
-5 0 -19 -6 -29 -14z"/>
<path d="M2791 7889 c-18 -22 -31 -43 -28 -45 3 -3 16 10 30 28 50 68 49 81
-2 17z"/>
<path d="M2658 7890 c-18 -11 -92 -149 -84 -157 2 -3 19 26 37 64 18 37 42 76
53 85 23 19 20 23 -6 8z"/>
<path d="M2843 7832 c-18 -37 -35 -78 -38 -92 l-5 -25 11 25 c6 14 25 53 42
88 16 34 28 64 26 66 -2 3 -19 -25 -36 -62z"/>
<path d="M2539 7778 c-17 -24 -18 -29 -6 -19 18 14 42 51 33 51 -3 0 -15 -15
-27 -32z"/>
<path d="M4440 7753 c0 -13 29 -38 35 -31 3 3 -4 13 -15 23 -11 10 -20 13 -20
8z"/>
<path d="M2512 7715 c0 -16 2 -22 5 -12 2 9 2 23 0 30 -3 6 -5 -1 -5 -18z"/>
<path d="M4151 7651 c6 -14 15 -36 20 -50 l7 -26 1 26 c1 15 -8 37 -20 50
l-20 24 12 -24z"/>
<path d="M2973 7643 c9 -2 25 -2 35 0 9 3 1 5 -18 5 -19 0 -27 -2 -17 -5z"/>
<path d="M4230 7642 c0 -4 5 -13 10 -18 6 -6 14 -30 19 -55 6 -32 9 -37 10
-16 1 27 -23 97 -33 97 -4 0 -6 -4 -6 -8z"/>
<path d="M2668 7633 c6 -2 18 -2 25 0 6 3 1 5 -13 5 -14 0 -19 -2 -12 -5z"/>
<path d="M2848 7633 c12 -2 32 -2 45 0 12 2 2 4 -23 4 -25 0 -35 -2 -22 -4z"/>
<path d="M3120 7629 c41 -4 89 -10 105 -13 21 -5 18 -2 -10 8 -23 9 -67 15
-105 14 l-65 -1 75 -8z"/>
<path d="M2583 7623 c9 -2 23 -2 30 0 6 3 -1 5 -18 5 -16 0 -22 -2 -12 -5z"/>
<path d="M2753 7623 c9 -2 23 -2 30 0 6 3 -1 5 -18 5 -16 0 -22 -2 -12 -5z"/>
<path d="M2508 7613 c6 -2 18 -2 25 0 6 3 1 5 -13 5 -14 0 -19 -2 -12 -5z"/>
<path d="M4410 7618 c1 -15 49 -129 49 -117 1 22 -29 108 -40 115 -5 3 -9 4
-9 2z"/>
<path d="M2435 7600 c-25 -11 1 -11 35 0 20 6 21 8 5 8 -11 0 -29 -3 -40 -8z"/>
<path d="M3298 7603 c12 -2 32 -2 45 0 12 2 2 4 -23 4 -25 0 -35 -2 -22 -4z"/>
<path d="M3433 7593 c9 -2 23 -2 30 0 6 3 -1 5 -18 5 -16 0 -22 -2 -12 -5z"/>
<path d="M2388 7583 c7 -3 16 -2 19 1 4 3 -2 6 -13 5 -11 0 -14 -3 -6 -6z"/>
<path d="M3508 7583 c7 -3 16 -2 19 1 4 3 -2 6 -13 5 -11 0 -14 -3 -6 -6z"/>
<path d="M3555 7570 c27 -12 43 -12 25 0 -8 5 -22 9 -30 9 -10 0 -8 -3 5 -9z"/>
<path d="M2300 7560 c-13 -9 -13 -10 0 -10 8 0 22 5 30 10 13 9 13 10 0 10 -8
0 -22 -5 -30 -10z"/>
<path d="M4530 7533 c0 -11 60 -110 60 -100 0 11 -49 107 -55 107 -3 0 -5 -3
-5 -7z"/>
<path d="M4384 7490 c3 -19 8 -56 11 -82 3 -26 11 -51 17 -54 8 -5 9 -1 4 12
-4 10 -10 44 -13 74 -3 30 -10 62 -15 70 -5 10 -7 3 -4 -20z"/>
<path d="M3188 7393 c7 -3 16 -2 19 1 4 3 -2 6 -13 5 -11 0 -14 -3 -6 -6z"/>
<path d="M3348 7373 c7 -3 16 -2 19 1 4 3 -2 6 -13 5 -11 0 -14 -3 -6 -6z"/>
<path d="M2245 7340 c-3 -6 1 -7 9 -4 18 7 21 14 7 14 -6 0 -13 -4 -16 -10z"/>
<path d="M2403 7289 c-24 -12 -43 -25 -43 -30 0 -12 11 -11 40 6 14 8 35 14
48 15 13 0 22 6 22 15 0 20 -17 19 -67 -6z"/>
<path d="M2029 7203 c-47 -25 -86 -54 -112 -86 -59 -69 -38 -69 30 0 46 48 72
65 126 84 37 13 67 27 67 31 0 17 -43 6 -111 -29z"/>
<path d="M2483 7216 c-52 -21 -68 -36 -37 -36 21 0 114 43 114 52 0 12 -20 8
-77 -16z"/>
<path d="M1706 7185 c-4 -19 -3 -42 1 -49 5 -9 9 4 10 35 1 58 -2 62 -11 14z"/>
<path d="M2132 7160 c-73 -19 -110 -39 -146 -79 -31 -34 -9 -37 27 -4 43 41
58 48 150 68 42 9 77 21 77 26 0 13 -26 10 -108 -11z"/>
<path d="M2209 7107 c-14 -12 -54 -44 -89 -71 -36 -27 -59 -51 -53 -53 13 -5
183 126 183 139 0 13 -14 8 -41 -15z"/>
<path d="M1609 6993 l-24 -28 28 24 c25 23 32 31 24 31 -2 0 -14 -12 -28 -27z"/>
<path d="M1763 6939 c-63 -38 -91 -62 -118 -102 -34 -50 -45 -87 -26 -87 5 0
11 10 15 23 13 52 65 105 150 153 81 46 103 65 74 63 -7 0 -50 -23 -95 -50z"/>
<path d="M1534 6918 l-19 -23 23 19 c12 11 22 21 22 23 0 8 -8 2 -26 -19z"/>
<path d="M1890 6899 c-66 -36 -109 -76 -139 -129 -17 -30 -19 -40 -8 -40 7 0
19 11 25 24 20 45 76 98 134 127 32 16 58 34 58 39 0 15 -10 12 -70 -21z"/>
<path d="M4700 6926 c0 -2 8 -10 18 -17 15 -13 16 -12 3 4 -13 16 -21 21 -21
13z"/>
<path d="M1377 6228 c-4 -18 -9 -48 -13 -66 -8 -42 24 -182 42 -182 17 0 17
-1 0 48 -16 45 -20 122 -10 190 7 50 -11 59 -19 10z"/>
<path d="M1455 6229 c-12 -38 27 -229 46 -229 13 0 11 18 -6 74 -8 27 -15 78
-15 113 0 62 -12 83 -25 42z"/>
<path d="M1570 6178 c0 -53 28 -118 50 -118 14 0 12 16 -4 29 -7 6 -17 41 -21
76 -8 78 -25 86 -25 13z"/>
<path d="M4830 6183 c0 -10 10 -38 21 -63 12 -25 24 -72 28 -104 3 -34 11 -61
19 -64 23 -7 13 80 -18 153 -17 38 -30 75 -30 82 0 7 -4 13 -10 13 -5 0 -10
-8 -10 -17z"/>
<path d="M4630 6170 c0 -11 11 -41 25 -67 14 -27 27 -74 31 -105 8 -83 28 -75
21 7 -3 48 -12 76 -31 105 -14 22 -26 49 -26 60 0 11 -4 20 -10 20 -5 0 -10
-9 -10 -20z"/>
<path d="M4740 6172 c0 -5 13 -29 30 -53 23 -35 30 -55 30 -96 0 -28 5 -55 10
-58 6 -4 10 17 10 55 0 51 -5 68 -32 110 -31 46 -48 61 -48 42z"/>
<path d="M4535 6143 c4 -10 11 -35 15 -56 7 -38 25 -66 34 -56 6 5 -18 101
-28 118 -12 18 -29 13 -21 -6z"/>
<path d="M4890 5710 c0 -60 4 -100 10 -100 6 0 10 40 10 100 0 60 -4 100 -10
100 -6 0 -10 -40 -10 -100z"/>
<path d="M4760 5746 c0 -30 -3 -61 -6 -70 -4 -11 -1 -16 10 -16 9 0 17 9 17
20 1 11 3 35 4 53 3 40 -3 67 -16 67 -5 0 -9 -24 -9 -54z"/>
<path d="M4658 5759 c2 -17 -3 -47 -13 -69 -17 -39 -14 -77 5 -65 5 3 10 15
10 26 0 11 7 33 15 49 9 18 12 40 9 59 -9 41 -32 41 -26 0z"/>
<path d="M1636 5588 c27 -67 89 -138 121 -138 16 1 16 2 -2 16 -51 37 -73 67
-94 123 -12 34 -28 61 -36 61 -10 0 -8 -15 11 -62z"/>
<path d="M1902 5593 c21 -20 40 -34 43 -31 9 9 -45 68 -63 68 -12 0 -6 -11 20
-37z"/>
<path d="M1770 5581 c0 -13 80 -75 87 -67 4 3 -11 22 -33 41 -40 35 -54 42
-54 26z"/>
<path d="M4630 5474 c-36 -25 -72 -49 -80 -54 -8 -5 -12 -12 -8 -15 7 -8 177
95 178 108 0 16 -28 4 -90 -39z"/>
<path d="M4808 5470 c-22 -28 -61 -62 -90 -79 -77 -44 -84 -48 -77 -55 6 -6
91 37 129 66 29 22 90 97 90 109 0 19 -17 6 -52 -41z"/>
<path d="M4825 5428 c-4 -13 -32 -47 -63 -75 -66 -62 -64 -82 3 -27 59 50 105
124 76 124 -5 0 -13 -10 -16 -22z"/>
<path d="M4465 5235 c-22 -14 -47 -25 -56 -25 -36 0 -119 -32 -119 -45 0 -16
16 -20 24 -7 3 5 31 14 63 21 55 12 143 57 143 74 0 12 -13 8 -55 -18z"/>
<path d="M4543 5173 c-25 -19 -52 -28 -110 -35 -96 -13 -109 -16 -97 -27 5 -5
45 -4 88 1 62 8 89 16 123 39 24 17 43 34 43 39 0 16 -13 11 -47 -17z"/>
<path d="M2744 6609 c-3 -6 -1 -16 4 -21 13 -13 45 8 36 23 -7 12 -31 11 -40
-2z"/>
<path d="M2474 6449 c-10 -17 13 -36 27 -22 12 12 4 33 -11 33 -5 0 -12 -5
-16 -11z"/>
<path d="M2441 6228 c-2 -51 155 -150 344 -214 60 -21 71 -22 83 -10 10 9 12
21 7 33 -8 16 -9 16 -12 -4 -3 -13 -5 -23 -7 -23 -17 0 -191 67 -256 99 -93
46 -129 73 -147 111 -8 18 -12 20 -12 8z"/>
<path d="M3226 6065 c10 -16 31 -44 46 -61 l29 -31 -23 -7 c-15 -5 -18 -9 -10
-13 8 -3 19 0 25 6 6 6 38 11 72 11 l60 -1 -36 -19 c-44 -23 -89 -74 -89 -101
0 -28 7 -23 29 19 13 26 36 47 73 67 48 26 61 29 137 27 69 -1 95 -7 138 -27
58 -29 111 -85 120 -128 5 -27 23 -48 23 -28 0 48 -71 137 -139 174 -45 24
-62 27 -143 28 -51 0 -126 4 -167 8 -73 7 -75 8 -119 57 -29 31 -38 38 -26 19z"/>
<path d="M2515 6045 c-41 -14 -105 -74 -105 -97 0 -7 12 2 26 20 30 37 91 72
128 72 53 0 136 -41 198 -98 34 -32 56 -48 50 -36 -17 32 -86 91 -140 118 -65
33 -109 39 -157 21z"/>
<path d="M2502 5948 c-30 -30 0 -75 43 -64 19 5 25 13 25 35 0 38 -41 56 -68
29z"/>
<path d="M3436 5881 c-36 -40 15 -91 55 -55 24 21 24 36 1 57 -24 22 -35 21
-56 -2z"/>
<path d="M2995 5839 c-4 -6 -5 -12 -2 -15 2 -3 7 2 10 11 7 17 1 20 -8 4z"/>
<path d="M2956 5735 c-9 -26 -7 -32 5 -12 6 10 9 21 6 23 -2 3 -7 -2 -11 -11z"/>
<path d="M2411 5724 c-1 -29 77 -100 125 -113 69 -20 149 -24 190 -11 46 15
94 47 94 62 0 6 -8 4 -17 -4 -57 -50 -153 -62 -253 -32 -52 15 -98 52 -127 99
-12 20 -12 20 -12 -1z"/>
<path d="M2900 5653 c-40 -41 -41 -43 -9 -17 31 25 65 64 56 64 -1 0 -23 -21
-47 -47z"/>
<path d="M3329 5585 c51 -81 239 -138 336 -101 25 10 45 22 45 27 0 5 -14 2
-31 -7 -54 -27 -160 -20 -233 15 -34 17 -76 43 -95 58 -25 21 -31 23 -22 8z"/>
<path d="M3141 5564 c-12 -15 -19 -29 -16 -32 2 -3 13 6 23 18 l19 23 16 -23
c9 -13 20 -21 24 -17 4 4 -5 19 -19 33 l-25 26 -22 -28z"/>
<path d="M3823 5409 c13 -20 23 -24 31 -11 2 4 -6 12 -19 18 -22 11 -23 10
-12 -7z"/>
<path d="M3450 5415 c0 -2 10 -10 23 -16 20 -11 21 -11 8 4 -13 16 -31 23 -31
12z"/>
<path d="M3738 5373 c7 -3 16 -2 19 1 4 3 -2 6 -13 5 -11 0 -14 -3 -6 -6z"/>
<path d="M2540 5355 c-7 -9 -11 -17 -9 -20 3 -2 10 5 17 15 14 24 10 26 -8 5z"/>
<path d="M3558 5363 c7 -3 16 -2 19 1 4 3 -2 6 -13 5 -11 0 -14 -3 -6 -6z"/>
<path d="M3670 5360 c0 -12 8 -12 35 0 18 8 17 9 -7 9 -16 1 -28 -3 -28 -9z"/>
<path d="M3051 5106 c10 -9 69 -36 69 -32 0 6 -55 36 -66 36 -4 0 -5 -2 -3 -4z"/>
<path d="M2900 6677 c0 -8 3 -17 6 -20 10 -9 46 12 39 24 -9 14 -45 11 -45 -4z"/>
<path d="M2937 6633 c-24 -23 12 -55 38 -33 12 10 13 16 4 26 -12 15 -31 18
-42 7z"/>
<path d="M3450 4696 c-19 -7 -98 -26 -174 -41 -101 -21 -147 -35 -165 -51 -14
-12 -23 -26 -19 -30 4 -4 15 3 25 14 14 17 51 29 167 52 140 29 216 52 216 64
0 8 -10 7 -50 -8z"/>
<path d="M3077 3699 c-46 -27 -67 -152 -34 -203 22 -33 63 -44 96 -25 40 22
52 56 48 128 -3 55 -7 67 -31 87 -29 26 -51 29 -79 13z"/>
<path d="M2163 1705 c0 -22 2 -30 4 -17 2 12 2 30 0 40 -3 9 -5 -1 -4 -23z"/>
<path d="M3201 1714 c9 -10 29 -47 44 -82 20 -46 34 -64 52 -68 13 -4 27 -4
30 -1 3 3 -6 9 -19 12 -18 5 -33 25 -59 77 -19 39 -41 73 -49 76 -13 4 -12 2
1 -14z"/>
<path d="M1670 495 c14 -8 32 -14 40 -14 8 0 0 6 -19 14 -42 19 -54 19 -21 0z"/>
<path d="M4275 490 c10 -11 20 -18 23 -15 7 6 -18 35 -31 35 -5 0 -2 -9 8 -20z"/>
<path d="M4083 403 c9 -2 23 -2 30 0 6 3 -1 5 -18 5 -16 0 -22 -2 -12 -5z"/>
<path d="M14319 7663 c-198 -153 -310 -246 -306 -257 2 -6 35 -15 73 -19 38
-5 75 -15 83 -22 13 -13 10 -20 -18 -55 -21 -26 -30 -47 -26 -59 4 -14 -14
-34 -77 -87 -45 -38 -95 -84 -112 -103 -17 -18 -51 -47 -76 -64 -45 -31 -283
-239 -309 -270 -32 -39 30 -3 194 111 33 23 71 42 86 42 14 0 54 20 89 45 49
35 69 43 89 38 33 -7 31 -5 25 -30 -5 -19 -22 -29 -179 -104 -48 -23 -197
-129 -255 -181 -36 -33 -45 -58 -22 -58 9 0 107 72 147 109 41 37 116 84 123
77 3 -3 -5 -17 -18 -31 -42 -44 -1 -29 169 65 90 50 167 90 172 88 6 -2 -24
-28 -66 -58 -41 -30 -75 -61 -75 -70 0 -8 -7 -26 -16 -38 -8 -12 -13 -30 -10
-40 6 -19 -24 -46 -107 -97 -26 -17 -90 -57 -141 -90 -52 -33 -115 -72 -140
-87 l-46 -28 0 -127 0 -128 -32 -28 c-47 -41 -16 -23 80 48 118 85 171 119
178 112 10 -10 -6 -26 -64 -64 -31 -20 -80 -55 -109 -78 -29 -24 -81 -59 -116
-79 -65 -36 -100 -66 -78 -66 18 0 66 27 174 97 93 61 101 64 128 52 23 -9 39
-9 73 1 32 9 49 9 64 1 13 -7 36 -8 66 -2 25 4 47 6 50 4 2 -2 -3 -19 -12 -36
-32 -64 -9 -117 50 -117 16 0 28 -5 28 -13 0 -16 -67 -81 -140 -135 -108 -81
-322 -253 -332 -267 -9 -11 -11 -85 -3 -85 5 0 39 22 100 63 60 41 233 145
251 151 12 3 29 15 39 26 10 11 26 20 36 20 24 0 75 31 183 109 75 55 95 65
127 64 22 -1 42 4 49 13 7 8 19 14 26 14 12 0 14 141 14 890 0 490 -1 890 -3
890 -2 0 -37 -26 -78 -57z"/>
<path d="M13955 6915 c-16 -13 -25 -24 -19 -25 6 0 21 11 34 25 30 32 24 32
-15 0z"/>
<path d="M13179 6023 c-13 -15 -12 -15 9 -4 23 12 28 21 13 21 -5 0 -15 -7
-22 -17z"/>
<path d="M13104 5972 c-23 -15 -50 -32 -60 -38 -11 -7 -17 -14 -14 -17 6 -7
114 60 118 73 5 14 2 13 -44 -18z"/>
<path d="M13325 5960 c-3 -5 -2 -10 4 -10 5 0 13 5 16 10 3 6 2 10 -4 10 -5 0
-13 -4 -16 -10z"/>
<path d="M14345 5853 c-22 -19 -81 -66 -131 -104 -50 -38 -96 -75 -103 -83
-16 -19 2 -30 28 -17 10 6 47 21 82 34 35 12 90 43 121 67 56 44 58 47 58 93
0 26 -3 47 -7 47 -5 -1 -26 -17 -48 -37z"/>
<path d="M14286 5678 c-51 -46 -132 -116 -180 -157 -47 -41 -86 -80 -86 -87 0
-20 28 -17 66 7 19 11 42 18 52 15 13 -4 45 11 98 46 63 42 87 52 122 53 l42
0 0 103 c0 60 -4 102 -10 102 -5 0 -52 -37 -104 -82z m-111 -188 c-10 -11 -21
-17 -24 -14 -3 3 3 12 13 20 28 20 32 17 11 -6z"/>
<path d="M12721 4928 c-94 -70 -107 -83 -87 -86 14 -2 35 3 48 10 35 20 188
129 188 134 0 6 -13 -1 -50 -26 -52 -35 -64 -29 -20 10 25 22 42 40 39 40 -4
0 -56 -37 -118 -82z"/>
<path d="M14325 4864 c-38 -30 -102 -80 -142 -110 -63 -49 -133 -122 -133
-138 0 -3 11 -6 24 -6 13 0 29 -7 36 -15 18 -22 28 -19 90 24 31 22 70 43 87
48 17 4 49 25 72 46 l42 38 -3 83 -3 84 -70 -54z"/>
<path d="M14379 4414 c-7 -9 -38 -33 -69 -54 -30 -21 -88 -72 -129 -114 -45
-45 -86 -78 -103 -81 -16 -4 -40 -22 -56 -42 -15 -20 -46 -55 -68 -77 -23 -23
-44 -51 -48 -62 -3 -11 -27 -37 -52 -58 -25 -21 -43 -40 -41 -42 2 -3 31 9 63
26 81 43 206 143 359 288 17 16 36 32 43 36 31 18 -9 -31 -76 -94 -131 -122
-227 -209 -255 -230 -15 -12 -32 -31 -38 -42 -10 -19 -9 -20 17 -14 44 11 134
74 144 101 5 14 14 25 20 25 5 0 46 32 90 71 64 56 86 70 108 67 20 -2 27 -9
27 -25 1 -33 9 -36 49 -12 l36 21 0 164 c0 90 -2 164 -4 164 -2 0 -10 -7 -17
-16z"/>
<path d="M14370 4060 c-8 -5 -24 -10 -35 -10 -13 0 -35 -21 -59 -55 -21 -30
-68 -83 -104 -119 -65 -65 -78 -94 -28 -60 31 19 42 14 28 -13 -10 -16 -109
-103 -157 -137 -35 -25 -7 -30 39 -8 24 12 46 22 50 22 9 0 95 38 126 55 25
14 58 30 133 62 l37 16 0 129 c0 70 -3 128 -7 128 -5 0 -15 -5 -23 -10z m-34
-116 c-15 -14 -31 -22 -35 -19 -3 4 7 17 24 30 38 31 49 21 11 -11z"/>
<path d="M13797 3863 c-4 -3 -7 -11 -7 -17 0 -6 5 -5 12 2 6 6 9 14 7 17 -3 3
-9 2 -12 -2z"/>
<path d="M13890 3790 c-23 -19 -29 -29 -19 -30 8 0 28 14 44 30 37 39 20 39
-25 0z"/>
<path d="M13796 3724 c-4 -9 -4 -19 -1 -23 8 -7 38 12 43 27 6 19 -35 14 -42
-4z"/>
<path d="M14123 3664 c-18 -8 -33 -21 -33 -29 0 -21 10 -18 50 15 37 33 33 36
-17 14z"/>
<path d="M8261 543 c-22 -4 -111 -88 -111 -105 0 -22 113 5 148 35 12 11 22
28 22 37 0 16 -19 41 -29 39 -4 -1 -17 -4 -30 -6z"/>
<path d="M8020 342 c-182 -146 -234 -189 -363 -304 l-42 -37 216 -1 215 0 23
31 c13 18 71 83 130 146 58 63 114 128 124 144 18 27 18 29 2 29 -18 0 -215
-81 -300 -123 -27 -14 -61 -28 -75 -32 -58 -17 17 32 130 85 120 55 140 67
140 81 0 13 -24 11 -56 -5 -33 -18 -61 -7 -66 25 -3 19 -11 14 -78 -39z"/>
<path d="M6765 328 c-36 -21 -340 -328 -325 -328 9 0 54 37 101 83 47 45 110
105 140 133 111 105 142 145 84 112z"/>
<path d="M8493 273 c-7 -2 -13 -11 -13 -20 0 -20 34 -12 38 10 3 17 -3 20 -25
10z"/>
<path d="M8400 191 c-19 -16 -33 -32 -29 -35 6 -7 79 44 79 56 0 15 -15 8 -50
-21z"/>
<path d="M8510 133 c-26 -18 -43 -32 -94 -74 -17 -14 -42 -33 -56 -42 l-24
-17 39 0 c35 1 48 8 109 66 40 39 64 70 59 75 -5 5 -19 2 -33 -8z"/>
<path d="M8354 110 c-34 -17 -80 -48 -103 -70 l-41 -40 49 0 c44 0 54 5 93 40
23 23 58 51 75 63 68 46 18 51 -73 7z"/>
<path d="M8960 10 c-13 -8 -12 -10 3 -10 9 0 17 5 17 10 0 12 -1 12 -20 0z"/>
</g>
</svg>
